<svg xmlns="http://www.w3.org/2000/svg" xmlns:xlink="http://www.w3.org/1999/xlink" viewBox="0 0 800 429.02"><defs><style>.cls-1{fill:none;}.cls-2{isolation:isolate;}.cls-3{clip-path:url(#clip-path);}.cls-10,.cls-100,.cls-101,.cls-102,.cls-103,.cls-104,.cls-105,.cls-106,.cls-107,.cls-108,.cls-109,.cls-11,.cls-110,.cls-111,.cls-112,.cls-113,.cls-114,.cls-115,.cls-116,.cls-117,.cls-118,.cls-119,.cls-12,.cls-120,.cls-121,.cls-122,.cls-123,.cls-124,.cls-125,.cls-126,.cls-127,.cls-128,.cls-129,.cls-13,.cls-130,.cls-131,.cls-132,.cls-133,.cls-135,.cls-136,.cls-137,.cls-138,.cls-139,.cls-14,.cls-140,.cls-141,.cls-142,.cls-143,.cls-144,.cls-145,.cls-146,.cls-147,.cls-148,.cls-149,.cls-15,.cls-150,.cls-151,.cls-152,.cls-153,.cls-154,.cls-155,.cls-156,.cls-157,.cls-158,.cls-16,.cls-17,.cls-18,.cls-19,.cls-20,.cls-21,.cls-22,.cls-23,.cls-24,.cls-25,.cls-26,.cls-27,.cls-28,.cls-29,.cls-30,.cls-31,.cls-32,.cls-33,.cls-34,.cls-35,.cls-36,.cls-37,.cls-38,.cls-39,.cls-4,.cls-40,.cls-41,.cls-42,.cls-43,.cls-44,.cls-45,.cls-46,.cls-47,.cls-48,.cls-49,.cls-5,.cls-50,.cls-51,.cls-52,.cls-53,.cls-54,.cls-55,.cls-56,.cls-57,.cls-58,.cls-59,.cls-6,.cls-60,.cls-61,.cls-62,.cls-63,.cls-64,.cls-65,.cls-66,.cls-67,.cls-68,.cls-69,.cls-7,.cls-70,.cls-71,.cls-72,.cls-73,.cls-74,.cls-75,.cls-76,.cls-77,.cls-78,.cls-79,.cls-8,.cls-80,.cls-81,.cls-82,.cls-83,.cls-84,.cls-85,.cls-86,.cls-87,.cls-88,.cls-89,.cls-9,.cls-90,.cls-91,.cls-92,.cls-93,.cls-94,.cls-95,.cls-96,.cls-97,.cls-98,.cls-99{fill-rule:evenodd;}.cls-4{fill:url(#Безымянный_градиент_202);}.cls-5{fill:#362072;opacity:0.3;}.cls-10,.cls-104,.cls-105,.cls-106,.cls-108,.cls-109,.cls-11,.cls-110,.cls-111,.cls-115,.cls-116,.cls-117,.cls-118,.cls-119,.cls-12,.cls-131,.cls-136,.cls-137,.cls-140,.cls-141,.cls-142,.cls-144,.cls-148,.cls-149,.cls-15,.cls-151,.cls-153,.cls-154,.cls-156,.cls-16,.cls-17,.cls-18,.cls-19,.cls-20,.cls-21,.cls-27,.cls-28,.cls-29,.cls-30,.cls-31,.cls-32,.cls-33,.cls-34,.cls-35,.cls-39,.cls-40,.cls-42,.cls-43,.cls-44,.cls-45,.cls-46,.cls-47,.cls-48,.cls-5,.cls-57,.cls-61,.cls-63,.cls-64,.cls-65,.cls-66,.cls-67,.cls-68,.cls-69,.cls-71,.cls-73,.cls-74,.cls-76,.cls-77,.cls-78,.cls-79,.cls-80,.cls-81,.cls-82,.cls-83,.cls-84,.cls-85,.cls-86,.cls-87,.cls-88,.cls-89,.cls-90,.cls-91,.cls-93,.cls-94,.cls-95,.cls-96,.cls-98{mix-blend-mode:multiply;}.cls-6{fill:url(#Безымянный_градиент_99);}.cls-7{fill:url(#Безымянный_градиент_99-2);}.cls-8{fill:#a5e5f6;}.cls-102,.cls-107,.cls-131,.cls-134,.cls-136,.cls-137,.cls-142,.cls-144,.cls-148,.cls-149,.cls-154,.cls-156,.cls-36,.cls-50,.cls-62,.cls-70,.cls-72,.cls-8,.cls-99{opacity:0.5;}.cls-125,.cls-126,.cls-22,.cls-49,.cls-8{mix-blend-mode:soft-light;}.cls-9{fill:url(#Безымянный_градиент_231);}.cls-10{fill:url(#Безымянный_градиент_149);}.cls-11{fill:url(#Безымянный_градиент_149-2);}.cls-12{fill:url(#Безымянный_градиент_149-3);}.cls-13{fill:#8b89a4;}.cls-13,.cls-130,.cls-133,.cls-138,.cls-152,.cls-37,.cls-38,.cls-41,.cls-51,.cls-59,.cls-60,.cls-81,.cls-92,.cls-97{opacity:0.2;}.cls-14{fill:#7f609c;}.cls-15{fill:url(#Безымянный_градиент_149-4);}.cls-16{fill:url(#Безымянный_градиент_149-5);}.cls-17{fill:url(#Безымянный_градиент_149-6);}.cls-18{fill:url(#Безымянный_градиент_149-7);}.cls-19{fill:url(#Безымянный_градиент_149-8);}.cls-20{fill:url(#Безымянный_градиент_149-9);}.cls-21{fill:url(#Безымянный_градиент_149-10);}.cls-22{fill:#a6aeb8;}.cls-23{fill:#604b88;}.cls-24{fill:url(#Безымянный_градиент_56);}.cls-25{fill:url(#Безымянный_градиент_136);}.cls-26{fill:url(#Безымянный_градиент_128);}.cls-27{fill:url(#Безымянный_градиент_149-11);}.cls-28{fill:url(#Безымянный_градиент_149-12);}.cls-29{fill:url(#Безымянный_градиент_149-13);}.cls-30{fill:url(#Безымянный_градиент_149-14);}.cls-31{fill:url(#Безымянный_градиент_149-15);}.cls-32{fill:url(#Безымянный_градиент_149-16);}.cls-33{fill:url(#Безымянный_градиент_149-17);}.cls-34{fill:url(#Безымянный_градиент_149-18);}.cls-35{fill:url(#Безымянный_градиент_149-19);}.cls-36{fill:#5c367d;}.cls-37,.cls-62{fill:#726da7;}.cls-38{fill:#81462f;}.cls-39{fill:url(#Безымянный_градиент_149-20);}.cls-40{fill:url(#Безымянный_градиент_149-21);}.cls-41{fill:#b33a4a;}.cls-42{fill:url(#Безымянный_градиент_149-22);}.cls-43{fill:url(#Безымянный_градиент_149-23);}.cls-44{fill:url(#Безымянный_градиент_149-24);}.cls-45{fill:url(#Безымянный_градиент_149-25);}.cls-46{fill:url(#Безымянный_градиент_149-26);}.cls-47{fill:url(#Безымянный_градиент_149-27);}.cls-48{fill:url(#Безымянный_градиент_149-28);}.cls-49{fill:#8897c0;}.cls-50,.cls-51,.cls-55{fill:#8b3386;}.cls-52,.cls-56,.cls-99{fill:#6d335b;}.cls-52{opacity:0.83;}.cls-53{fill:#5b3762;}.cls-101,.cls-53,.cls-54{opacity:0.81;}.cls-54{fill:#462a58;}.cls-57{fill:#401469;opacity:0.58;}.cls-58{fill:url(#Безымянный_градиент_60);}.cls-59,.cls-72{fill:#7c68a2;}.cls-60{fill:#ff722a;}.cls-61{fill:url(#Безымянный_градиент_149-29);}.cls-63{fill:url(#Безымянный_градиент_149-30);}.cls-64{fill:url(#Безымянный_градиент_149-31);}.cls-65{fill:url(#Безымянный_градиент_149-32);}.cls-66{fill:url(#Безымянный_градиент_149-33);}.cls-67{fill:url(#Безымянный_градиент_149-34);}.cls-68{fill:url(#Безымянный_градиент_149-35);}.cls-69{fill:url(#Безымянный_градиент_149-36);}.cls-70{fill:#593b55;}.cls-71{fill:url(#Безымянный_градиент_149-37);}.cls-73{fill:url(#Безымянный_градиент_149-38);}.cls-74{fill:url(#Безымянный_градиент_149-39);}.cls-75{fill:#202;}.cls-76{fill:url(#Безымянный_градиент_149-40);}.cls-77{fill:url(#Безымянный_градиент_149-41);}.cls-78{fill:url(#Безымянный_градиент_149-42);}.cls-79{fill:url(#Безымянный_градиент_149-43);}.cls-80{fill:url(#Безымянный_градиент_149-44);}.cls-81{fill:url(#Безымянный_градиент_135);}.cls-82{fill:url(#Безымянный_градиент_149-45);}.cls-83{fill:url(#Безымянный_градиент_149-46);}.cls-84{fill:url(#Безымянный_градиент_149-47);}.cls-85{fill:url(#Безымянный_градиент_149-48);}.cls-86{fill:url(#Безымянный_градиент_149-49);}.cls-87{fill:url(#Безымянный_градиент_149-50);}.cls-88{fill:url(#Безымянный_градиент_149-51);}.cls-89{fill:url(#Безымянный_градиент_149-52);}.cls-90{fill:url(#Безымянный_градиент_149-53);}.cls-91{fill:url(#Безымянный_градиент_149-54);}.cls-92{fill:#ff4824;}.cls-93{fill:url(#Безымянный_градиент_149-55);}.cls-94{fill:url(#Безымянный_градиент_149-56);}.cls-95{fill:url(#Безымянный_градиент_149-57);}.cls-96{fill:url(#Безымянный_градиент_149-58);}.cls-97{fill:#928986;}.cls-98{fill:url(#Безымянный_градиент_149-59);}.cls-100,.cls-101{fill:#4a2d54;}.cls-102{fill:#37154f;}.cls-103{fill:url(#Безымянный_градиент_231-2);}.cls-104{fill:url(#Безымянный_градиент_149-60);}.cls-105{fill:url(#Безымянный_градиент_149-61);}.cls-106{fill:url(#Безымянный_градиент_149-62);}.cls-107{fill:#6558b1;}.cls-108{fill:url(#Безымянный_градиент_149-63);}.cls-109{fill:url(#Безымянный_градиент_149-64);}.cls-110{fill:url(#Безымянный_градиент_149-65);}.cls-111{fill:#5f3464;}.cls-112{fill:#7570a9;}.cls-113{fill:url(#Безымянный_градиент_147);}.cls-114{fill:url(#Безымянный_градиент_198);}.cls-115{fill:url(#Безымянный_градиент_169);}.cls-116{fill:url(#Безымянный_градиент_169-2);}.cls-117{fill:url(#Безымянный_градиент_169-3);}.cls-118{fill:url(#Безымянный_градиент_169-4);}.cls-119{fill:url(#Безымянный_градиент_178);}.cls-120{fill:#1a002e;}.cls-121{fill:url(#Безымянный_градиент_60-2);}.cls-122{fill:#6a81ff;}.cls-123{fill:url(#Безымянный_градиент_32);}.cls-124{fill:url(#Безымянный_градиент_32-2);}.cls-125{fill:#b0b8ff;}.cls-126{fill:#cfd4ff;}.cls-127{fill:#190031;}.cls-128{fill:#281147;}.cls-129{fill:url(#Безымянный_градиент_159);}.cls-130{fill:#9081cf;}.cls-131{fill:url(#Безымянный_градиент_149-66);}.cls-132{fill:url(#Безымянный_градиент_60-3);}.cls-133{fill:#6d81e5;}.cls-135{fill:url(#Безымянный_градиент_128-2);}.cls-136{fill:url(#Безымянный_градиент_149-67);}.cls-137{fill:url(#Безымянный_градиент_149-68);}.cls-138{fill:#7f757c;}.cls-139{fill:url(#Безымянный_градиент_128-3);}.cls-140{fill:url(#Безымянный_градиент_149-69);}.cls-141{fill:url(#Безымянный_градиент_149-70);}.cls-142{fill:url(#Безымянный_градиент_158);}.cls-143{fill:url(#Безымянный_градиент_128-4);}.cls-144{fill:url(#Безымянный_градиент_149-71);}.cls-145{fill:#16011a;}.cls-146{fill:#3c1d47;}.cls-147{fill:url(#Безымянный_градиент_128-5);}.cls-148{fill:url(#Безымянный_градиент_149-72);}.cls-149{fill:url(#Безымянный_градиент_149-73);}.cls-150{fill:url(#Безымянный_градиент_128-6);}.cls-151{fill:url(#Безымянный_градиент_149-74);}.cls-152{fill:#8b89b3;}.cls-153{fill:url(#Безымянный_градиент_149-75);}.cls-154{fill:url(#Безымянный_градиент_158-2);}.cls-155{fill:url(#Безымянный_градиент_128-7);}.cls-156{fill:url(#Безымянный_градиент_149-76);}.cls-157{fill:#5c489a;}.cls-158{fill:#a2bbff;}</style><clipPath id="clip-path" transform="translate(0 0.1)"><rect class="cls-1" width="800" height="400"/></clipPath><linearGradient id="Безымянный_градиент_202" x1="389.92" y1="340.72" x2="389.92" y2="224.67" gradientUnits="userSpaceOnUse"><stop offset="0.01" stop-color="#5c44ab"/><stop offset="1" stop-color="#6583ff"/></linearGradient><linearGradient id="Безымянный_градиент_99" x1="332.32" y1="347.35" x2="332.32" y2="152.35" gradientUnits="userSpaceOnUse"><stop offset="0.01" stop-color="#5c44ab"/><stop offset="1" stop-color="#806fb3"/></linearGradient><linearGradient id="Безымянный_градиент_99-2" x1="446.03" y1="348.6" x2="446.03" y2="220.65" xlink:href="#Безымянный_градиент_99"/><linearGradient id="Безымянный_градиент_231" x1="539.32" y1="368.85" x2="539.32" y2="129.35" gradientUnits="userSpaceOnUse"><stop offset="0.01" stop-color="#571e63"/><stop offset="1" stop-color="#4c3b8f"/></linearGradient><linearGradient id="Безымянный_градиент_149" x1="531.56" y1="247.61" x2="611.57" y2="247.61" gradientUnits="userSpaceOnUse"><stop offset="0" stop-color="#c77cbd"/><stop offset="1" stop-color="#974577"/></linearGradient><linearGradient id="Безымянный_градиент_149-2" x1="476.34" y1="268.94" x2="498.33" y2="268.94" xlink:href="#Безымянный_градиент_149"/><linearGradient id="Безымянный_градиент_149-3" x1="491.33" y1="255.91" x2="546" y2="255.91" xlink:href="#Безымянный_градиент_149"/><linearGradient id="Безымянный_градиент_149-4" x1="531.56" y1="243.22" x2="553.14" y2="243.22" xlink:href="#Безымянный_градиент_149"/><linearGradient id="Безымянный_градиент_149-5" x1="572.5" y1="206.08" x2="590.52" y2="206.08" xlink:href="#Безымянный_градиент_149"/><linearGradient id="Безымянный_градиент_149-6" x1="512.94" y1="203.09" x2="523.52" y2="203.09" xlink:href="#Безымянный_градиент_149"/><linearGradient id="Безымянный_градиент_149-7" x1="484.57" y1="313.1" x2="546" y2="313.1" xlink:href="#Безымянный_градиент_149"/><linearGradient id="Безымянный_градиент_149-8" x1="546" y1="302.43" x2="559.7" y2="302.43" xlink:href="#Безымянный_градиент_149"/><linearGradient id="Безымянный_градиент_149-9" x1="497.35" y1="317.86" x2="521.5" y2="317.86" xlink:href="#Безымянный_градиент_149"/><linearGradient id="Безымянный_градиент_149-10" x1="543.75" y1="193.18" x2="575.16" y2="193.18" xlink:href="#Безымянный_градиент_149"/><linearGradient id="Безымянный_градиент_56" x1="690.25" y1="400.1" x2="690.25" y2="0.1" gradientUnits="userSpaceOnUse"><stop offset="0.01" stop-color="#1b0033"/><stop offset="1" stop-color="#340023"/></linearGradient><linearGradient id="Безымянный_градиент_136" x1="616.98" y1="400.1" x2="616.98" y2="82.43" gradientUnits="userSpaceOnUse"><stop offset="0.01" stop-color="#40135b"/><stop offset="1" stop-color="#432c81"/></linearGradient><linearGradient id="Безымянный_градиент_128" x1="649.34" y1="367.85" x2="649.34" y2="20.43" gradientUnits="userSpaceOnUse"><stop offset="0.01" stop-color="#3b003d"/><stop offset="1" stop-color="#461d54"/></linearGradient><linearGradient id="Безымянный_градиент_149-11" x1="658.14" y1="390.55" x2="658.14" y2="137.1" xlink:href="#Безымянный_градиент_149"/><linearGradient id="Безымянный_градиент_149-12" x1="723.93" y1="394.54" x2="723.93" y2="127.1" xlink:href="#Безымянный_градиент_149"/><linearGradient id="Безымянный_градиент_149-13" x1="728.77" y1="161.1" x2="728.77" y2="10.43" xlink:href="#Безымянный_градиент_149"/><linearGradient id="Безымянный_градиент_149-14" x1="782.9" y1="396.92" x2="782.9" y2="0.1" xlink:href="#Безымянный_градиент_149"/><linearGradient id="Безымянный_градиент_149-15" x1="661.19" y1="297.64" x2="661.19" y2="20.43" xlink:href="#Безымянный_градиент_149"/><linearGradient id="Безымянный_градиент_149-16" x1="667.87" y1="159.03" x2="667.87" y2="82.72" xlink:href="#Безымянный_градиент_149"/><linearGradient id="Безымянный_градиент_149-17" x1="636.91" y1="196.37" x2="636.91" y2="82.43" xlink:href="#Безымянный_градиент_149"/><linearGradient id="Безымянный_градиент_149-18" x1="596.8" y1="353.85" x2="596.8" y2="222.2" xlink:href="#Безымянный_градиент_149"/><linearGradient id="Безымянный_градиент_149-19" x1="676.1" y1="394.54" x2="676.1" y2="169.76" xlink:href="#Безымянный_градиент_149"/><linearGradient id="Безымянный_градиент_149-20" x1="637.74" y1="367.85" x2="637.74" y2="184.1" xlink:href="#Безымянный_градиент_149"/><linearGradient id="Безымянный_градиент_149-21" x1="658.41" y1="154.43" x2="658.41" y2="115.79" xlink:href="#Безымянный_градиент_149"/><linearGradient id="Безымянный_градиент_149-22" x1="744.22" y1="259.79" x2="800" y2="259.79" xlink:href="#Безымянный_градиент_149"/><linearGradient id="Безымянный_градиент_149-23" x1="738.21" y1="297.48" x2="779.53" y2="297.48" xlink:href="#Безымянный_градиент_149"/><linearGradient id="Безымянный_градиент_149-24" x1="741.84" y1="45.23" x2="772.61" y2="45.23" xlink:href="#Безымянный_градиент_149"/><linearGradient id="Безымянный_градиент_149-25" x1="743.67" y1="92.81" x2="782.61" y2="92.81" xlink:href="#Безымянный_градиент_149"/><linearGradient id="Безымянный_градиент_149-26" x1="776.8" y1="310.09" x2="800" y2="310.09" xlink:href="#Безымянный_градиент_149"/><linearGradient id="Безымянный_градиент_149-27" x1="765.81" y1="69.75" x2="790.64" y2="69.75" xlink:href="#Безымянный_градиент_149"/><linearGradient id="Безымянный_градиент_149-28" x1="720.63" y1="48.25" x2="743.01" y2="48.25" xlink:href="#Безымянный_градиент_149"/><linearGradient id="Безымянный_градиент_60" x1="166.1" y1="400" x2="166.1" gradientUnits="userSpaceOnUse"><stop offset="0.01" stop-color="#1b0033"/><stop offset="1" stop-color="#410f37"/></linearGradient><linearGradient id="Безымянный_градиент_149-29" x1="84.28" y1="384.1" x2="84.28" y2="0" xlink:href="#Безымянный_градиент_149"/><linearGradient id="Безымянный_градиент_149-30" x1="22.56" y1="384.1" x2="22.56" y2="82.43" xlink:href="#Безымянный_градиент_149"/><linearGradient id="Безымянный_градиент_149-31" x1="51.52" y1="145.39" x2="51.52" y2="0.03" xlink:href="#Безымянный_градиент_149"/><linearGradient id="Безымянный_градиент_149-32" x1="138.82" y1="376.24" x2="138.82" y2="0" xlink:href="#Безымянный_градиент_149"/><linearGradient id="Безымянный_градиент_149-33" x1="97.51" y1="381.81" x2="97.51" y2="161.1" xlink:href="#Безымянный_градиент_149"/><linearGradient id="Безымянный_градиент_149-34" x1="202.31" y1="372.54" x2="202.31" y2="14.76" xlink:href="#Безымянный_градиент_149"/><linearGradient id="Безымянный_градиент_149-35" x1="206.83" y1="248.08" x2="206.83" y2="42.5" xlink:href="#Безымянный_градиент_149"/><linearGradient id="Безымянный_градиент_149-36" x1="256.35" y1="326.78" x2="256.35" y2="127.1" xlink:href="#Безымянный_градиент_149"/><linearGradient id="Безымянный_градиент_149-37" x1="99.99" y1="378.42" x2="99.99" y2="290.26" xlink:href="#Безымянный_градиент_149"/><linearGradient id="Безымянный_градиент_149-38" x1="225.44" y1="340.48" x2="252.13" y2="340.48" xlink:href="#Безымянный_градиент_149"/><linearGradient id="Безымянный_градиент_149-39" x1="170.35" y1="322.17" x2="195.7" y2="322.17" xlink:href="#Безымянный_градиент_149"/><linearGradient id="Безымянный_градиент_149-40" x1="143.5" y1="189.1" x2="143.5" y2="57.1" xlink:href="#Безымянный_градиент_149"/><linearGradient id="Безымянный_градиент_149-41" x1="105.49" y1="249.43" x2="105.49" y2="245.87" xlink:href="#Безымянный_градиент_149"/><linearGradient id="Безымянный_градиент_149-42" x1="205.32" y1="335.17" x2="205.32" y2="315" xlink:href="#Безымянный_градиент_149"/><linearGradient id="Безымянный_градиент_149-43" x1="210.23" y1="356.72" x2="210.23" y2="347.35" xlink:href="#Безымянный_градиент_149"/><linearGradient id="Безымянный_градиент_149-44" x1="154.99" y1="268.1" x2="154.99" y2="197.43" xlink:href="#Безымянный_градиент_149"/><linearGradient id="Безымянный_градиент_135" x1="168.55" y1="246.26" x2="168.55" y2="222.2" gradientUnits="userSpaceOnUse"><stop offset="0" stop-color="#974577"/><stop offset="1" stop-color="#c77cbd"/></linearGradient><linearGradient id="Безымянный_градиент_149-45" x1="117.77" y1="157.57" x2="117.77" y2="57.1" xlink:href="#Безымянный_градиент_149"/><linearGradient id="Безымянный_градиент_149-46" x1="199.25" y1="277.62" x2="199.25" y2="228.76" xlink:href="#Безымянный_градиент_149"/><linearGradient id="Безымянный_градиент_149-47" x1="64.7" y1="38.97" x2="64.7" y2="3.83" xlink:href="#Безымянный_градиент_149"/><linearGradient id="Безымянный_градиент_149-48" x1="55.75" y1="107.33" x2="55.75" y2="0.1" xlink:href="#Безымянный_градиент_149"/><linearGradient id="Безымянный_градиент_149-49" x1="89.83" y1="36.1" x2="89.83" y2="0" xlink:href="#Безымянный_градиент_149"/><linearGradient id="Безымянный_градиент_149-50" x1="22.56" y1="384.1" x2="22.56" y2="175.76" xlink:href="#Безымянный_градиент_149"/><linearGradient id="Безымянный_градиент_149-51" x1="199.12" y1="166.06" x2="199.12" y2="82.43" xlink:href="#Безымянный_градиент_149"/><linearGradient id="Безымянный_градиент_149-52" x1="228.86" y1="248.18" x2="228.86" y2="192.06" xlink:href="#Безымянный_градиент_149"/><linearGradient id="Безымянный_градиент_149-53" x1="168.74" y1="151.76" x2="186.1" y2="151.76" xlink:href="#Безымянный_градиент_149"/><linearGradient id="Безымянный_градиент_149-54" x1="229.11" y1="332.34" x2="274" y2="332.34" xlink:href="#Безымянный_градиент_149"/><linearGradient id="Безымянный_градиент_149-55" x1="72.96" y1="239.76" x2="92.56" y2="239.76" xlink:href="#Безымянный_градиент_149"/><linearGradient id="Безымянный_градиент_149-56" x1="64.31" y1="381.81" x2="64.31" y2="322.1" xlink:href="#Безымянный_градиент_149"/><linearGradient id="Безымянный_градиент_149-57" x1="31.03" y1="382.29" x2="31.03" y2="319.76" xlink:href="#Безымянный_градиент_149"/><linearGradient id="Безымянный_градиент_149-58" x1="104.94" y1="57.1" x2="104.94" y2="47.7" xlink:href="#Безымянный_градиент_149"/><linearGradient id="Безымянный_градиент_149-59" x1="239.61" y1="198.14" x2="254.4" y2="198.14" xlink:href="#Безымянный_градиент_149"/><linearGradient id="Безымянный_градиент_231-2" x1="295.76" y1="351.76" x2="295.76" y2="161.1" xlink:href="#Безымянный_градиент_231"/><linearGradient id="Безымянный_градиент_149-60" x1="288.11" y1="233.26" x2="288.11" y2="175.85" xlink:href="#Безымянный_градиент_149"/><linearGradient id="Безымянный_градиент_149-61" x1="281.37" y1="275.6" x2="281.37" y2="230.1" xlink:href="#Безымянный_градиент_149"/><linearGradient id="Безымянный_градиент_149-62" x1="313.97" y1="350.71" x2="313.97" y2="198.1" xlink:href="#Безымянный_градиент_149"/><linearGradient id="Безымянный_градиент_149-63" x1="281.24" y1="310.09" x2="281.24" y2="282.15" xlink:href="#Безымянный_градиент_149"/><linearGradient id="Безымянный_градиент_149-64" x1="269.31" y1="241.26" x2="269.31" y2="230.1" xlink:href="#Безымянный_градиент_149"/><linearGradient id="Безымянный_градиент_149-65" x1="285.51" y1="200.29" x2="291.57" y2="200.29" xlink:href="#Безымянный_градиент_149"/><linearGradient id="Безымянный_градиент_147" x1="400" y1="400.1" x2="400" y2="338.74" gradientUnits="userSpaceOnUse"><stop offset="0.01" stop-color="#2a0036"/><stop offset="0.29" stop-color="#2b0239"/><stop offset="0.49" stop-color="#2e0842"/><stop offset="0.65" stop-color="#341251"/><stop offset="0.81" stop-color="#3d2067"/><stop offset="0.95" stop-color="#473282"/><stop offset="1" stop-color="#4c3b8f"/></linearGradient><radialGradient id="Безымянный_градиент_198" cx="397.25" cy="337.5" r="120.25" gradientUnits="userSpaceOnUse"><stop offset="0" stop-color="#599dff"/><stop offset="1" stop-color="#632fd9"/></radialGradient><linearGradient id="Безымянный_градиент_169" x1="286.29" y1="400.1" x2="286.29" y2="342.73" gradientUnits="userSpaceOnUse"><stop offset="0" stop-color="#fff"/><stop offset="1" stop-color="#6d458b"/></linearGradient><linearGradient id="Безымянный_градиент_169-2" x1="511.55" y1="400.1" x2="511.55" y2="341.21" xlink:href="#Безымянный_градиент_169"/><linearGradient id="Безымянный_градиент_169-3" x1="541.95" y1="400.1" x2="541.95" y2="355.33" xlink:href="#Безымянный_градиент_169"/><linearGradient id="Безымянный_градиент_169-4" x1="312.41" y1="400.1" x2="312.41" y2="349.43" xlink:href="#Безымянный_градиент_169"/><linearGradient id="Безымянный_градиент_178" x1="251.26" y1="400.1" x2="251.26" y2="381.49" gradientUnits="userSpaceOnUse"><stop offset="0" stop-color="#9090a9"/><stop offset="1" stop-color="#402f5c"/></linearGradient><linearGradient id="Безымянный_градиент_60-2" x1="479.5" y1="389.97" x2="623" y2="389.97" xlink:href="#Безымянный_градиент_60"/><linearGradient id="Безымянный_градиент_32" x1="529.41" y1="400.1" x2="529.41" y2="382.47" gradientUnits="userSpaceOnUse"><stop offset="0" stop-color="#7c6de7"/><stop offset="0.37" stop-color="#7c71e6"/><stop offset="0.76" stop-color="#7b7ee1"/><stop offset="1" stop-color="#7b8add"/></linearGradient><linearGradient id="Безымянный_градиент_32-2" x1="265.57" y1="400.1" x2="265.57" y2="370.6" xlink:href="#Безымянный_градиент_32"/><linearGradient id="Безымянный_градиент_159" x1="499.43" y1="373.96" x2="645.57" y2="373.96" gradientUnits="userSpaceOnUse"><stop offset="0.01" stop-color="#1b0033"/><stop offset="1" stop-color="#180028"/></linearGradient><linearGradient id="Безымянный_градиент_149-66" x1="520.67" y1="377.89" x2="534.15" y2="377.89" xlink:href="#Безымянный_градиент_149"/><linearGradient id="Безымянный_градиент_60-3" x1="580.99" y1="390.09" x2="580.99" y2="381.49" xlink:href="#Безымянный_градиент_60"/><linearGradient id="Безымянный_градиент_128-2" x1="460" y1="375.78" x2="460" y2="349.65" gradientTransform="matrix(1, 0, 0, -0.86, 0, 700.28)" xlink:href="#Безымянный_градиент_128"/><linearGradient id="Безымянный_градиент_149-67" x1="449.34" y1="362.72" x2="470.66" y2="362.72" gradientTransform="matrix(1, 0, 0, -0.86, 0, 700.28)" xlink:href="#Безымянный_градиент_149"/><linearGradient id="Безымянный_градиент_149-68" x1="458.68" y1="371.81" x2="468.72" y2="371.81" gradientTransform="matrix(1, 0, 0, -0.86, 0, 700.28)" xlink:href="#Безымянный_градиент_149"/><linearGradient id="Безымянный_градиент_128-3" x1="432.86" y1="375.78" x2="432.86" y2="314.46" gradientTransform="matrix(1, 0, 0, -0.86, 0, 700.28)" xlink:href="#Безымянный_градиент_128"/><linearGradient id="Безымянный_градиент_149-69" x1="435.47" y1="375.78" x2="435.47" y2="314.46" gradientTransform="matrix(1, 0, 0, -0.86, 0, 700.28)" xlink:href="#Безымянный_градиент_149"/><linearGradient id="Безымянный_градиент_149-70" x1="433.3" y1="362.16" x2="445.18" y2="362.16" gradientTransform="matrix(1, 0, 0, -0.86, 0, 700.28)" xlink:href="#Безымянный_градиент_149"/><linearGradient id="Безымянный_градиент_158" x1="446.48" y1="375.78" x2="446.48" y2="348.54" gradientTransform="matrix(1, 0, 0, -0.86, 0, 700.28)" xlink:href="#Безымянный_градиент_135"/><linearGradient id="Безымянный_градиент_128-4" x1="399.47" y1="375.3" x2="399.47" y2="365.53" gradientTransform="matrix(1, 0, 0, -0.86, 0, 700.28)" xlink:href="#Безымянный_градиент_128"/><linearGradient id="Безымянный_градиент_149-71" x1="407.67" y1="372.55" x2="409.97" y2="372.55" gradientTransform="matrix(1, 0, 0, -0.86, 0, 700.28)" xlink:href="#Безымянный_градиент_149"/><linearGradient id="Безымянный_градиент_128-5" x1="460" y1="376.13" x2="460" y2="349.99" xlink:href="#Безымянный_градиент_128"/><linearGradient id="Безымянный_градиент_149-72" x1="449.34" y1="363.06" x2="470.66" y2="363.06" xlink:href="#Безымянный_градиент_149"/><linearGradient id="Безымянный_градиент_149-73" x1="458.68" y1="372.15" x2="468.72" y2="372.15" xlink:href="#Безымянный_градиент_149"/><linearGradient id="Безымянный_градиент_128-6" x1="432.86" y1="376.13" x2="432.86" y2="314.8" xlink:href="#Безымянный_градиент_128"/><linearGradient id="Безымянный_градиент_149-74" x1="435.47" y1="376.13" x2="435.47" y2="314.8" xlink:href="#Безымянный_градиент_149"/><linearGradient id="Безымянный_градиент_149-75" x1="433.3" y1="362.5" x2="445.18" y2="362.5" xlink:href="#Безымянный_градиент_149"/><linearGradient id="Безымянный_градиент_158-2" x1="446.48" y1="376.13" x2="446.48" y2="348.88" xlink:href="#Безымянный_градиент_135"/><linearGradient id="Безымянный_градиент_128-7" x1="399.47" y1="375.64" x2="399.47" y2="365.87" xlink:href="#Безымянный_градиент_128"/><linearGradient id="Безымянный_градиент_149-76" x1="407.67" y1="372.89" x2="409.97" y2="372.89" xlink:href="#Безымянный_градиент_149"/></defs><g class="cls-2"><g id="canyon"><g class="cls-3"><polygon class="cls-4" points="355.31 224.67 372.14 238.22 377.96 262.81 380.6 261.82 389.92 263.21 400 282.15 407.33 287.36 424.53 340.72 372.12 338.74 355.31 224.67"/><polygon class="cls-5" points="380.6 261.82 389.92 298.35 394.01 301.85 400 340.48 377.96 262.81 380.6 261.82"/><polygon class="cls-5" points="400 282.15 409.97 325.08 406.27 298.89 402.14 283.68 400 282.15"/><polygon class="cls-5" points="355.31 224.67 359.75 232.1 368.17 307.47 371.09 308.43 377.96 338.96 372.12 338.74 355.31 224.67"/><polygon class="cls-6" points="372.12 341.47 332.19 347.35 292.52 200.29 295.76 169.77 306.33 161.92 317.6 152.35 321.93 154.43 332.19 175.29 336.63 176.25 348.78 197.43 349.89 199.34 366.2 275.6 370.92 275.6 372.12 341.47"/><polygon class="cls-5" points="353 268.85 352.17 269.18 355.16 343 353.82 343.12 348.5 252.85 338.5 220.12 338.83 216.26 325.17 186.27 319.33 192.1 318.83 207.27 330.94 242.77 342.62 256.43 342.62 301.85 345.03 305.19 347.02 343.92 332.19 347.35 292.52 200.29 295.76 169.77 306.33 161.92 317.6 152.35 327 186.27 336 192.1 332.19 175.29 336.63 176.25 335 180.82 353 267.43 366.2 275.6 367.64 275.98 364.08 275.98 353 268.85"/><polygon class="cls-5" points="336 192.1 331.56 200.29 338.83 216.26 338.5 220.12 348.5 252.85 349.77 274.41 352.17 269.18 353 267.43 335 180.82 332.92 178.52 336 192.1"/><polygon class="cls-5" points="325.17 186.27 319.33 192.1 312.92 203.06 292.52 203.06 295.76 169.77 317.6 152.35 327 186.27 325.17 186.27"/><polygon class="cls-5" points="330.94 242.77 317.6 274.41 321.93 288.11 342.62 256.43 330.94 242.77"/><polygon class="cls-5" points="342.62 301.85 330.08 303.6 330.08 313.1 345.03 305.19 342.62 301.85"/><polygon class="cls-7" points="415.71 347.52 440.93 249.29 446.57 238.22 454.93 238.22 476.34 220.66 470.16 348.6 429.57 347.52 415.71 347.52"/><polygon class="cls-8" points="446.57 238.22 440.93 249.29 427.45 301.8 433.86 317.22 449.92 272.87 446.57 238.22"/><polygon class="cls-8" points="454.93 238.22 452.33 251.18 452.33 272.87 448.08 298.27 465.23 281.02 470.6 225.37 454.93 238.22"/><polygon class="cls-8" points="429.57 347.52 442.59 305.72 454.79 293.82 466.93 287.36 454.79 347.52 429.57 347.52"/><polygon class="cls-5" points="433.86 317.22 427.29 347.52 429.57 347.52 442.59 305.72 448.69 299.76 448.08 298.27 452.33 272.87 452.33 251.18 454.93 238.22 446.57 238.22 449.92 272.87 433.86 317.22"/><polygon class="cls-9" points="600.31 129.35 586.91 147.96 574.27 142.44 567.6 145.13 540.47 169.76 531.56 166.6 498.33 172.72 498.33 178.52 477 190.49 471.5 272.49 465.35 346.82 480.5 355.35 481.75 359.35 580.5 368.85 613.28 216.25 600.31 129.35"/><polygon class="cls-10" points="574.27 142.44 576.09 228.76 572.5 263.82 562.57 296.12 554.08 302.2 540.47 169.76 531.56 166.6 541.33 199.45 546 241.26 546 303.6 534.1 364.38 541.34 364.67 557.38 306.51 574.17 275.97 582.03 260.82 586.25 275.6 580.5 322.1 577 324.44 572.5 365.87 580.5 365.87 604.51 256.43 611.57 155.62 600.31 129.35 586.91 147.96 574.27 142.44"/><polygon class="cls-11" points="498.33 178.52 491.33 278.35 488.67 282.15 481.75 359.35 480.5 355.35 476.34 353.85 487.34 280.43 493.75 199.45 495.67 196.37 496.88 179.34 498.33 178.52"/><polygon class="cls-12" points="546 246.43 542.33 246.43 531.56 252.85 508.99 276.47 491.33 278.35 491.5 275.97 503.83 275.97 508.5 273.26 533.25 249.1 545.13 233.48 545.75 239.6 546 246.43"/><polygon class="cls-13" points="491.33 278.35 488.67 282.15 481.75 359.35 485.92 359.72 512.95 362.13 506.91 282.15 497.35 278.35 491.33 278.35"/><polygon class="cls-13" points="491.5 275.97 498.33 172.72 519.25 168.87 518.15 205.76 512.95 235.68 503.83 275.97 491.5 275.97"/><polygon class="cls-13" points="545.13 233.48 541.33 199.45 531.56 166.6 527.65 167.32 523.52 258.6 533.25 249.1 545.13 233.48"/><polygon class="cls-13" points="554.08 302.2 549.11 253.82 551.6 224.14 565.77 194.14 574.17 181.51 575.03 178.52 576.09 228.76 572.5 263.82 562.57 296.12 554.08 302.2"/><polygon class="cls-13" points="551.49 327.85 580.5 322.1 582.03 292.97 586.25 275.6 582.03 260.82 557.38 306.51 551.49 327.85"/><polygon class="cls-14" points="562.57 325.65 577 324.44 580.5 322.1 562.57 325.65"/><polygon class="cls-14" points="488.67 282.15 508.99 276.47 491.33 278.35 488.67 282.15"/><polygon class="cls-15" points="542.33 246.43 531.56 252.85 531.56 249.85 545.13 233.48 541.33 199.45 542.76 192.1 553.13 292.97 546 294.33 546 246.43 542.33 246.43"/><polygon class="cls-16" points="576.09 228.76 574.27 142.44 586.91 147.96 590.52 178.52 590.52 230.1 582.03 260.82 576.09 269.71 572.5 263.82 576.09 228.76"/><polygon class="cls-13" points="476.34 353.85 485.39 293.46 481.75 282.15 469.97 296.12 465.35 346.82 476.34 353.85"/><polygon class="cls-17" points="519.25 168.87 518.51 193.65 518.15 205.76 512.95 238.1 519.25 204.77 521.33 173.76 523.52 168.08 519.25 168.87"/><polygon class="cls-18" points="546 298.35 528.75 308.76 497.35 322.1 484.88 324.44 484.57 327.85 486.33 325.65 502.92 323.88 545.13 300.6 546 301.85 546 298.35"/><polygon class="cls-19" points="546 301.85 552.25 305.85 557.38 306.51 559.7 302.2 556.88 304.18 546 298.35 546 301.85"/><polygon class="cls-20" points="497.35 322.1 502.92 323.88 521.5 313.63 521.5 311.84 497.35 322.1"/><polygon class="cls-21" points="574.17 181.51 545.13 204.56 543.75 201.51 544.55 209.51 545.13 206.08 572.98 183.29 575.16 184.75 574.99 176.85 574.17 181.51"/><polygon class="cls-22" points="609.08 194.14 590.52 203.09 575.16 203.09 553.13 212.6 545.75 219.1 543.53 219.1 515.29 227.68 506.1 229.76 494 237.86 490.68 238.22 473.36 244.76 473.17 247.61 490.51 240.36 493.8 241.26 507 234.35 543.75 223.72 546 223.58 551.49 219.47 575.63 211.6 590.52 212.6 611.76 206.08 609.08 194.14"/><polygon class="cls-22" points="612.71 210.76 590.52 216.26 576.09 216.26 546.42 227.68 543.75 227.68 493.38 247.61 489.94 247.61 472.82 252.76 472.52 257.22 489.82 249.1 493.19 250.46 544.72 229.76 546.67 230.1 575.16 220.66 590.52 219.6 613.28 216.25 612.71 210.76"/><polygon class="cls-13" points="477 190.49 471.5 272.49 471.5 290.26 487.34 222.42 491.33 182.45 477 190.49"/><polygon class="cls-23" points="515.82 303.6 518.23 292.87 521.5 290.26 518.23 301.85 515.82 303.6"/><polygon class="cls-23" points="521.5 288.97 521.5 283.6 522.75 280.6 522.13 288.02 521.5 288.97"/><polygon class="cls-23" points="523.52 290.26 524.88 288.97 525.63 290.26 523.52 290.26"/><polygon class="cls-23" points="527.33 327.85 530.67 322.1 532.28 320.24 530.67 326.78 527.33 327.85"/><polygon class="cls-23" points="502.05 178.52 502.05 186.27 503.94 184.1 503 176.85 502.05 178.52"/><polygon class="cls-23" points="530.67 201.34 532.28 207.22 534.33 208.95 531.56 200.1 530.67 201.34"/><polygon class="cls-23" points="531.56 208.01 529.75 210.76 531.56 211.76 533.93 211.76 533.87 209.89 531.56 208.01"/><polygon class="cls-23" points="562.6 278.35 565 272.1 567.25 272.1 564.92 277.72 562.6 278.35"/><polygon class="cls-23" points="587.83 258.6 589.33 252.43 592.71 248.19 587.83 258.6"/><polygon class="cls-23" points="551.49 354.31 552.85 347.35 554.08 355.85 552.79 355.85 551.49 354.31"/><polygon class="cls-23" points="554.08 345.27 556 340.72 556 345.27 555.04 347.52 554.08 345.27"/><polygon class="cls-24" points="800 0.1 765.81 0.1 749.93 5.1 741.38 10.43 708.82 11.1 702.33 13.63 702.31 20.43 656.72 66.1 653.46 66.1 653.46 82.43 643.29 82.43 639.62 85.43 631.08 98.77 615.2 108.77 599.33 117.77 602.58 161.1 602.17 227.43 599.33 229.76 596.07 260.43 592.81 265.1 580.5 347.35 580.5 400.1 800 400.1 800 0.1"/><polygon class="cls-25" points="653.46 82.43 653.46 99.1 610.42 225.6 610.42 231.85 599.43 277.6 599.43 298.6 599.43 305.1 585.38 353.85 580.5 400.1 580.5 347.35 592.81 265.1 596.07 260.43 599.33 229.76 602.17 227.43 602.58 161.1 599.33 117.77 631.08 98.77 639.62 85.43 643.29 82.43 653.46 82.43"/><polygon class="cls-26" points="592.71 367.85 622.93 319.6 632.09 309.6 641.25 290.1 646.14 283.6 653.46 244.6 666.9 235.6 682.77 184.1 705.36 137.1 713.3 72.1 702.31 20.43 656.72 66.1 653.46 66.1 653.46 99.1 610.42 225.6 610.42 231.85 599.43 277.6 599.43 305.1 585.38 353.85 593.02 355.35 592.71 367.85"/><polygon class="cls-27" points="607.45 384.99 623.75 351.76 649.34 329.43 653.46 315.76 646.54 301.76 662.42 257.22 677.48 249.43 683.59 241.26 697.02 184.76 705.97 161.1 704.03 139.87 705.36 137.1 708.82 163.43 708.82 169.76 686.43 237.43 666.08 326.78 649.34 390.55 607.45 384.99"/><polygon class="cls-28" points="699.15 393.99 708.82 344.32 733.45 301.76 737.72 284.6 733.45 230.1 737.72 169.76 713.3 149.1 705.82 133.32 706.58 127.1 708.82 136.1 716.15 148.76 744.74 169.76 748.71 175.85 739.86 297.1 724.75 330.85 722.15 342.35 718.05 394.54 699.15 393.99"/><polygon class="cls-29" points="708.82 11.1 720.63 30.1 729.78 57.1 740.77 118.77 748.71 161.1 744.44 108.1 740.16 25.6 741.38 10.43 708.82 11.1"/><polygon class="cls-30" points="800 0.1 765.81 0.1 790.64 137.1 782.9 223.26 777.61 335.76 791.4 396.67 800 396.92 800 0.1"/><polygon class="cls-31" points="702.31 20.43 697.56 25.19 702.31 68.88 692.95 153.76 678.29 188.12 666.9 223.26 658.82 220.1 644.51 226.94 632.3 230.1 616.98 230.1 609.08 237.43 616.98 232.1 623.54 233.26 646.34 239.76 649.34 241.26 640.34 285.6 637.71 297.64 641.25 290.1 646.14 283.6 653.46 244.6 666.9 235.6 682.77 184.1 705.36 137.1 713.3 72.1 702.31 20.43"/><polygon class="cls-32" points="635.86 150.84 640.34 152.35 661.19 139.6 670.86 128.85 676.05 116.35 680.94 110.1 694.98 92.6 700.78 82.72 696.2 93.93 688.06 106.1 670.97 132.93 653.46 149.93 637.59 159.03 634.95 153.51 635.86 150.84"/><polygon class="cls-33" points="643.29 82.43 643.29 101.43 643.29 109.26 635.88 130.88 634.95 127.1 633.52 110.6 631.08 98.76 622.35 105.04 626.47 137.1 625.5 167.9 628.84 149.43 635.88 130.88 634.95 133.6 628.84 149.43 620.36 196.37 653.46 99.1 653.46 82.43 643.29 82.43"/><polygon class="cls-34" points="611.57 222.2 607.26 228.6 599.12 270.93 596.27 281.26 596.27 296.43 590.98 309.43 589.15 309.43 588.45 294.24 587 303.92 588.13 307.1 589.15 311.26 593.22 315.1 590.78 335.13 582.03 351.76 585.38 353.85 599.43 305.1 599.43 277.6 610.42 231.85 610.42 225.6 611.57 222.2"/><polygon class="cls-35" points="699.15 393.99 708.82 344.32 679.92 312.22 670.7 306.51 666.08 326.78 649.34 390.55 607.45 384.99 623.75 351.76 649.34 329.43 653.46 315.76 646.54 301.76 662.42 257.22 671.78 271.46 675.85 271.46 677.48 249.43 683.59 241.26 697.02 184.76 708.82 169.76 684.76 244.76 673 301.43 679.51 308.43 715.75 332.35 733.45 301.76 737.72 284.6 733.77 234.23 744.75 230.1 739.86 297.1 724.75 330.85 718.05 394.54 699.15 393.99"/><polygon class="cls-36" points="607.45 344.32 616.98 351.76 623.75 351.76 649.34 329.43 653.46 315.76 632.09 309.6 622.93 319.6 607.45 344.32"/><polygon class="cls-36" points="662.42 257.22 653.46 244.6 666.9 235.6 681.55 230.1 683.59 231.76 683.59 241.26 677.48 249.43 662.42 257.22"/><polygon class="cls-13" points="638.16 237.43 616.98 232.1 609.08 237.43 599.43 277.6 599.43 305.1 585.38 353.85 593.02 352.04 600.95 346.56 630.46 305.35 637.71 297.64 648.86 243.59 649.34 241.26 638.16 237.43"/><polygon class="cls-37" points="673 301.43 708.82 169.76 713.3 159.03 716.96 154.43 737.72 169.76 733.45 230.1 737.72 282.85 733.45 301.76 715.75 332.35 679.51 308.43 673 301.43"/><polygon class="cls-37" points="724.75 330.85 744.75 338.74 777.77 332.35 779.86 288.02 779.86 253.19 744.22 237.43 739.86 297.1 724.75 330.85"/><polygon class="cls-37" points="706.58 127.1 713.3 72.1 702.31 20.43 702.33 13.63 708.82 11.1 720.63 30.1 729.78 57.1 744.75 161.1 742.2 164.93 716.15 148.76 708.82 132.43 706.58 127.1"/><polygon class="cls-38" points="741.38 10.43 741.38 43.77 748.71 188.42 782.9 223.26 790.64 137.1 765.81 0.1 741.38 10.43"/><polygon class="cls-39" points="593.02 355.35 592.71 367.85 607.45 344.32 622.93 319.6 632.09 309.6 641.25 290.1 646.14 283.6 653.46 244.6 666.9 235.6 682.77 184.1 677.89 190.93 666.9 223.26 658.82 220.1 644.51 226.94 632.3 230.1 616.98 230.1 630.46 233.26 640.5 238.1 649.34 241.26 637.71 297.64 630.46 305.35 600.95 346.56 593.02 352.04 593.02 355.35"/><polygon class="cls-40" points="640.34 152.35 645.62 154.43 653.46 149.93 670.97 132.93 676.49 115.79 670.86 128.85 661.19 139.6 640.34 152.35"/><polygon class="cls-41" points="716.96 154.43 713.3 159.03 708.82 169.76 683.23 263.82 700.78 275.97 708.82 268.57 723.93 226.94 724.75 161.1 716.96 154.43"/><polygon class="cls-41" points="736.4 188.42 731.62 192.05 728.77 222.2 728.77 232.76 734.32 241.26 733.45 230.1 736.4 188.42"/><polygon class="cls-36" points="649.34 390.55 670.7 306.51 679.92 312.22 708.82 344.32 699.15 393.99 668.52 393.1 649.34 390.55"/><polygon class="cls-13" points="610.42 225.6 616.98 230.1 632.3 230.1 661.19 192.05 670.97 132.93 653.46 149.93 637.59 159.03 634.95 153.51 610.42 225.6"/><polygon class="cls-13" points="676.1 124.87 680.8 182.23 692.95 153.76 700.78 82.72 696.2 93.93 676.1 124.87"/><polygon class="cls-13" points="635.86 150.84 653.46 99.1 661.19 85.77 679.11 78.43 683.59 85.77 676.49 115.79 670.86 128.85 661.19 139.6 640.34 152.35 635.86 150.84"/><polygon class="cls-13" points="682.77 39.93 682.77 76.35 686.13 85.77 694.07 85.77 702.31 68.88 697.56 25.19 682.77 39.93"/><polygon class="cls-36" points="741.38 10.43 744.44 108.1 748.71 188.42 782.9 223.26 790.64 137.1 765.81 0.1 749.93 5.1 741.38 10.43"/><polygon class="cls-42" points="800 282.15 779.86 253.19 744.22 237.43 782.9 252.85 800 274.41 800 282.15"/><polygon class="cls-43" points="779.53 295.02 776.8 298.89 741.38 296.95 740.15 293.11 739.86 297.1 738.21 300.79 740.88 298.35 777.51 300.79 779.21 301.85 779.53 295.02"/><polygon class="cls-44" points="741.98 55.48 770.54 33.85 771.38 30.86 772.61 37.61 771.15 35.72 743.83 55.48 741.84 59.6 741.98 55.48"/><polygon class="cls-45" points="781.33 85.77 780.31 88.85 744.75 94.97 743.67 93.1 743.98 99.85 744.75 96.72 781.33 91.1 782.61 92.81 781.33 85.77"/><polygon class="cls-13" points="666.9 223.26 658.82 220.1 661.19 206.85 670.97 189.1 679.08 186.27 666.9 223.26"/><polygon class="cls-13" points="616.98 232.1 609.08 237.43 607.45 259.79 612.22 290.26 621.71 306.51 628.25 308.43 630.46 305.35 637.71 297.64 649.34 241.26 616.98 232.1"/><polygon class="cls-13" points="599.43 305.1 601.57 301.85 611.57 322.1 609.08 335.17 600.95 346.56 593.02 352.04 585.38 353.85 599.43 305.1"/><polygon class="cls-46" points="791.4 396.67 777.77 332.35 779.21 301.85 776.8 298.89 779.53 295.02 779.86 253.19 781.54 252.3 782.9 223.26 782.9 252.85 785.16 260.82 782.9 257.57 782.9 306.51 792.67 357.1 800 376.93 800 396.92 791.4 396.67"/><polygon class="cls-47" points="771.15 35.72 772.61 37.61 781.33 85.77 780.31 88.85 782.61 92.81 790.64 139.4 790.64 115.79 780.89 65.85 777.41 10.43 778.33 0.1 765.81 0.1 771.38 30.86 771.15 35.72"/><polygon class="cls-48" points="720.63 30.1 740.5 21.4 743.01 75.1 729.78 57.1 720.63 30.1"/><polygon class="cls-36" points="713.3 72.1 731.1 66.27 744.75 161.1 742.2 164.93 716.15 148.76 706.58 127.1 713.3 72.1"/><polygon class="cls-49" points="800 234.23 782.9 232.1 744.98 226.94 734.01 222.2 693.77 225.1 692.77 228.76 686.99 226.94 669.57 226.94 666.9 235.6 681.55 230.1 683.59 231.76 690.25 238.03 691.55 233.26 733.45 226.94 744.22 234.23 782.21 238.1 800 244.76 800 234.23"/><polygon class="cls-49" points="800 364.85 795.03 363.47 783.88 363.47 720.38 364.85 705.36 360.76 658.13 353.85 632.28 344.32 610.95 338.74 609.08 341.72 628.81 347.35 655.87 364.85 703.99 364.85 720.57 370.59 784.87 367.85 797.66 370.59 800 376.93 800 364.85"/><polygon class="cls-49" points="800 52.35 775.28 52.35 742.6 66.27 730.7 62.6 711.64 64.32 712.06 66.27 702.31 68.88 679.08 75.1 661.19 85.77 654.46 97.38 654.46 92.81 661.19 82.43 679.08 72.71 701.3 59.6 710.64 59.6 709.76 55.48 727.23 48.25 741.84 52.8 773.51 42.6 800 42.6 800 52.35"/><polygon class="cls-50" points="706.58 127.1 713.3 72.1 702.31 20.43 702.33 13.63 708.82 11.1 719.57 28.41 729.78 57.1 731.82 72.71 727.23 72.71 727.23 69.99 723.53 69.99 720.63 118.41 718.75 120.88 720.63 82.72 717.06 85.77 716.15 148.76 706.58 127.1"/><polygon class="cls-51" points="748.71 188.42 744.75 96.72 758.92 94.55 765.81 177.6 769.47 178.1 765.81 140.1 769.47 139.4 772.61 193.65 775.27 194.14 779.53 113.69 785.24 107.34 790.64 137.1 782.9 223.26 748.71 188.42"/><polygon class="cls-52" points="635.86 150.84 640.34 152.35 661.19 139.6 668.52 113.43 664.29 113.43 654.46 135.11 649.34 137.1 664.29 90.1 661.19 85.77 654.46 97.38 635.86 150.84"/><polygon class="cls-53" points="658.82 220.1 661.19 206.85 670.97 189.1 669.9 139.4 666.9 142.6 661.19 192.05 658.41 196.37 662.71 146.76 661.19 148.76 653.46 202.22 640.69 219.04 617.36 220.1 611.21 223.26 610.42 225.6 616.98 230.1 632.3 230.1 643.58 227.18 658.82 220.1"/><polygon class="cls-51" points="738.21 300.79 724.75 330.85 744.75 338.74 763.2 335.17 767.69 300.13 766.01 300.13 761.69 332.35 758.87 333.35 763.38 299.85 747.8 298.81 736.4 329.22 733.45 329.22 742.3 298.81 740.88 298.35 738.21 300.79"/><polygon class="cls-51" points="723.53 298.89 725.67 288.02 725.67 297.48 723.53 298.89"/><polygon class="cls-51" points="717.06 310.09 720.01 306.51 717.06 318.54 708.82 319.89 717.06 310.09"/><polygon class="cls-51" points="696.57 351.02 695.17 347.99 696.57 344.95 699.73 349.37 696.57 351.02"/><polygon class="cls-51" points="673 301.43 683.23 263.82 676.49 305.18 673 301.43"/><polygon class="cls-50" points="767.69 275.6 765.81 263.82 769.01 258.6 767.69 275.6"/><polygon class="cls-51" points="769.01 274.97 770.69 271.6 772.11 273.29 770.56 274.97 769.01 274.97"/><polygon class="cls-50" points="708.82 198.51 713.3 186.27 717.06 193.65 712.94 200.1 708.82 198.51"/><polygon class="cls-51" points="628.4 326.78 634.95 322.17 643.69 322.1 634.95 326.78 628.4 326.78"/><polygon class="cls-51" points="634.95 336.43 636.04 333.6 639.22 333.6 634.95 336.43"/><polygon class="cls-13" points="599.33 117.77 602.58 161.1 602.58 204.9 616.98 190.49 626.47 137.1 622.35 105.04 599.33 117.77"/><polygon class="cls-14" points="599.33 229.76 607.26 228.6 610.42 225.6 602.17 227.43 599.33 229.76"/><polygon class="cls-14" points="592.81 265.1 596.8 268.94 596.07 260.43 592.81 265.1"/><polygon class="cls-14" points="616.98 232.1 609.08 237.43 630.46 238.1 649.34 241.26 616.98 232.1"/><polygon class="cls-51" points="663.67 347.52 668.52 332.35 668.95 342 663.67 347.52"/><polygon class="cls-51" points="688.44 350.25 688.44 345.27 695.67 350.71 688.44 350.25"/><polygon class="cls-51" points="736.4 356.28 736.4 350.71 741.38 347.99 736.4 356.28"/><polygon class="cls-51" points="782.9 384.72 776.8 352.13 776.8 370.79 782.9 384.72"/><polygon class="cls-50" points="757.23 79.93 757.23 67.77 760.25 69.99 760.25 79.93 757.23 79.93"/><polygon class="cls-50" points="763.14 82.43 765.81 82.43 765.81 88.02 763.14 82.43"/><polygon class="cls-54" points="633 200.1 634.95 192.1 635.86 200.1 633 200.1"/><polygon class="cls-55" points="645 193.18 640.34 199.45 637.74 209.51 645 193.18"/><polygon class="cls-56" points="668.95 111.68 673 102.89 670.97 115.79 668.95 111.68"/><polygon class="cls-55" points="724.66 123.55 724.66 135.15 722.4 127.29 724.66 123.55"/><polygon class="cls-51" points="756.15 33.96 756.15 20.43 758.87 14.77 760.25 36.1 756.15 33.96"/><polygon class="cls-51" points="761.75 37.22 761.75 32.16 763.06 30.86 764.81 37.22 762.5 38.6 761.75 37.22"/><polygon class="cls-55" points="713.3 184.75 714.67 178.52 716.5 182.23 713.3 184.75"/><polygon class="cls-55" points="705.36 258.6 706.58 254.1 706.58 259.79 703.99 260.82 705.36 258.6"/><polygon class="cls-55" points="713.3 310.09 717.13 305.18 717.13 300.22 713.3 310.09"/><polygon class="cls-54" points="618.67 272.1 621.83 261.82 621.83 269.71 618.67 272.1"/><polygon class="cls-54" points="623 272.1 621.83 279.31 624.17 273.76 623 272.1"/><polygon class="cls-54" points="668.52 104.1 670.13 95.47 668.52 98.6 668.52 104.1"/><polygon class="cls-23" points="609.08 129.35 609.08 137.1 611.76 142.21 609.08 129.35"/><polygon class="cls-23" points="609.08 142.21 610.42 143.97 609.75 147.1 609.08 142.21"/><polygon class="cls-23" points="601.25 238.1 601.25 249.1 602.63 244.76 601.25 238.1"/><polygon class="cls-23" points="602.63 236.35 604.87 231.35 603.75 235.68 602.63 236.35"/><polygon class="cls-23" points="615.88 162.35 614.38 173.1 615.88 177.72 617.75 176.85 617.75 161.1 615.88 162.35"/><polygon class="cls-23" points="617.75 159.03 617.75 154.43 619.5 152.35 618.63 159.03 617.75 159.03"/><polygon class="cls-57" points="778.33 0.1 765.81 0.1 749.93 5.1 741.38 10.43 708.82 11.1 702.33 13.63 702.31 20.43 697.56 25.19 682.77 39.93 682.77 40 656.72 66.1 653.46 66.1 653.46 82.43 643.29 82.43 639.62 85.43 631.08 98.76 599.33 117.76 600.21 129.49 586.91 147.96 574.27 142.44 567.6 145.13 540.47 169.76 531.56 166.6 527.65 167.32 527.65 167.32 523.52 168.08 523.52 168.08 519.25 168.87 519.25 168.87 519.25 168.87 519.25 168.87 498.33 172.72 497.93 178.75 491.33 182.45 491.33 182.45 477 190.49 474.9 221.84 454.93 238.22 446.57 238.22 440.93 249.29 427.45 301.8 427.45 301.8 415.71 347.52 427.29 347.52 429.57 347.52 468.04 348.54 476.34 353.85 476.46 353.07 476.46 353.07 476.34 353.85 480.5 355.35 481.75 359.35 534.1 364.38 534.1 364.38 534.1 364.38 580.5 368.85 580.5 400.1 800 400.1 800 396.92 800 376.93 800 364.85 800 282.15 800 274.41 800 244.76 800 234.23 800 52.35 800 42.6 800 0.1 778.33 0.1"/><path class="cls-58" d="M135.8,0l16.68,11.33v3.34l21,20.58,4.92,7.25s31.38,8.25,44.87,14.5c0,0,11.93,16.75,14.52,25.5l1.81,44.5,32.94,17.5-.86,16.5,16.94,14.75h3.89l2.07,7L300.81,200l7.27-2,3.37,2,8.29,16.75,10.12,30,2.33,19.5L329.86,271l2.33,76.25V400H0V0Z" transform="translate(0 0.1)"/><polygon class="cls-59" points="139 199.6 146.6 212.66 152.83 220.1 161.82 225.1 171.5 233.76 180.49 237.43 191.21 237.43 191.21 228.76 180.49 189.1 174.96 132.43 165.1 92.43 152.83 43.77 149.26 9.24 135.8 0.1 92.56 0.1 128.62 147.43 139 199.6"/><polygon class="cls-37" points="194.32 233.1 198.81 248.18 218.87 290.43 244.8 313.1 271.08 329.43 275.23 329.43 244.11 262.1 204 158.76 186.71 146.76 181.87 146.76 184.98 192.06 186.45 202.6 194.32 233.1"/><polygon class="cls-60" points="174.78 268.1 191.21 275.6 195.18 275.6 203.66 275.6 207.98 273.76 187.92 244.76 186.71 248.18 172.54 246.26 158.71 237.43 148.16 223.26 174.78 268.1"/><polygon class="cls-37" points="0 82.43 21.78 122.43 29.04 141.1 53.59 164.76 66.73 178.76 72.27 182.43 98.2 188.76 104.08 188.76 97.5 177.76 45.99 88.77 13.14 0 0 0.1 0 82.43"/><polygon class="cls-61" points="13.14 0 45.99 88.77 104.08 188.76 131.22 281.85 154.99 326.78 168.56 377.35 0 384.1 0 0.1 13.14 0"/><polygon class="cls-37" points="141.88 378.42 128.97 360.43 68.46 308.43 62.24 308.43 57.05 310.76 57.05 322.1 70.54 351.76 74.08 354.43 82.64 356.1 97.16 380.21 141.88 378.42"/><path class="cls-62" d="M223.28,57l-3,35v21l3,36,5.27,14.33,6.92,6.34L239.61,127,237.8,82.5S230.8,64,223.28,57Z" transform="translate(0 0.1)"/><polygon class="cls-36" points="25.41 0.1 45.12 35.6 52.04 40.6 86.09 82.43 99.47 85.6 104.08 85.6 81.95 0 25.41 0.1"/><polygon class="cls-63" points="0 82.43 21.78 122.43 29.04 141.1 25.41 175.76 25.41 315.1 45.12 382.29 0 384.1 0 82.43"/><polygon class="cls-64" points="25.41 0.1 45.12 35.6 52.04 40.6 86.09 82.43 77.8 103.1 85.06 145.39 61.11 82.43 58.78 61.1 29.04 31.43 16.94 0.03 25.41 0.1"/><polygon class="cls-65" points="81.95 0 104.08 85.6 104.08 97.6 111.68 110.43 116.87 128.76 128.62 161.1 135.19 197.43 150.75 237.43 174.26 312.43 184.98 357.1 184.98 376.24 195.7 375.51 184.98 347.35 178.07 298.1 174.78 268.1 148.16 223.26 152.83 220.1 139 199.6 130.64 157.57 92.56 0.1 81.95 0"/><polygon class="cls-66" points="49.79 161.1 57.05 188.12 57.05 207.76 57.05 233.26 54.54 311.1 54.54 347.35 57.05 381.81 97.16 380.21 82.64 356.1 74.08 354.43 70.54 351.76 57.05 322.1 57.05 310.76 62.24 308.43 68.46 308.43 128.97 360.43 141.88 378.42 145.23 378.28 130.7 355.76 119.63 341.1 117.56 336.76 119.63 301.76 117.21 297.1 96.81 283.43 77.8 257.43 77.8 249.43 88.17 258.76 92.56 264.43 87.82 238.1 72.96 215.1 72.27 206.76 69.97 180.91 49.79 161.1"/><polygon class="cls-67" points="152.48 14.77 152.83 43.77 171.04 116.54 174.96 132.43 180.49 189.1 191.21 228.76 191.21 237.43 187.92 244.76 207.98 273.76 225.44 318.43 239.61 372.54 252.13 371.69 237.54 351.76 226.13 308.43 218.87 290.43 198.81 248.18 186.45 202.6 181.87 146.76 171.15 103.43 159.05 52.1 152.48 14.77"/><path class="cls-68" d="M178.41,42.5,175,90l3.45,21.5L204,158.67l34.71,89.41L225.78,192l2.77-28.64L223.28,149l-3-36V85.5l3-28.5S187.4,44,178.41,42.5Z" transform="translate(0 0.1)"/><polygon class="cls-69" points="239.61 127.1 238.71 173.1 239.61 218.6 240.65 253.19 274 326.78 269.44 308.43 253.62 275.6 249.47 258.35 246.88 226.94 259.32 232.1 269.35 230.1 254.4 226.94 249.99 223.26 247.95 131.53 239.61 127.1"/><polygon class="cls-70" points="77.8 257.43 77.8 249.43 92.56 264.43 96.81 271.46 111.51 281.35 131.22 284.85 131.22 281.85 154.99 326.78 154.99 326.78 119.63 301.76 117.21 297.1 96.81 283.43 77.8 257.43"/><polygon class="cls-71" points="57.05 310.76 54.75 304.6 55.22 290.26 71.92 308.43 100.79 334.26 107.53 335.43 117.56 336.76 119.63 341.1 130.7 355.76 145.23 378.28 141.88 378.42 128.97 360.43 68.46 308.43 62.24 308.43 57.05 310.76"/><polygon class="cls-70" points="191.21 237.43 191.21 228.76 180.49 189.1 160.09 154.43 131.04 139.4 131.34 161.1 139 199.6 152.83 220.1 161.82 225.1 171.5 233.76 180.49 237.43 191.21 237.43"/><polygon class="cls-70" points="29.04 141.1 69.97 180.91 81.95 184.8 98.2 188.76 104.08 188.76 45.99 88.77 37.34 88.77 0 72.1 0 82.43 29.04 141.1"/><polygon class="cls-36" points="92.56 0.1 106.52 57.1 128.62 94.38 148.16 100.6 145.23 72.69 138.82 31.6 152.48 85.77 161.13 118.77 174.96 132.43 152.83 43.77 152.48 11.43 135.8 0.1 92.56 0.1"/><polygon class="cls-72" points="85.06 145.39 122.75 161.1 128.62 161.1 116.87 128.76 111.68 110.43 104.08 97.6 77.8 103.1 85.06 145.39"/><polygon class="cls-73" points="239.61 372.54 225.44 318.43 226.13 308.43 237.54 351.76 252.13 371.69 239.61 372.54"/><polygon class="cls-74" points="184.98 376.24 184.98 357.1 170.35 299.93 174.78 268.1 184.98 347.35 195.7 375.51 184.98 376.24"/><polygon class="cls-75" points="152.75 36.43 151.27 39.93 138.82 38.18 100.44 28.27 98.54 25.1 99.75 30.93 143.84 39.93 152.83 43.77 152.75 36.43"/><polygon class="cls-75" points="104.08 47.7 154.38 69.77 158.1 69.6 158.44 66.27 160.07 72.71 112.37 52.6 105.28 52.77 104.08 47.7"/><polygon class="cls-76" points="174.96 132.43 161.13 118.77 136.58 116.43 128.62 97.6 128.62 94.38 106.52 57.1 130.64 157.57 131.04 139.4 160.09 154.43 180.49 189.1 174.96 132.43"/><polygon class="cls-75" points="29.04 141.1 81.95 153.85 86.09 157.81 81.12 149.46 80.78 151.97 42.36 143.97 27.56 138.11 29.04 141.1"/><polygon class="cls-77" points="121.77 249.43 106.52 248.18 95.95 249.43 89.64 248.18 89.22 245.87 90.37 247.65 95.82 248.89 106.26 247.65 119.09 247.65 120.72 245.87 121.77 249.43"/><polygon class="cls-78" points="181.87 323.17 223.02 334.34 226.22 334.34 228.55 334.34 229.82 335.17 229.11 332.46 228.03 333.43 222.2 333.76 183.95 321.68 180.82 315 181.87 323.17"/><polygon class="cls-79" points="184.98 347.35 191.21 347.35 226.91 354.31 232.09 353.85 233.9 350.71 235.47 356.72 229.82 355.22 190.6 348.35 185.88 349.71 184.98 347.35"/><polygon class="cls-80" points="139 199.6 152.83 220.1 148.16 223.26 170.35 260.63 174.78 268.1 166.1 259.35 153.4 245.87 135.19 197.43 139 199.6"/><polygon class="cls-81" points="156.61 222.2 161.13 226.94 158.71 237.43 172.54 246.26 174.78 237.43 178.07 237.43 180.49 237.43 171.5 233.76 161.82 225.1 156.61 222.2"/><polygon class="cls-82" points="136.58 116.43 131.04 139.4 130.64 157.57 121.26 118.77 111.68 110.43 104.08 97.6 104.08 85.6 98.95 65.79 106.52 57.1 128.62 94.38 128.62 97.6 136.58 116.43"/><polygon class="cls-83" points="187.92 244.76 191.21 237.43 191.21 228.76 193.55 228.76 198.81 248.18 210.57 272.96 209.48 277.62 207.98 273.76 187.92 244.76"/><polygon class="cls-84" points="45.12 35.6 49.79 38.97 49.79 34.43 81.95 8.1 84.28 9.03 82.94 3.83 81.95 6.34 47.59 34.43 45.12 35.6"/><polygon class="cls-85" points="29.04 31.43 40.11 34.43 25.41 0.1 45.12 35.6 52.04 40.6 86.09 82.43 77.8 103.1 70.58 107.33 61.11 82.43 58.78 61.1 29.04 31.43"/><polygon class="cls-86" points="81.95 0 91.28 36.1 97.72 21.4 92.56 0.1 81.95 0"/><polygon class="cls-87" points="25.41 175.76 0 212.66 0 384.1 45.12 382.29 25.93 319.76 25.41 175.76"/><polygon class="cls-88" points="174.96 90.1 220.59 82.43 220.25 113.1 223.28 149.1 206.83 166.06 178.41 111.6 174.96 90.1"/><polygon class="cls-89" points="219.01 197.43 225.78 192.06 238.71 248.18 219.01 197.43"/><polygon class="cls-90" points="168.74 107.33 171.15 103.43 181.87 146.76 186.1 200.1 180.49 189.1 174.96 132.43 168.74 107.33"/><polygon class="cls-49" points="0 226.94 25.41 223.26 57.05 233.26 82.65 230.1 116.91 232.76 118.97 239.86 152.48 243.43 160.13 243.43 194.77 254.67 201.03 252.85 244.11 262.1 249.31 256.43 262.72 256.43 263.51 262.1 249.47 258.35 245.91 264.81 243.42 264.81 204.35 259.84 200.64 263.15 161.82 246.26 155.59 252.85 122.76 252.85 119.12 241.76 117.34 236.03 86.09 234.23 84.28 234.23 55.75 237.43 25.41 226.94 0 228.76 0 226.94"/><polygon class="cls-49" points="0 246.26 25.41 244.03 36.3 247.65 56.41 253.19 77.8 249.43 89.22 252.85 123.81 256.43 128.19 271.46 161.13 270.52 175.75 275.6 199.25 283.1 213.04 286.71 215.76 283.89 256.36 288.6 259.32 287.44 268.6 288.6 269.91 293.11 260.68 290.26 259.32 293.11 217.76 288.11 215.54 293.11 177.42 279.1 162.34 274.41 129.98 277.62 125.06 263.6 92.56 264.43 85.58 256.43 77.8 252.85 55.75 264.81 39.42 264.81 25.24 261.76 0 264.81 0 246.26"/><polygon class="cls-49" points="0 130.43 17.99 118.77 65.93 123.1 74.93 118.77 79.57 113.43 112.53 113.43 115.27 123.1 136.58 116.43 161.13 118.77 174.96 132.43 177.12 126.35 189.44 131.47 219.91 110.43 238.71 129.35 238.71 138.11 248.13 139.4 272.07 153.78 271.25 169.76 248.4 151.76 239.13 151.76 238.23 142.43 236.24 132.43 220.68 120.6 191.21 135.18 178.33 132.43 178.33 132.43 175.51 138.11 176.47 147.96 145.23 129.35 133.21 130.43 127.07 142.85 118.2 132.43 116.39 127.08 81.95 123.1 78.96 129.35 70.19 130.43 68.25 127.1 22.11 127.1 0 145.39 0 130.43"/><polygon class="cls-91" points="229.82 335.17 232.3 331.86 245.15 333.51 274 336.43 244.97 331.86 231.35 328.26 229.11 332.46 229.82 335.17"/><polygon class="cls-92" points="229.82 335.17 233.9 350.71 232.09 353.85 226.91 354.31 191.21 347.35 184.98 347.35 181.87 323.17 223.02 334.34 228.55 334.34 229.82 335.17"/><polygon class="cls-92" points="97.16 380.21 82.64 356.1 97.16 336.43 96.29 332.35 128.97 360.43 141.88 378.42 97.16 380.21"/><polygon class="cls-92" points="29.04 141.1 69.97 180.91 98.2 188.76 104.08 188.76 86.09 157.81 80.78 151.97 42.01 145.39 29.04 141.1"/><polygon class="cls-93" points="77.8 249.43 73.13 230.1 72.96 215.1 87.82 238.1 92.56 264.43 77.8 249.43"/><polygon class="cls-49" points="0 277.62 25.41 277.62 55.75 282.43 54.54 311.1 25.89 308.43 0 308.43 0 277.62"/><polygon class="cls-94" points="74.08 354.43 63.27 380.21 57.05 381.81 54.54 323.17 57.05 322.1 70.54 351.76 74.08 354.43"/><polygon class="cls-95" points="25.93 319.76 22.56 352.04 16.94 381.81 45.12 382.29 25.93 319.76"/><polygon class="cls-96" points="104.08 47.7 97.51 57.1 105.28 52.77 112.37 52.6 104.08 47.7"/><polygon class="cls-37" points="268.1 327.58 260.56 310.98 259.32 295.02 275.23 329.43 271.08 329.43 268.1 327.58"/><polygon class="cls-37" points="228.55 298.89 212.45 255.3 199.25 233.26 191.77 222.2 198.81 248.18 218.87 290.43 228.55 298.89"/><polygon class="cls-37" points="160.09 154.43 172.54 185.76 186.1 218.1 189.43 222.2 180.49 189.1 160.09 154.43"/><polygon class="cls-37" points="136.04 184.71 145.23 188.12 156.61 210.76 161.82 225.1 152.83 220.1 139 199.6 136.04 184.71"/><polygon class="cls-37" points="172.54 246.26 191.21 275.6 203.66 275.6 207.98 273.76 187.92 244.76 186.71 248.18 172.54 246.26"/><polygon class="cls-37" points="27.56 84.4 45.12 115.77 55.75 127.1 69.15 148.76 80.78 151.97 81.12 149.46 45.99 88.77 37.34 88.77 27.56 84.4"/><polygon class="cls-37" points="49.79 38.97 49.79 34.43 61.19 25.1 94.41 84.4 86.09 82.43 49.79 38.97"/><polygon class="cls-97" points="223.28 57.1 228.55 91.1 233.39 100.43 233.39 145.39 233.39 167.87 235.47 169.76 239.61 127.1 237.8 82.6 223.28 57.1"/><polygon class="cls-37" points="215.39 188.12 206.83 188.12 202.31 208.1 210.57 237.43 229.11 249.43 240.65 253.19 215.39 188.12"/><polygon class="cls-37" points="96.29 332.35 97.16 336.43 89.22 347.18 108.92 360.76 128.97 360.43 96.29 332.35"/><polygon class="cls-37" points="57.05 310.76 74.08 319.76 87.83 325.08 68.46 308.43 62.24 308.43 57.05 310.76"/><polygon class="cls-37" points="25.41 175.76 27.56 155.24 31.03 164.93 45.12 192.05 39.42 264.81 25.41 277.62 25.41 175.76"/><polygon class="cls-37" points="111.75 215.1 111.75 226.94 116.39 244.03 120.72 245.87 111.75 215.1"/><polygon class="cls-37" points="131.04 139.4 136.04 161.1 141.88 175.76 168.74 188.76 168.74 183.1 160.09 154.43 131.04 139.4"/><polygon class="cls-37" points="0 72.1 11.41 82.43 29.04 97.6 35.27 120.33 27.56 130.43 24.75 132.43 0 82.43 0 72.1"/><polygon class="cls-37" points="47.72 0 58.87 14.77 67.62 18.05 81.95 6.34 82.94 3.83 81.95 0 47.72 0"/><polygon class="cls-97" points="131.04 0.1 116.24 9.02 117.56 32.69 151.27 39.93 152.75 36.43 152.48 11.43 131.04 0.1"/><polygon class="cls-37" points="259.32 232.1 246.88 226.94 249.47 258.35 253.62 275.6 269.44 308.43 275.23 311.43 265.94 279.43 259.32 232.1"/><polygon class="cls-98" points="239.61 127.1 247.95 131.53 247.95 184.71 249.99 223.26 254.4 226.94 246.88 226.94 249.47 258.35 247.38 269.19 240.65 253.19 239.61 127.1"/><polygon class="cls-99" points="178.33 132.43 191.21 135.18 204 158.76 191.77 143.1 179.73 138.11 178.33 132.43"/><polygon class="cls-100" points="238.71 248.18 230.32 211.76 234.51 173.79 235.47 169.76 231.44 210.1 234.51 216.43 237.23 161.1 239.13 151.76 238.71 248.18"/><polygon class="cls-100" points="128.62 161.1 135.19 197.43 152.48 243.43 149.89 243.16 131.76 197.43 124.99 195.6 138.74 241.97 128.62 241.26 109.1 190.49 108.69 155.24 122.75 161.1 128.62 161.1"/><polygon class="cls-99" points="155.23 17.46 162.39 66.27 166.1 66.27 161.82 34.43 168.74 38.5 172.54 85.6 174.96 90.1 178.41 42.6 173.49 35.35 155.23 17.46"/><polygon class="cls-100" points="13.14 0 35.66 60.85 31.46 58.6 27.56 42.8 25.41 40.93 19.02 30.43 32.33 72.1 31.98 76.6 29.74 79.27 31.29 85.6 26.33 83.85 7.26 14.77 5.19 15.93 5.19 25.1 14.52 53.04 19.55 70.69 18.84 72.1 8.13 34.43 0 28.27 0 0.1 13.14 0"/><polygon class="cls-101" points="58.78 61.1 64.7 56.15 66.21 58.63 60.81 64.97 61.46 66.27 67.5 60.17 76.11 70.22 65.21 93.19 64.7 91.86 74.56 71.1 73 68.6 61.11 82.43 58.78 61.1"/><polygon class="cls-102" points="247.95 131.53 249.41 197.43 252.13 202.6 252.13 164.08 254.4 161.1 254.4 169.76 259.32 182.28 261.05 184.1 266.73 143.85 269.31 145.39 269.31 218.93 269.35 230.1 272.55 144.6 247.95 131.53"/><polygon class="cls-102" points="259.32 232.1 246.88 226.94 249.47 258.35 253.62 275.6 259.32 287.44 261.05 288.11 253.96 271.46 251.56 258.43 256.79 260.55 258.77 268.1 253.96 271.46 269.91 293.11 259.32 232.1"/><polygon class="cls-54" points="249.99 223.26 254.4 226.94 258.39 227.78 249.62 216.25 249.99 223.26"/><polygon class="cls-54" points="259.32 222.2 256.36 216.25 259.32 204.56 259.32 222.2"/><polygon class="cls-54" points="199.25 169.76 202.31 179.35 206.83 180.81 199.25 169.76"/><polygon class="cls-54" points="145.23 253.4 149.89 270.26 148.93 260.02 145.23 253.4"/><polygon class="cls-54" points="77.8 161.1 86.09 172.1 89.22 172.1 77.8 161.1"/><polygon class="cls-54" points="136.58 137.1 145.23 129.35 143.5 133.22 143.5 136.22 136.58 137.1"/><polygon class="cls-54" points="168.74 153.1 169.53 151.76 172.4 151.76 172.4 159.47 170.57 157.57 168.74 153.1"/><polygon class="cls-54" points="173.25 161.92 174.76 166.6 175.98 164.93 173.25 161.92"/><polygon class="cls-54" points="199.25 102.27 199.12 107.34 202.31 113.07 199.25 102.27"/><polygon class="cls-54" points="180.49 83.38 185.37 79.1 189.43 78.43 189.35 81.24 180.49 83.38"/><polygon class="cls-54" points="86.09 311.43 94.41 292.97 92.56 306.51 86.09 311.43"/><polygon class="cls-54" points="83.51 306.51 81.12 302.2 77.8 303.6 77.8 306.51 83.51 306.51"/><polygon class="cls-54" points="111.75 327.85 112.26 325.08 116.24 332.35 111.75 332.35 111.75 327.85"/><polygon class="cls-54" points="66.56 362.13 64.31 356.28 65.44 350.71 66.56 362.13"/><polygon class="cls-54" points="58.78 166.6 69.5 177.71 76.11 183.37 81.95 184.8 58.78 166.6"/><polygon class="cls-54" points="72.96 215.1 70.97 192.1 74.08 208.95 72.96 215.1"/><polygon class="cls-54" points="105.49 220.12 104.08 204.9 108.69 220.12 108.69 227.14 105.49 220.12"/><polygon class="cls-54" points="101.5 270.26 111.75 275.6 106.63 275.6 101.5 270.26"/><polygon class="cls-54" points="22.56 149.03 21 172.1 17.83 161.92 22.56 149.03"/><polygon class="cls-54" points="20.2 146.76 22.56 137.1 21.38 133.22 20.2 146.76"/><polygon class="cls-54" points="24.5 353.47 25.77 362.13 31.03 360.76 24.5 353.47"/><polygon class="cls-54" points="25.41 363.43 23.67 369.42 27.88 373.76 27.88 368.6 25.41 363.43"/><polygon class="cls-54" points="66.56 188.12 64.83 198.14 68.17 202.26 66.56 188.12"/><polygon class="cls-103" points="271.69 161.1 269.35 206.43 269.35 230.1 259.32 232.1 265.94 279.43 275.23 311.43 275.23 329.43 289.4 351.76 332.19 347.35 332.19 340.1 329.86 271.1 332.19 266.35 329.86 246.85 319.75 216.85 311.45 200.1 308.07 198.1 300.81 200.1 292.52 175.85 288.63 175.85 271.69 161.1"/><polygon class="cls-104" points="288.63 175.85 285.51 210.1 285.51 221.85 283.7 233.26 288.63 220.85 291.48 193.65 292.52 175.85 288.63 175.85"/><polygon class="cls-105" points="260.07 237.43 270.47 241.26 288.11 253.1 299.78 275.6 299.78 275.6 303.41 260.1 303.41 260.1 290.7 245.85 269.35 230.1 259.32 232.1 260.07 237.43"/><polygon class="cls-106" points="299.59 350.71 295.76 303.6 299.78 275.6 299.78 275.6 303.41 260.1 303.41 260.1 306 221.1 306 215.35 300.81 200.1 308.07 198.1 311.45 200.1 311.45 215.6 313.52 238.1 322.34 248.18 329.51 258.43 332.19 266.35 329.86 271.1 328.48 260.93 325.71 256.76 312.92 246.43 307.56 265.1 308.77 280.76 307.73 315.43 308.43 349.8 299.59 350.71"/><polygon class="cls-107" points="288.11 253.1 283.7 282.15 288.11 297.64 295.76 303.6 299.78 275.6 289.84 256.43 288.11 253.1"/><polygon class="cls-107" points="299.59 350.71 289.4 351.76 282.66 340.48 277.3 290.26 282.66 288.02 288.11 301.85 295.76 310.09 299.59 350.71"/><polygon class="cls-107" points="312.92 246.43 307.56 265.1 308.43 349.8 332.19 347.35 328.48 260.93 325.71 256.76 312.92 246.43"/><polygon class="cls-107" points="311.45 200.1 311.45 212.1 313.52 238.1 322.34 248.18 323.76 228.76 318.93 215.2 311.45 200.1"/><polygon class="cls-5" points="308.43 349.8 308.08 303.6 303.41 309.6 295.76 310.09 299.59 350.71 308.43 349.8"/><polygon class="cls-108" points="267.82 285.93 275.23 285.93 282.66 288.02 288.11 301.85 295.76 310.09 295.76 303.6 288.11 297.64 284.64 285.45 277.3 285.04 273.41 283.6 266.73 282.15 267.82 285.93"/><polygon class="cls-109" points="270.47 241.26 279.29 237.43 269.35 230.1 259.32 232.1 260.07 237.43 270.47 241.26"/><polygon class="cls-110" points="285.51 210.1 290.03 207.46 291.57 192.05 287.3 190.49 285.51 210.1"/><polygon class="cls-22" points="263.98 265.44 286 269.19 298.25 286.23 308.43 284.63 330.32 295.02 330.5 298.35 308.57 287.36 297.67 290.26 285.51 273.26 265 272.74 263.98 265.44"/><polygon class="cls-22" points="262.42 254.25 287.6 256.43 299.47 277.72 308.37 275.6 330.11 279.39 330.22 281.89 308.43 277.62 299.24 279.31 287.06 260.02 262.83 257.22 262.42 254.25"/><polygon class="cls-111" points="297.44 366.85 275.23 329.43 275.23 311.43 272.44 301.85 269.91 293.11 253.62 275.6 246.18 267.1 210.57 237.43 191.21 228.76 138.36 196.37 131.04 145.39 131.04 145.39 136.58 116.43 104.08 97.6 104.08 85.6 86.09 82.43 34.4 16.28 25.41 0.1 0 0.1 0 384.1 97.16 380.21 145.23 378.28 294.07 368.85 297.44 366.85"/><polygon class="cls-112" points="311.45 315 309.5 298.35 311.45 305.43 311.45 315"/><polygon class="cls-112" points="312.12 310.69 312.12 318.33 313.98 316.42 312.12 310.69"/><polygon class="cls-112" points="323.76 285.3 325.99 281.89 325.99 284.63 323.76 285.3"/><polygon class="cls-112" points="315.83 252.85 314.9 256.43 314.9 260.55 315.83 252.85"/><polygon class="cls-112" points="317.6 224.14 319.87 231.1 319.87 225.37 317.6 224.14"/><polygon class="cls-112" points="288.54 231.1 291.74 224.14 290.14 230.1 288.54 231.1"/><polygon class="cls-112" points="326.51 336.25 327.67 347 330.08 346.59 326.51 336.25"/><polygon class="cls-112" points="290.14 344.1 291.74 338.74 291.74 342.93 290.14 344.1"/><polygon class="cls-113" points="465.35 346.82 417.72 339.71 372.12 338.74 372.12 341.47 289.4 351.76 297.44 366.85 294.07 368.85 0 384.1 0 400.1 470.25 400.1 800 400.1 800 396.92 649.34 390.55 577 367.85 481.75 359.35 480.5 355.35 480.5 355.35 465.35 346.82"/><polygon class="cls-114" points="623 400.1 163.5 400.1 205.77 393.62 265.28 384.49 291.62 378.1 313.97 372.68 319.87 369.42 318.42 368.06 297.44 366.85 292.27 357.14 291.52 355.74 351.67 345.27 369.45 342.84 369.49 342.84 384.92 340.72 379.76 338.9 416.2 339.68 419.15 341.21 420.67 342 449.92 347 465.35 352.04 461.5 353.09 466.1 355.33 478.25 361.23 546 372.54 539.32 374.6 481.75 379.85 487.34 381.82 556 390.09 601.58 396.9 618.54 399.43 623 400.1"/><polygon class="cls-115" points="373.33 400.1 199.25 400.1 205.77 393.62 265.28 384.49 313.97 372.68 319.87 369.42 318.42 368.06 297.44 366.85 292.27 357.14 291.52 355.74 351.67 345.27 369.45 342.84 372.12 342.73 372.12 342.73 373.33 400.1"/><polygon class="cls-116" points="604.87 400.1 420.83 400.1 418.23 341.42 419.15 341.21 420.67 342 449.92 347 465.35 352.04 461.5 353.09 478.25 361.23 546 372.54 539.32 374.6 481.75 379.85 487.34 381.82 556 390.09 601.58 396.9 604.87 400.1"/><polygon class="cls-117" points="618.56 400.1 465.35 400.1 465.35 355.76 466.1 355.33 478.25 361.23 546 372.54 539.32 374.6 481.75 379.85 487.34 381.82 556 390.09 601.58 396.9 618.54 399.43 618.56 400.1 618.56 400.1"/><polygon class="cls-118" points="333.89 400.1 290.94 400.1 291.62 378.1 313.97 372.68 319.87 369.42 318.42 368.06 297.44 366.85 292.27 357.14 332.71 349.43 333.89 400.1"/><polygon class="cls-119" points="295.7 381.49 295.7 400.1 206.83 400.1 207.98 393.99 295.7 381.49"/><polygon class="cls-120" points="163.5 400.1 206.83 400.1 212.25 396.1 216.5 398.1 274 388.32 315.5 375.35 321.44 370.6 318.42 368.05 297.44 366.85 292.27 357.14 351.08 345.68 385.25 340.89 384.92 340.72 350.78 345.35 291.52 355.74 297.44 366.85 297.44 366.85 318.42 368.05 319.51 369.08 313.98 372.68 265.28 384.48 163.5 400.1"/><polygon class="cls-121" points="623 400.1 556 390.09 487.34 381.81 481.75 379.85 479.5 383.02 486.94 385.08 559.7 393.99 584.19 400.1 623 400.1"/><polygon class="cls-120" points="541.99 373.77 477.79 362.39 461.13 353.5 461.5 353.09 464.42 352.29 449.92 347.52 419.92 342.6 415.71 339.66 416.2 339.67 420.67 342 449.92 347 465.35 352.04 461.5 353.09 478.25 361.22 546 372.54 541.99 373.77"/><path class="cls-122" d="M309.5,353.68l42.33-8.22s-.67,1.19-3.1.92l-1.71.25s-3.57,1.43-15.89,3.34S309.5,353.68,309.5,353.68Z" transform="translate(0 0.1)"/><path class="cls-122" d="M298.94,355.69l6.56-1.19A7.88,7.88,0,0,1,298.94,355.69Z" transform="translate(0 0.1)"/><polygon class="cls-123" points="486.94 385.08 479.5 383.02 479.94 382.47 474.63 383.77 486.94 385.68 578.13 400.1 584.19 400.1 559.7 393.99 486.94 385.08"/><polygon class="cls-124" points="321.44 370.6 324.3 370.99 316.5 375.6 292.52 384.07 215.5 400.1 206.83 400.1 212.25 396.1 217.88 397.6 298.94 380.59 316.75 374.35 321.44 370.6"/><polygon class="cls-122" points="419.92 342.6 421.19 343.41 429.81 344.33 431.96 344.81 449.92 347.52 462.52 352.81 464.42 352.29 450.16 347.5 449.69 347.44 419.92 342.6"/><polygon class="cls-122" points="461.77 353.85 477.31 362.13 517.87 369.5 541.99 373.77 537 374.72 517.92 369.97 475.83 362.65 475.37 361.74 461.77 353.85"/><path class="cls-125" d="M319.87,369.32l191.68,3.87S417.46,367.75,319.87,369.32Z" transform="translate(0 0.1)"/><path class="cls-125" d="M292.27,357l185.52,5.25S357.33,356.18,292.27,357Z" transform="translate(0 0.1)"/><path class="cls-126" d="M419.92,342.5,361.33,344S410.58,341.63,419.92,342.5Z" transform="translate(0 0.1)"/><path class="cls-126" d="M375.58,342.31l41.88-1.68-1.26-1.05S388,341.2,375.58,342.31Z" transform="translate(0 0.1)"/><polygon class="cls-111" points="277.3 377.85 499.43 380.43 586.25 368.05 649.34 390.55 800 396.92 800 400.1 650 400.1 0 400.1 0 384.1 297.44 366.85 277.3 377.85"/><polygon class="cls-127" points="75.33 384.07 127.16 359.62 206.08 352.04 207.97 358.06 203.34 380.2 152.91 384.07 75.33 384.07"/><polygon class="cls-128" points="127.16 359.62 112.83 367.21 152.91 377.05 190.96 370.86 207.97 358.06 206.08 352.04 127.16 359.62"/><polygon class="cls-111" points="190.96 370.86 189.07 381.3 154.03 383.99 75.33 384.07 112.83 367.21 152.91 377.05 190.96 370.86"/><polygon class="cls-128" points="99.78 372.54 150.95 379.6 184.66 378.42 150.58 381.81 102.95 380.26 99.78 372.54"/><polygon class="cls-127" points="139.16 390.55 152.79 386.1 210.83 378.42 226.16 378.42 234.33 381.81 236.08 384.48 207.97 390.55 139.16 390.55"/><polygon class="cls-128" points="152.79 386.1 206.08 387.26 212.5 386.1 234.33 381.81 226.16 378.42 210.83 378.42 152.79 386.1"/><polygon class="cls-111" points="206.08 387.26 207.97 390.55 139.16 390.55 152.79 386.1 206.08 387.26"/><polygon class="cls-129" points="499.43 380.43 510.74 368.81 521.42 368.81 534 377.73 537.67 365.7 541.08 362.19 610.08 357.83 613.92 361.22 601.65 383.72 607.54 381.49 632.08 381.49 645.58 389.28 642.75 390.09 588.42 390.09 499.43 380.43"/><polygon class="cls-130" points="541.08 362.19 537.67 365.7 564.42 376.01 595.42 374.98 613.92 361.22 610.08 357.83 541.08 362.19"/><polygon class="cls-130" points="510.74 368.81 502.13 377.65 520.67 376.01 525.33 371.58 521.42 368.81 510.74 368.81"/><polygon class="cls-130" points="607.54 381.49 601.65 383.72 590.92 387.16 617.81 387.71 629.36 384.6 634.73 383.02 632.08 381.49 607.54 381.49"/><polygon class="cls-111" points="595.42 374.98 597.42 385.08 607.54 381.49 613.92 361.22 595.42 374.98"/><polygon class="cls-111" points="617.81 387.71 638.42 390.09 642.75 390.09 645.58 389.28 634.73 383.02 617.81 387.71"/><polygon class="cls-131" points="520.67 376.01 525.33 383.02 534.15 384.2 534 377.73 525.33 371.58 520.67 376.01"/><polygon class="cls-130" points="535.54 372.67 548.42 379.27 564.42 380.43 549.98 383.02 537.67 377.89 535.54 372.67"/><polygon class="cls-132" points="569.39 390.09 575.79 383.72 590.92 381.49 592.58 383.72 590.24 390.09 569.39 390.09"/><polygon class="cls-133" points="575.79 383.72 581.08 387.71 591.5 385.08 592.58 383.72 590.92 381.49 575.79 383.72"/><g class="cls-134"><polygon class="cls-135" points="449.34 376.13 452.61 384.55 466.06 397.72 470.66 398.67 468.72 382.31 467.25 380.95 466.45 376.13 449.34 376.13"/><polygon class="cls-136" points="452.61 384.55 451.15 378.5 458.68 378.47 464.18 382.98 469.43 398.41 470.66 398.67 468.72 382.31 467.25 380.95 466.45 376.13 449.34 376.13 452.61 384.55"/><polygon class="cls-137" points="468.72 382.31 464.18 382.98 458.68 378.47 458.68 376.27 466.45 376.13 467.25 380.95 468.72 382.31"/><polygon class="cls-138" points="452.61 384.55 451.15 378.5 458.68 378.47 461.02 388.4 466.06 397.72 452.61 384.55"/><polygon class="cls-138" points="467.6 398.04 467 391.25 469.43 398.41 467.6 398.04"/><polygon class="cls-139" points="415.24 376.27 418.42 391.37 421.7 393.3 430.23 418.61 442.25 427.75 445.47 429.02 448.21 404.6 450.49 402.98 446.58 376.13 415.24 376.27"/><polygon class="cls-140" points="442.25 427.75 445.59 410.8 438.28 393.28 422.44 393.28 422.08 394.41 421.7 393.3 420.45 392.56 422.22 392.98 438.28 392.56 434.7 388.4 433.3 376.13 446.58 376.13 450.49 402.98 448.21 399.63 444.75 383.01 442.1 380.41 445.18 399.63 448.21 404.6 445.47 429.02 442.25 427.75"/><polygon class="cls-13" points="418.42 391.37 425.77 389.05 434.7 388.4 438.28 392.56 422.22 392.98 420.45 392.56 418.42 391.37"/><polygon class="cls-138" points="430.23 418.61 422.08 394.41 422.44 393.28 428.22 393.84 435.47 403.88 434.68 418.61 435.47 422.59 430.23 418.61"/><polygon class="cls-138" points="443.26 422.59 441.08 410.8 441.08 405.93 442.64 403.73 445.59 410.8 443.26 422.59"/><polygon class="cls-141" points="433.3 376.13 434.7 388.4 438.28 392.56 434.79 392.65 434.78 393.28 438.28 393.28 440.67 399 445.18 399.63 442.1 380.41 442.26 376.17 433.3 376.13"/><polygon class="cls-142" points="448.21 399.63 446.58 376.13 444.75 376.27 444.75 383.01 448 399.29 448.21 399.63"/><polygon class="cls-143" points="409.97 376.54 409.97 381.28 406.27 384.97 388.98 379.11 393.25 376.54 409.97 376.54"/><polygon class="cls-13" points="388.98 379.11 391.83 378.15 407.67 380.19 409.97 381.28 406.27 384.97 388.98 379.11"/><polygon class="cls-144" points="407.67 380.19 407.67 376.54 409.97 376.54 409.97 381.28 407.67 380.19"/><polygon class="cls-145" points="418.23 376.29 415.24 416.12 416.2 416.12 418.98 376.29 418.23 376.29"/><polygon class="cls-146" points="420.45 376.29 424.53 420.91 425.51 420.77 421.17 376.29 420.45 376.29"/><polygon class="cls-145" points="440.93 376.51 459.34 414.43 461 414.43 441.85 376.57 440.93 376.51"/><polygon class="cls-145" points="442.26 376.53 452.63 394.83 453.31 395.34 443.6 376.54 442.26 376.53"/><polygon class="cls-146" points="409.97 376.54 411.83 407.08 412.59 407.38 410.67 378.15 413.42 409.57 414.67 410.52 411.33 376.4 409.97 376.54"/><polygon class="cls-145" points="412.32 376.57 418.98 414.96 419.92 414.96 413.25 376.4 412.32 376.57"/><polygon class="cls-145" points="461.77 376.57 474.63 406.39 476.34 406.66 462.25 376.57 473.67 397.72 474.37 397.72 463.27 376.57 461.77 376.57"/><polygon class="cls-146" points="460 376.57 465.35 405.78 466.06 405.78 460.33 376.57 460 376.57"/></g><polygon class="cls-147" points="449.34 376.13 452.61 366.36 466.06 351.09 470.66 349.99 468.72 368.95 467.25 370.53 466.45 376.13 449.34 376.13"/><polygon class="cls-148" points="452.61 366.36 451.15 373.37 458.68 373.4 464.18 368.18 469.43 350.29 470.66 349.99 468.72 368.95 467.25 370.53 466.45 376.13 449.34 376.13 452.61 366.36"/><polygon class="cls-149" points="468.72 368.95 464.18 368.18 458.68 373.4 458.68 375.95 466.45 376.13 467.25 370.53 468.72 368.95"/><polygon class="cls-138" points="452.61 366.36 451.15 373.37 458.68 373.4 461.02 361.9 466.06 351.09 452.61 366.36"/><polygon class="cls-138" points="467.6 350.72 467 358.59 469.43 350.29 467.6 350.72"/><polygon class="cls-150" points="415.24 375.95 418.42 358.45 421.7 356.22 430.23 326.88 442.25 316.27 445.47 314.8 448.21 343.12 450.49 344.99 446.58 376.13 415.24 375.95"/><polygon class="cls-151" points="442.25 316.27 445.59 335.93 438.28 356.23 422.44 356.23 422.08 354.93 421.7 356.22 420.45 357.07 422.22 356.58 438.28 357.07 434.7 361.9 433.3 376.13 446.58 376.13 450.49 344.99 448.21 348.88 444.75 368.15 442.1 371.16 445.18 348.88 448.21 343.12 445.47 314.8 442.25 316.27"/><polygon class="cls-152" points="418.42 358.45 425.77 361.14 434.7 361.9 438.28 357.07 422.22 356.58 420.45 357.07 418.42 358.45"/><polygon class="cls-138" points="430.23 326.88 422.08 354.93 422.44 356.23 428.22 355.59 435.47 343.94 434.68 326.88 435.47 322.25 430.23 326.88"/><polygon class="cls-138" points="443.26 322.25 441.08 335.93 441.08 341.58 442.64 344.13 445.59 335.93 443.26 322.25"/><polygon class="cls-153" points="433.3 376.13 434.7 361.9 438.28 357.07 434.79 356.96 434.78 356.23 438.28 356.23 440.67 349.61 445.18 348.88 442.1 371.16 442.26 376.07 433.3 376.13"/><polygon class="cls-154" points="448.21 348.88 446.58 376.13 444.75 375.95 444.75 368.15 448 349.27 448.21 348.88"/><polygon class="cls-155" points="409.97 375.64 409.97 370.14 406.27 365.87 388.98 372.67 393.25 375.64 409.97 375.64"/><polygon class="cls-13" points="388.98 372.67 391.83 373.77 407.67 371.41 409.97 370.14 406.27 365.87 388.98 372.67"/><polygon class="cls-156" points="407.67 371.41 407.67 375.64 409.97 375.64 409.97 370.14 407.67 371.41"/><polygon class="cls-122" points="466.52 375.61 481.75 375.81 453.65 376.6 455.29 376.89 383.09 376.04 393.25 375.64 409.97 375.64 409.97 374.72 415.46 374.72 415.24 375.95 446.58 375.61 446.76 374.72 449.81 374.72 449.51 375.61 466.52 375.61"/><polygon class="cls-145" points="418.23 375.94 415.24 329.76 416.2 329.76 418.98 375.94 418.23 375.94"/><polygon class="cls-157" points="420.45 375.94 424.53 324.2 425.51 324.37 421.17 375.94 420.45 375.94"/><polygon class="cls-145" points="440.93 375.67 459.34 331.72 461 331.72 441.85 375.61 440.93 375.67"/><polygon class="cls-145" points="442.26 375.66 452.63 354.44 453.31 353.85 443.6 375.64 442.26 375.66"/><polygon class="cls-146" points="409.97 375.64 411.83 340.24 412.59 339.89 410.67 373.77 413.42 337.35 414.67 336.25 411.33 375.81 409.97 375.64"/><polygon class="cls-145" points="412.32 375.61 418.98 331.1 419.92 331.1 413.25 375.81 412.32 375.61"/><polygon class="cls-145" points="461.77 375.61 474.63 341.04 476.34 340.72 462.25 375.61 473.67 351.09 474.37 351.09 463.27 375.61 461.77 375.61"/><polygon class="cls-146" points="460 375.61 465.35 341.75 466.06 341.75 460.33 375.61 460 375.61"/><polygon class="cls-158" points="388.98 372.67 391.08 374.13 389.92 372.67 404.85 366.85 406.5 366.85 409.49 370.41 409.97 371.93 409.97 370.14 406.27 365.87 388.98 372.67"/><polygon class="cls-158" points="418.42 358.45 421.7 356.22 424.53 324.2 425.51 324.37 423.35 349.99 430.23 326.88 442.25 316.27 445.47 314.8 446.38 324.2 444.75 316.18 442.26 317.22 431 327.35 422.44 356.23 422.88 352.22 422.27 352.76 421.94 357.06 418.42 358.45"/><polygon class="cls-158" points="449.08 356.22 449.08 357.06 461 331.72 459.34 331.72 449.08 356.22"/><polygon class="cls-158" points="415.5 354.33 418.98 331.1 419.92 331.1 416.72 352.56 415.5 354.33"/><polygon class="cls-158" points="416.89 355.33 415.24 329.76 416.2 329.76 417.33 348.6 416.89 355.33"/><polygon class="cls-158" points="412.33 351.76 413.5 350.07 414.67 336.25 413.42 337.35 412.33 351.76"/><polygon class="cls-158" points="450.49 372.69 452.61 366.36 463.2 354.33 465.35 341.75 466.06 341.75 464.1 353.31 466.06 351.09 470.66 349.99 470.42 352.34 474.63 341.04 476.34 340.72 470.3 353.55 470.09 350.79 463.91 354.44 464.13 351.97 463.7 352.21 463.2 355.33 453.31 366.29 450.49 372.69"/><polygon class="cls-158" points="765.81 0.1 749.93 5.1 741.38 10.43 708.82 11.1 702.33 13.63 702.31 20.43 697.56 25.19 656.72 66.1 653.46 66.1 653.46 82.43 643.29 82.43 639.62 85.43 631.08 98.76 599.33 117.77 600.31 129.35 586.91 147.96 574.27 142.44 567.6 145.13 540.47 169.76 531.56 166.6 498.33 172.72 498.33 178.52 477 190.49 474.46 222.2 454.93 238.22 446.57 238.22 440.93 249.29 421.33 325.65 440.13 248.19 446.03 236.35 454.93 236.79 473.93 220.88 476.34 189.51 497.67 177.26 497.92 172.06 502.05 171.22 527.08 166.6 531.84 165.26 540.33 168.87 566.5 144.46 574.5 141.35 586.25 146.1 587.75 145.34 599.33 129.35 598.17 117.27 630.92 97.38 638.75 84.86 643 81.42 652.92 81.42 652.54 65.89 653.46 65.35 656.46 65.64 673.25 48.89 698.33 22.35 700.78 20.43 700.78 13.1 708.82 10.1 740.75 9.76 749.92 3.93 760.25 0.1 765.81 0.1"/><polygon class="cls-158" points="653.46 82.43 654.46 97.38 653.46 97.38 650.86 82.43 653.46 82.43"/><polygon class="cls-158" points="473.17 223.26 473.49 242.77 477 190.49 473.17 223.26"/><polygon class="cls-158" points="135.8 0.1 152.48 11.43 152.75 16.28 172.55 34.43 178.41 42.6 223.28 57.1 237.8 82.6 239.61 127.1 272.55 144.6 271.69 161.1 288.63 175.85 292.52 175.85 300.81 200.1 308.07 198.1 311.45 200.1 324.89 232.1 329.86 246.85 332.19 266.35 329.86 271.1 332.19 347.35 330.5 270.85 333.5 265.44 330.5 244.66 326.25 231.1 312.42 199.45 308.25 196.76 301.92 198.68 293.08 175.29 289.42 175.29 272.55 161.1 273.08 143.85 272.07 142.93 240.42 126.02 238.71 82.18 231.44 67.93 223.28 56.02 180.49 41.47 174.13 34.43 153.75 15.72 153.75 10.04 140.81 0.1 135.8 0.1"/><polygon class="cls-158" points="294.78 179.79 295.76 169.77 317.81 153.1 321.93 154.43 332.19 175.29 336.63 176.25 349.89 199.34 355.31 224.67 370.94 236.94 377.96 262.81 380.6 261.82 389.92 263.21 400 282.15 407.33 287.36 420.45 328.06 407.83 286.18 400 281.26 390.5 261.82 379.58 260.55 377.96 261.18 371.56 236.16 355.75 224 350.63 198.14 337.19 175.85 332.75 174.6 322.63 153.91 317.44 151.53 295.03 169.26 293.46 177.71 294.78 179.79"/></g></g></g></svg>