<svg xmlns="http://www.w3.org/2000/svg" xmlns:xlink="http://www.w3.org/1999/xlink" viewBox="0 0 408.73 272.57"><defs><style>.cls-1{mask:url(#mask);}.cls-10,.cls-11,.cls-12,.cls-13,.cls-14,.cls-143,.cls-15,.cls-16,.cls-17,.cls-172,.cls-174,.cls-175,.cls-176,.cls-177,.cls-18,.cls-19,.cls-2,.cls-20,.cls-23,.cls-24,.cls-26,.cls-28,.cls-29,.cls-30,.cls-31,.cls-32,.cls-33,.cls-34,.cls-54,.cls-55,.cls-7,.cls-8,.cls-9{mix-blend-mode:multiply;}.cls-2{fill:url(#linear-gradient);}.cls-3{fill:none;}.cls-4{isolation:isolate;}.cls-5{clip-path:url(#clip-path);}.cls-10,.cls-100,.cls-101,.cls-102,.cls-103,.cls-104,.cls-105,.cls-106,.cls-107,.cls-108,.cls-109,.cls-11,.cls-110,.cls-111,.cls-112,.cls-113,.cls-114,.cls-115,.cls-116,.cls-117,.cls-118,.cls-119,.cls-12,.cls-120,.cls-121,.cls-122,.cls-123,.cls-124,.cls-125,.cls-126,.cls-127,.cls-128,.cls-129,.cls-13,.cls-130,.cls-131,.cls-132,.cls-133,.cls-134,.cls-135,.cls-136,.cls-137,.cls-138,.cls-139,.cls-14,.cls-140,.cls-141,.cls-142,.cls-143,.cls-144,.cls-145,.cls-146,.cls-147,.cls-148,.cls-149,.cls-15,.cls-150,.cls-151,.cls-152,.cls-153,.cls-154,.cls-155,.cls-156,.cls-157,.cls-158,.cls-159,.cls-16,.cls-160,.cls-161,.cls-162,.cls-163,.cls-164,.cls-165,.cls-166,.cls-167,.cls-168,.cls-169,.cls-17,.cls-170,.cls-18,.cls-181,.cls-182,.cls-183,.cls-184,.cls-185,.cls-186,.cls-187,.cls-188,.cls-189,.cls-19,.cls-190,.cls-191,.cls-20,.cls-21,.cls-22,.cls-23,.cls-24,.cls-25,.cls-26,.cls-35,.cls-36,.cls-37,.cls-38,.cls-39,.cls-40,.cls-41,.cls-42,.cls-43,.cls-44,.cls-45,.cls-46,.cls-47,.cls-48,.cls-49,.cls-50,.cls-51,.cls-52,.cls-53,.cls-54,.cls-55,.cls-56,.cls-57,.cls-58,.cls-59,.cls-6,.cls-60,.cls-61,.cls-62,.cls-63,.cls-64,.cls-65,.cls-66,.cls-67,.cls-68,.cls-69,.cls-7,.cls-70,.cls-71,.cls-72,.cls-73,.cls-74,.cls-75,.cls-76,.cls-77,.cls-78,.cls-79,.cls-8,.cls-80,.cls-81,.cls-82,.cls-83,.cls-84,.cls-85,.cls-86,.cls-87,.cls-88,.cls-89,.cls-9,.cls-90,.cls-92,.cls-93,.cls-94,.cls-95,.cls-96,.cls-97,.cls-98,.cls-99{fill-rule:evenodd;}.cls-6{fill:url(#Безымянный_градиент_274);}.cls-10,.cls-12,.cls-13,.cls-14,.cls-15,.cls-16,.cls-17,.cls-172,.cls-177,.cls-18,.cls-19,.cls-20,.cls-22,.cls-23,.cls-24,.cls-26,.cls-28,.cls-29,.cls-30,.cls-31,.cls-32,.cls-34,.cls-7,.cls-8,.cls-9{opacity:0.5;}.cls-7{fill:url(#Безымянный_градиент_296);}.cls-8{fill:url(#Безымянный_градиент_296-2);}.cls-9{fill:url(#Безымянный_градиент_296-3);}.cls-10{fill:url(#Безымянный_градиент_296-4);}.cls-11,.cls-143,.cls-33{opacity:0.2;}.cls-11{fill:url(#Безымянный_градиент_296-5);}.cls-12{fill:url(#Безымянный_градиент_296-6);}.cls-13{fill:url(#Безымянный_градиент_296-7);}.cls-14{fill:url(#Безымянный_градиент_296-8);}.cls-15{fill:url(#Безымянный_градиент_296-9);}.cls-16{fill:url(#Безымянный_градиент_296-10);}.cls-17{fill:url(#Безымянный_градиент_296-11);}.cls-18{fill:url(#Безымянный_градиент_296-12);}.cls-19{fill:url(#Безымянный_градиент_296-13);}.cls-20{fill:url(#Безымянный_градиент_296-15);}.cls-21{fill:#93839c;}.cls-173,.cls-21,.cls-48{mix-blend-mode:soft-light;}.cls-22{fill:#5955b1;}.cls-23{fill:url(#Безымянный_градиент_296-16);}.cls-24{fill:url(#Безымянный_градиент_296-17);}.cls-25{fill:#503e7f;}.cls-26{fill:url(#Безымянный_градиент_296-18);}.cls-27{fill:url(#Безымянный_градиент_274-2);}.cls-28{fill:url(#Безымянный_градиент_272);}.cls-29{fill:url(#Безымянный_градиент_272-2);}.cls-30{fill:url(#Безымянный_градиент_272-3);}.cls-31{fill:url(#Безымянный_градиент_272-4);}.cls-32{fill:url(#Безымянный_градиент_272-5);}.cls-175,.cls-33,.cls-34{fill:#d3b5c5;}.cls-35{fill:url(#radial-gradient);}.cls-36{fill:url(#radial-gradient-2);}.cls-37{fill:url(#radial-gradient-3);}.cls-38{fill:url(#radial-gradient-4);}.cls-39{fill:url(#radial-gradient-5);}.cls-40{fill:url(#radial-gradient-6);}.cls-41{fill:url(#radial-gradient-7);}.cls-42{fill:url(#radial-gradient-8);}.cls-43{fill:#4563b6;}.cls-44{fill:url(#radial-gradient-9);}.cls-45{fill:url(#radial-gradient-10);}.cls-46{fill:url(#radial-gradient-11);}.cls-47{fill:url(#radial-gradient-12);}.cls-48{fill:#fff;}.cls-49{fill:url(#radial-gradient-13);}.cls-50{fill:url(#radial-gradient-14);}.cls-51{fill:url(#radial-gradient-15);}.cls-52{fill:url(#radial-gradient-16);}.cls-53{fill:url(#radial-gradient-17);}.cls-54{fill:#250cb0;opacity:0.4;}.cls-55{fill:#44419f;opacity:0.8;}.cls-56{fill:url(#radial-gradient-18);}.cls-57{fill:url(#radial-gradient-19);}.cls-58{fill:url(#radial-gradient-20);}.cls-59{fill:url(#radial-gradient-21);}.cls-60{fill:url(#radial-gradient-22);}.cls-61{fill:url(#radial-gradient-23);}.cls-62{fill:url(#radial-gradient-24);}.cls-63{fill:url(#radial-gradient-25);}.cls-64{fill:url(#radial-gradient-26);}.cls-65{fill:url(#radial-gradient-27);}.cls-66{fill:url(#radial-gradient-28);}.cls-67{fill:url(#radial-gradient-29);}.cls-68{fill:url(#radial-gradient-30);}.cls-69{fill:url(#radial-gradient-31);}.cls-70{fill:url(#radial-gradient-32);}.cls-71{fill:url(#radial-gradient-33);}.cls-72{fill:url(#radial-gradient-34);}.cls-73{fill:url(#radial-gradient-35);}.cls-74{fill:url(#radial-gradient-36);}.cls-75{fill:#817fff;}.cls-76{fill:url(#radial-gradient-37);}.cls-77{fill:url(#radial-gradient-38);}.cls-78{fill:url(#radial-gradient-39);}.cls-79{fill:url(#radial-gradient-40);}.cls-80{fill:url(#radial-gradient-41);}.cls-81{fill:url(#radial-gradient-42);}.cls-82{fill:url(#radial-gradient-43);}.cls-83{fill:url(#radial-gradient-44);}.cls-84{fill:url(#radial-gradient-45);}.cls-85{fill:url(#radial-gradient-46);}.cls-86{fill:url(#radial-gradient-47);}.cls-87{fill:url(#radial-gradient-48);}.cls-88{fill:url(#radial-gradient-49);}.cls-89{fill:url(#radial-gradient-50);}.cls-90{fill:url(#radial-gradient-51);}.cls-91{fill:url(#radial-gradient-52);}.cls-92{fill:url(#radial-gradient-53);}.cls-93{fill:url(#radial-gradient-54);}.cls-94{fill:url(#radial-gradient-55);}.cls-95{fill:url(#radial-gradient-56);}.cls-96{fill:url(#radial-gradient-57);}.cls-97{fill:url(#radial-gradient-58);}.cls-98{fill:url(#radial-gradient-59);}.cls-99{fill:url(#radial-gradient-60);}.cls-100{fill:url(#radial-gradient-61);}.cls-101{fill:url(#radial-gradient-62);}.cls-102{fill:url(#radial-gradient-63);}.cls-103{fill:url(#radial-gradient-64);}.cls-104{fill:url(#radial-gradient-65);}.cls-105{fill:url(#radial-gradient-66);}.cls-106{fill:url(#radial-gradient-67);}.cls-107{fill:url(#radial-gradient-68);}.cls-108{fill:url(#radial-gradient-69);}.cls-109{fill:url(#radial-gradient-70);}.cls-110{fill:url(#radial-gradient-71);}.cls-111{fill:url(#radial-gradient-72);}.cls-112{fill:url(#radial-gradient-73);}.cls-113{fill:url(#radial-gradient-74);}.cls-114{fill:url(#radial-gradient-75);}.cls-115{fill:url(#radial-gradient-76);}.cls-116{fill:url(#radial-gradient-77);}.cls-117{fill:url(#radial-gradient-78);}.cls-118{fill:url(#radial-gradient-79);}.cls-119{fill:url(#radial-gradient-80);}.cls-120{fill:url(#radial-gradient-81);}.cls-121{fill:url(#radial-gradient-82);}.cls-122{fill:url(#radial-gradient-83);}.cls-123{fill:url(#radial-gradient-84);}.cls-124{fill:url(#radial-gradient-85);}.cls-125{fill:url(#radial-gradient-86);}.cls-126{fill:url(#radial-gradient-87);}.cls-127{fill:url(#radial-gradient-88);}.cls-128{fill:url(#radial-gradient-89);}.cls-129{fill:url(#radial-gradient-90);}.cls-130{fill:url(#radial-gradient-91);}.cls-131{fill:url(#radial-gradient-92);}.cls-132{fill:url(#radial-gradient-93);}.cls-133{fill:url(#radial-gradient-94);}.cls-134{fill:url(#radial-gradient-95);}.cls-135{fill:url(#radial-gradient-96);}.cls-136{fill:url(#radial-gradient-97);}.cls-137{fill:url(#radial-gradient-98);}.cls-138{fill:url(#radial-gradient-99);}.cls-139{fill:url(#radial-gradient-100);}.cls-140{fill:url(#radial-gradient-101);}.cls-141{fill:url(#radial-gradient-102);}.cls-142{fill:url(#radial-gradient-103);}.cls-143{fill:url(#Безымянный_градиент_192);}.cls-144{fill:url(#radial-gradient-104);}.cls-145{fill:url(#radial-gradient-105);}.cls-146{fill:url(#radial-gradient-106);}.cls-147{fill:url(#radial-gradient-107);}.cls-148{fill:url(#radial-gradient-108);}.cls-149{fill:url(#radial-gradient-109);}.cls-150{fill:url(#radial-gradient-110);}.cls-151{fill:url(#radial-gradient-111);}.cls-152{fill:url(#radial-gradient-112);}.cls-153{fill:url(#radial-gradient-113);}.cls-154{fill:url(#radial-gradient-114);}.cls-155{fill:url(#radial-gradient-115);}.cls-156{fill:url(#radial-gradient-116);}.cls-157{fill:url(#radial-gradient-117);}.cls-158{fill:url(#radial-gradient-118);}.cls-159{fill:url(#radial-gradient-119);}.cls-160{fill:url(#radial-gradient-120);}.cls-161{fill:url(#radial-gradient-121);}.cls-162{fill:url(#radial-gradient-122);}.cls-163{fill:url(#radial-gradient-123);}.cls-164{fill:url(#radial-gradient-124);}.cls-165{fill:url(#radial-gradient-125);}.cls-166{fill:url(#radial-gradient-126);}.cls-167{fill:url(#radial-gradient-127);}.cls-168{fill:url(#radial-gradient-128);}.cls-169{fill:url(#radial-gradient-129);}.cls-170{fill:url(#radial-gradient-130);}.cls-171{fill:url(#Безымянный_градиент_274-3);}.cls-172{fill:url(#Безымянный_градиент_272-6);}.cls-173{fill:#c095ac;}.cls-174,.cls-175,.cls-176{opacity:0.3;}.cls-174{fill:url(#Безымянный_градиент_272-7);}.cls-176{fill:#c39ab0;}.cls-177{fill:#b888a2;}.cls-178{mask:url(#mask-2);}.cls-179{mix-blend-mode:screen;fill:url(#linear-gradient-2);}.cls-180{fill:#a2bbff;}.cls-181{fill:url(#radial-gradient-131);}.cls-182{fill:url(#radial-gradient-132);}.cls-183{fill:url(#linear-gradient-3);}.cls-184{fill:url(#radial-gradient-133);}.cls-185{fill:url(#radial-gradient-134);}.cls-186{fill:url(#radial-gradient-135);}.cls-187{fill:url(#radial-gradient-136);}.cls-188{fill:url(#radial-gradient-137);}.cls-189{fill:url(#radial-gradient-138);}.cls-190{fill:url(#radial-gradient-139);}.cls-191{fill:url(#radial-gradient-140);}.cls-192{filter:url(#luminosity-noclip-2);}.cls-193{filter:url(#luminosity-noclip);}</style><filter id="luminosity-noclip" x="352.18" y="-8392" width="124.35" height="32766" filterUnits="userSpaceOnUse" color-interpolation-filters="sRGB"><feFlood flood-color="#fff" result="bg"/><feBlend in="SourceGraphic" in2="bg"/></filter><mask id="mask" x="352.18" y="-8392" width="124.35" height="32766" maskUnits="userSpaceOnUse"><g class="cls-193"/></mask><linearGradient id="linear-gradient" x1="414.36" y1="258.82" x2="414.36" y2="7.68" gradientUnits="userSpaceOnUse"><stop offset="0" stop-color="#fff"/><stop offset="0.19" stop-color="#ececec"/><stop offset="0.58" stop-color="#bcbcbc"/><stop offset="1" stop-color="gray"/></linearGradient><clipPath id="clip-path" transform="translate(-256.8 13.75)"><rect class="cls-3" width="800" height="400"/></clipPath><linearGradient id="Безымянный_градиент_274" x1="414.35" y1="258.82" x2="414.35" y2="137.18" gradientUnits="userSpaceOnUse"><stop offset="0" stop-color="#0f1659"/><stop offset="1" stop-color="#572c78"/></linearGradient><linearGradient id="Безымянный_градиент_296" x1="132.22" y1="164.83" x2="219.73" y2="164.83" gradientUnits="userSpaceOnUse"><stop offset="0" stop-color="#745ebd"/><stop offset="1" stop-color="#542e77"/></linearGradient><linearGradient id="Безымянный_градиент_296-2" x1="107.51" y1="186.31" x2="137.52" y2="186.31" xlink:href="#Безымянный_градиент_296"/><linearGradient id="Безымянный_градиент_296-3" x1="141.75" y1="260.17" x2="163.29" y2="260.17" xlink:href="#Безымянный_градиент_296"/><linearGradient id="Безымянный_градиент_296-4" x1="352.18" y1="187.22" x2="476.53" y2="187.22" xlink:href="#Безымянный_градиент_296"/><linearGradient id="Безымянный_градиент_296-5" x1="167.76" y1="170.63" x2="209.6" y2="170.63" xlink:href="#Безымянный_градиент_296"/><linearGradient id="Безымянный_градиент_296-6" x1="399.63" y1="191.49" x2="476.53" y2="191.49" xlink:href="#Безымянный_градиент_296"/><linearGradient id="Безымянный_градиент_296-7" x1="164.52" y1="224.66" x2="172.21" y2="224.66" xlink:href="#Безымянный_градиент_296"/><linearGradient id="Безымянный_градиент_296-8" x1="163.29" y1="240.61" x2="174.83" y2="240.61" xlink:href="#Безымянный_градиент_296"/><linearGradient id="Безымянный_градиент_296-9" x1="147.07" y1="260.17" x2="163.29" y2="260.17" xlink:href="#Безымянный_градиент_296"/><linearGradient id="Безымянный_градиент_296-10" x1="158.42" y1="168.13" x2="182.75" y2="168.13" xlink:href="#Безымянный_градиент_296"/><linearGradient id="Безымянный_градиент_296-11" x1="139.01" y1="188.75" x2="179.21" y2="188.75" xlink:href="#Безымянный_градиент_296"/><linearGradient id="Безымянный_градиент_296-12" x1="168.77" y1="207.03" x2="206.05" y2="207.03" xlink:href="#Безымянный_градиент_296"/><linearGradient id="Безымянный_градиент_296-13" x1="142.83" y1="217.44" x2="168.29" y2="217.44" xlink:href="#Безымянный_градиент_296"/><linearGradient id="Безымянный_градиент_296-15" x1="144.52" y1="228.35" x2="219.73" y2="228.35" xlink:href="#Безымянный_градиент_296"/><linearGradient id="Безымянный_градиент_296-16" x1="117.9" y1="193.15" x2="137.52" y2="193.15" xlink:href="#Безымянный_градиент_296"/><linearGradient id="Безымянный_градиент_296-17" x1="100.78" y1="165.61" x2="107.51" y2="165.61" xlink:href="#Безымянный_градиент_296"/><linearGradient id="Безымянный_градиент_296-18" x1="137.52" y1="192.8" x2="148.48" y2="192.8" xlink:href="#Безымянный_градиент_296"/><linearGradient id="Безымянный_градиент_274-2" x1="179.56" y1="159.8" x2="179.56" y2="127.32" xlink:href="#Безымянный_градиент_274"/><radialGradient id="Безымянный_градиент_272" cx="179.56" cy="143.56" r="16.21" gradientUnits="userSpaceOnUse"><stop offset="0" stop-color="#ae9593"/><stop offset="1" stop-color="#ac4b83"/></radialGradient><radialGradient id="Безымянный_градиент_272-2" cx="188.58" cy="150.67" r="8.2" xlink:href="#Безымянный_градиент_272"/><radialGradient id="Безымянный_градиент_272-3" cx="179.14" cy="145.37" r="10.3" xlink:href="#Безымянный_градиент_272"/><radialGradient id="Безымянный_градиент_272-4" cx="175.67" cy="149.11" r="7.6" xlink:href="#Безымянный_градиент_272"/><radialGradient id="Безымянный_градиент_272-5" cx="171.63" cy="156.04" r="2.66" xlink:href="#Безымянный_градиент_272"/><radialGradient id="radial-gradient" cx="389.21" cy="-2327.39" r="7.16" gradientTransform="translate(0 3349.03) scale(1 1.42)" gradientUnits="userSpaceOnUse"><stop offset="0" stop-color="#53a5e3"/><stop offset="0.99" stop-color="#0a59d9"/></radialGradient><radialGradient id="radial-gradient-2" cx="388.76" cy="52.87" r="3.82" gradientUnits="userSpaceOnUse"><stop offset="0" stop-color="#224799"/><stop offset="0.99" stop-color="#002a86"/></radialGradient><radialGradient id="radial-gradient-3" cx="434.33" cy="-6513.27" r="4.02" gradientTransform="translate(-611.28 35716.57) scale(2.3 5.47)" gradientUnits="userSpaceOnUse"><stop offset="0" stop-color="#abeeff"/><stop offset="1" stop-color="#6a90de"/></radialGradient><radialGradient id="radial-gradient-4" cx="440.21" cy="62.63" r="2.51" gradientTransform="translate(-509.16 13.75) scale(1.45 1)" xlink:href="#radial-gradient-2"/><radialGradient id="radial-gradient-5" cx="387.74" cy="55.68" r="7.86" gradientUnits="userSpaceOnUse"><stop offset="0" stop-color="#e4fbff"/><stop offset="1" stop-color="#91bbff"/></radialGradient><radialGradient id="radial-gradient-6" cx="442.08" cy="61.82" r="5.53" gradientTransform="translate(-252.37) scale(1.45 1)" gradientUnits="userSpaceOnUse"><stop offset="0" stop-color="#4166d4"/><stop offset="0.99" stop-color="#0d0ad9"/></radialGradient><radialGradient id="radial-gradient-7" cx="442.8" cy="62.45" r="1.23" gradientTransform="translate(-509.16 13.75) scale(1.45 1)" gradientUnits="userSpaceOnUse"><stop offset="0" stop-color="#2644ba"/><stop offset="0.99" stop-color="#0006b0"/></radialGradient><radialGradient id="radial-gradient-8" cx="439.16" cy="62.48" r="1.23" xlink:href="#radial-gradient-7"/><radialGradient id="radial-gradient-9" cx="389.42" cy="53.43" r="2.42" xlink:href="#radial-gradient-5"/><radialGradient id="radial-gradient-10" cx="134.78" cy="68.07" r="2.01" xlink:href="#radial-gradient-5"/><radialGradient id="radial-gradient-11" cx="126.65" cy="68.18" r="2.17" xlink:href="#radial-gradient-5"/><radialGradient id="radial-gradient-12" cx="426.75" cy="61.38" r="0.79" gradientTransform="matrix(-1, -0.06, -0.06, 1, 814.16, 22.72)" xlink:href="#radial-gradient-2"/><radialGradient id="radial-gradient-13" cx="388.63" cy="66.67" r="4.15" gradientUnits="userSpaceOnUse"><stop offset="0" stop-color="#7bbcdd"/><stop offset="1" stop-color="#3e39c8"/></radialGradient><radialGradient id="radial-gradient-14" cx="441.5" cy="65.31" r="2.5" gradientTransform="translate(-252.37) scale(1.45 1)" xlink:href="#radial-gradient-5"/><radialGradient id="radial-gradient-15" cx="131.89" cy="80.78" r="2.36" xlink:href="#radial-gradient-5"/><radialGradient id="radial-gradient-16" cx="134.33" cy="81.72" r="2.26" xlink:href="#radial-gradient-5"/><radialGradient id="radial-gradient-17" cx="126.14" cy="81.46" r="2.12" xlink:href="#radial-gradient-5"/><radialGradient id="radial-gradient-18" cx="383.79" cy="87.12" r="9.69" gradientUnits="userSpaceOnUse"><stop offset="0" stop-color="#4578ab"/><stop offset="0.99" stop-color="#1000a4"/></radialGradient><radialGradient id="radial-gradient-19" cx="350.92" cy="86.09" r="9.7" gradientTransform="matrix(-1, -0.03, -0.03, 1, 742.55, 11.38)" xlink:href="#radial-gradient-18"/><radialGradient id="radial-gradient-20" cx="386.2" cy="87.11" r="9.71" xlink:href="#radial-gradient-18"/><radialGradient id="radial-gradient-21" cx="430.01" cy="44.33" r="13.69" gradientUnits="userSpaceOnUse"><stop offset="0" stop-color="#4188d4"/><stop offset="0.99" stop-color="#0a45d9"/></radialGradient><radialGradient id="radial-gradient-22" cx="430.01" cy="60.59" r="3.83" xlink:href="#radial-gradient-2"/><radialGradient id="radial-gradient-23" cx="452.48" cy="-6511.84" r="4.03" xlink:href="#radial-gradient-3"/><radialGradient id="radial-gradient-24" cx="429.04" cy="63.41" r="7.87" xlink:href="#radial-gradient-5"/><radialGradient id="radial-gradient-25" cx="430.67" cy="61.15" r="2.42" xlink:href="#radial-gradient-5"/><radialGradient id="radial-gradient-26" cx="176.05" cy="75.79" r="2.02" xlink:href="#radial-gradient-5"/><radialGradient id="radial-gradient-27" cx="167.9" cy="75.9" r="2.18" xlink:href="#radial-gradient-5"/><radialGradient id="radial-gradient-28" cx="385.06" cy="66.8" r="0.8" gradientTransform="matrix(-1, -0.06, -0.06, 1, 814.16, 22.72)" xlink:href="#radial-gradient-2"/><radialGradient id="radial-gradient-29" cx="430.04" cy="74.43" r="4.16" xlink:href="#radial-gradient-13"/><radialGradient id="radial-gradient-30" cx="470.05" cy="73.07" r="2.51" gradientTransform="translate(-252.37) scale(1.45 1)" xlink:href="#radial-gradient-5"/><radialGradient id="radial-gradient-31" cx="173.31" cy="88.55" r="2.36" xlink:href="#radial-gradient-5"/><radialGradient id="radial-gradient-32" cx="175.76" cy="89.49" r="2.26" xlink:href="#radial-gradient-5"/><radialGradient id="radial-gradient-33" cx="167.56" cy="89.22" r="2.12" xlink:href="#radial-gradient-5"/><radialGradient id="radial-gradient-34" cx="401.18" cy="36.24" r="13.11" xlink:href="#radial-gradient-2"/><radialGradient id="radial-gradient-35" cx="416.84" cy="24.23" r="30.62" gradientTransform="matrix(1, 0, 0, 1, 0, 0)" xlink:href="#radial-gradient-6"/><radialGradient id="radial-gradient-36" cx="151.79" cy="64.15" r="11.07" xlink:href="#radial-gradient-2"/><radialGradient id="radial-gradient-37" cx="156.75" cy="113.61" r="29.27" gradientUnits="userSpaceOnUse"><stop offset="0" stop-color="#92e2ff"/><stop offset="1" stop-color="#5c8fff"/></radialGradient><radialGradient id="radial-gradient-38" cx="418.85" cy="81.6" r="20.44" gradientTransform="matrix(1, 0, 0, 1, 0, 0)" xlink:href="#radial-gradient-6"/><radialGradient id="radial-gradient-39" cx="388.32" cy="83.32" r="9.56" xlink:href="#radial-gradient-2"/><radialGradient id="radial-gradient-40" cx="411.37" cy="94.44" r="18.18" gradientTransform="translate(-225.99 13.75) scale(0.93 1)" xlink:href="#radial-gradient-13"/><radialGradient id="radial-gradient-41" cx="414.52" cy="94.09" r="14.07" gradientTransform="translate(-225.99 13.75) scale(0.93 1)" xlink:href="#radial-gradient-5"/><radialGradient id="radial-gradient-42" cx="393.65" cy="133.17" r="32.16" gradientUnits="userSpaceOnUse"><stop offset="0" stop-color="#4e71b7"/><stop offset="1" stop-color="#2f39a7"/></radialGradient><radialGradient id="radial-gradient-43" cx="393.74" cy="133.42" r="28.53" xlink:href="#radial-gradient-2"/><radialGradient id="radial-gradient-44" cx="414.57" cy="105.02" r="37.95" xlink:href="#radial-gradient-5"/><radialGradient id="radial-gradient-45" cx="418.24" cy="133.49" r="33.54" xlink:href="#radial-gradient-13"/><radialGradient id="radial-gradient-46" cx="412.98" cy="128.76" r="21.84" gradientUnits="userSpaceOnUse"><stop offset="0" stop-color="#89e0ff"/><stop offset="1" stop-color="#5599eb"/></radialGradient><radialGradient id="radial-gradient-47" cx="410.87" cy="130.2" r="17" xlink:href="#radial-gradient-2"/><radialGradient id="radial-gradient-48" cx="422.58" cy="102.55" r="14.91" xlink:href="#radial-gradient-13"/><radialGradient id="radial-gradient-49" cx="422.88" cy="102.55" r="14.91" xlink:href="#radial-gradient-5"/><radialGradient id="radial-gradient-50" cx="422.81" cy="104.18" r="12.49" xlink:href="#radial-gradient-42"/><radialGradient id="radial-gradient-51" cx="422.25" cy="104.87" r="11.6" xlink:href="#radial-gradient-2"/><radialGradient id="radial-gradient-52" cx="423.31" cy="114.32" r="2.24" gradientTransform="translate(0.24 -0.88) rotate(0.12)" xlink:href="#radial-gradient-5"/><radialGradient id="radial-gradient-53" cx="166.31" cy="128.15" r="2.61" xlink:href="#radial-gradient-13"/><radialGradient id="radial-gradient-54" cx="422.14" cy="104.36" r="11.98" gradientUnits="userSpaceOnUse"><stop offset="0" stop-color="#d6ffe8"/><stop offset="1" stop-color="#92bcff"/></radialGradient><radialGradient id="radial-gradient-55" cx="401.91" cy="102.61" r="14.89" xlink:href="#radial-gradient-13"/><radialGradient id="radial-gradient-56" cx="402.2" cy="102.61" r="14.89" xlink:href="#radial-gradient-5"/><radialGradient id="radial-gradient-57" cx="402.13" cy="104.24" r="12.47" xlink:href="#radial-gradient-42"/><radialGradient id="radial-gradient-58" cx="401.58" cy="104.92" r="11.58" xlink:href="#radial-gradient-2"/><radialGradient id="radial-gradient-59" cx="145.84" cy="128.11" r="2.24" xlink:href="#radial-gradient-5"/><radialGradient id="radial-gradient-60" cx="145.63" cy="128.2" r="2.61" xlink:href="#radial-gradient-13"/><radialGradient id="radial-gradient-61" cx="401.53" cy="104.42" r="11.96" xlink:href="#radial-gradient-54"/><radialGradient id="radial-gradient-62" cx="391.88" cy="83.99" r="0.04" gradientTransform="matrix(1, 0, 0, 1, 0, 0)" xlink:href="#radial-gradient-6"/><radialGradient id="radial-gradient-63" cx="159.73" cy="140.52" r="32.22" xlink:href="#radial-gradient-5"/><radialGradient id="radial-gradient-64" cx="131.06" cy="141.23" r="23.55" xlink:href="#radial-gradient-13"/><radialGradient id="radial-gradient-65" cx="396.92" cy="88.6" r="13.24" gradientTransform="matrix(1, 0, 0, 1, 0, 0)" xlink:href="#radial-gradient"/><radialGradient id="radial-gradient-66" cx="395.71" cy="94.69" r="3.86" xlink:href="#radial-gradient-2"/><radialGradient id="radial-gradient-67" cx="445.78" cy="-6507.2" r="2.46" gradientTransform="translate(-252.37 35716.57) scale(1.45 5.47)" xlink:href="#radial-gradient-54"/><radialGradient id="radial-gradient-68" cx="446.68" cy="107.42" r="4.23" gradientTransform="translate(-252.37) scale(1.45 1)" xlink:href="#radial-gradient-13"/><radialGradient id="radial-gradient-69" cx="446.13" cy="107.3" r="2.46" gradientTransform="translate(-252.37) scale(1.45 1)" xlink:href="#radial-gradient-5"/><radialGradient id="radial-gradient-70" cx="444.99" cy="104.46" r="2.54" gradientTransform="translate(-509.16 13.75) scale(1.45 1)" xlink:href="#radial-gradient-2"/><radialGradient id="radial-gradient-71" cx="394.68" cy="97.5" r="7.86" xlink:href="#radial-gradient-5"/><radialGradient id="radial-gradient-72" cx="446.74" cy="103.68" r="5.44" xlink:href="#radial-gradient-6"/><radialGradient id="radial-gradient-73" cx="447.62" cy="104.28" r="1.24" xlink:href="#radial-gradient-7"/><radialGradient id="radial-gradient-74" cx="443.93" cy="104.3" r="1.23" xlink:href="#radial-gradient-7"/><radialGradient id="radial-gradient-75" cx="396.37" cy="95.25" r="2.42" xlink:href="#radial-gradient-5"/><radialGradient id="radial-gradient-76" cx="141.77" cy="109.9" r="2.01" xlink:href="#radial-gradient-5"/><radialGradient id="radial-gradient-77" cx="133.53" cy="109.98" r="2.18" xlink:href="#radial-gradient-5"/><radialGradient id="radial-gradient-78" cx="396.37" cy="100.44" r="0.85" xlink:href="#radial-gradient-2"/><radialGradient id="radial-gradient-79" cx="417.5" cy="102.75" r="0.79" gradientTransform="matrix(-1, -0.06, -0.06, 1, 814.16, 22.72)" xlink:href="#radial-gradient-2"/><radialGradient id="radial-gradient-80" cx="380.52" cy="90.57" r="10.8" gradientTransform="matrix(1, 0, 0, 1, 0, 0)" xlink:href="#radial-gradient-6"/><radialGradient id="radial-gradient-81" cx="380.52" cy="103.4" r="3.06" xlink:href="#radial-gradient-2"/><radialGradient id="radial-gradient-82" cx="379.12" cy="111.19" r="26.9" xlink:href="#radial-gradient-5"/><radialGradient id="radial-gradient-83" cx="381.05" cy="103.85" r="1.92" xlink:href="#radial-gradient-5"/><radialGradient id="radial-gradient-84" cx="125.98" cy="118.31" r="1.59" xlink:href="#radial-gradient-5"/><radialGradient id="radial-gradient-85" cx="119.45" cy="118.37" r="1.72" xlink:href="#radial-gradient-5"/><radialGradient id="radial-gradient-86" cx="381.03" cy="107.95" r="0.67" xlink:href="#radial-gradient-2"/><radialGradient id="radial-gradient-87" cx="431.43" cy="110.75" r="0.63" gradientTransform="matrix(-1, -0.06, -0.06, 1, 814.16, 22.72)" xlink:href="#radial-gradient-2"/><radialGradient id="radial-gradient-88" cx="438.03" cy="90.7" r="13.05" gradientTransform="matrix(1, 0, 0, 1, 0, 0)" xlink:href="#radial-gradient"/><radialGradient id="radial-gradient-89" cx="436.22" cy="94.56" r="3.91" xlink:href="#radial-gradient-2"/><radialGradient id="radial-gradient-90" cx="475.36" cy="-6507.2" r="2.47" gradientTransform="translate(-252.37 35716.57) scale(1.45 5.47)" xlink:href="#radial-gradient-54"/><radialGradient id="radial-gradient-91" cx="475.16" cy="107.33" r="4.28" gradientTransform="translate(-252.37) scale(1.45 1)" xlink:href="#radial-gradient-13"/><radialGradient id="radial-gradient-92" cx="474.58" cy="107.22" r="2.51" gradientTransform="translate(-252.37) scale(1.45 1)" xlink:href="#radial-gradient-5"/><radialGradient id="radial-gradient-93" cx="473.32" cy="104.37" r="2.56" gradientTransform="translate(-509.16 13.75) scale(1.45 1)" xlink:href="#radial-gradient-2"/><radialGradient id="radial-gradient-94" cx="435.71" cy="97.38" r="7.89" xlink:href="#radial-gradient-5"/><radialGradient id="radial-gradient-95" cx="475.16" cy="103.58" r="5.46" xlink:href="#radial-gradient-6"/><radialGradient id="radial-gradient-96" cx="476.02" cy="104.19" r="1.23" xlink:href="#radial-gradient-7"/><radialGradient id="radial-gradient-97" cx="472.17" cy="104.19" r="1.23" xlink:href="#radial-gradient-7"/><radialGradient id="radial-gradient-98" cx="436.93" cy="95.13" r="2.41" xlink:href="#radial-gradient-5"/><radialGradient id="radial-gradient-99" cx="182.41" cy="109.78" r="2.01" xlink:href="#radial-gradient-5"/><radialGradient id="radial-gradient-100" cx="174.07" cy="109.85" r="2.19" xlink:href="#radial-gradient-5"/><radialGradient id="radial-gradient-101" cx="437.26" cy="100.34" r="0.85" xlink:href="#radial-gradient-2"/><radialGradient id="radial-gradient-102" cx="376.74" cy="100.34" r="0.8" gradientTransform="matrix(-1, -0.06, -0.06, 1, 814.16, 22.72)" xlink:href="#radial-gradient-2"/><radialGradient id="radial-gradient-103" cx="157.92" cy="137.2" r="13.9" xlink:href="#radial-gradient-5"/><linearGradient id="Безымянный_градиент_192" x1="149.95" y1="160.16" x2="149.95" y2="137.49" gradientUnits="userSpaceOnUse"><stop offset="0" stop-color="#cf568b"/><stop offset="1" stop-color="#fff"/></linearGradient><radialGradient id="radial-gradient-104" cx="416.7" cy="122.08" r="29.54" xlink:href="#radial-gradient-5"/><radialGradient id="radial-gradient-105" cx="416.84" cy="124.77" r="26.25" xlink:href="#radial-gradient-13"/><radialGradient id="radial-gradient-106" cx="415.74" cy="144.38" r="10.94" gradientUnits="userSpaceOnUse"><stop offset="0" stop-color="#5240b5"/><stop offset="0.99" stop-color="#2a0086"/></radialGradient><radialGradient id="radial-gradient-107" cx="405.33" cy="42.82" r="17.68" xlink:href="#radial-gradient-2"/><radialGradient id="radial-gradient-108" cx="155.02" cy="83.14" r="17.74" xlink:href="#radial-gradient-37"/><radialGradient id="radial-gradient-109" cx="412.41" cy="-3751.39" r="10.88" gradientTransform="translate(0 7168.73) scale(1 1.9)" xlink:href="#radial-gradient"/><radialGradient id="radial-gradient-110" cx="412.08" cy="69.65" r="22.88" xlink:href="#radial-gradient-13"/><radialGradient id="radial-gradient-111" cx="412.53" cy="69.65" r="22.88" xlink:href="#radial-gradient-5"/><radialGradient id="radial-gradient-112" cx="412.42" cy="72.16" r="19.16" xlink:href="#radial-gradient-42"/><radialGradient id="radial-gradient-113" cx="411.57" cy="73.21" r="17.79" xlink:href="#radial-gradient-2"/><radialGradient id="radial-gradient-114" cx="156.39" cy="101.46" r="3.42" xlink:href="#radial-gradient-5"/><radialGradient id="radial-gradient-115" cx="156.07" cy="101.6" r="3.98" xlink:href="#radial-gradient-13"/><radialGradient id="radial-gradient-116" cx="411.45" cy="72.44" r="18.38" xlink:href="#radial-gradient-54"/><radialGradient id="radial-gradient-117" cx="402.16" cy="-3072.23" r="9.13" gradientTransform="translate(0 5017.55) scale(1 1.63)" gradientUnits="userSpaceOnUse"><stop offset="0" stop-color="#5379e3"/><stop offset="0.99" stop-color="#3221f0"/></radialGradient><radialGradient id="radial-gradient-118" cx="401.28" cy="23.14" r="2.97" xlink:href="#radial-gradient-2"/><radialGradient id="radial-gradient-119" cx="440.08" cy="-6522.61" r="1.02" xlink:href="#radial-gradient-3"/><radialGradient id="radial-gradient-120" cx="400.49" cy="25.34" r="6.15" xlink:href="#radial-gradient-5"/><radialGradient id="radial-gradient-121" cx="401.78" cy="23.57" r="1.89" xlink:href="#radial-gradient-5"/><radialGradient id="radial-gradient-122" cx="146.66" cy="38.01" r="1.58" xlink:href="#radial-gradient-5"/><radialGradient id="radial-gradient-123" cx="140.36" cy="38.12" r="1.7" xlink:href="#radial-gradient-5"/><radialGradient id="radial-gradient-124" cx="427.44" cy="30.07" r="0.62" gradientTransform="translate(-25.14 -6.26) rotate(0.64)" xlink:href="#radial-gradient-2"/><radialGradient id="radial-gradient-125" cx="401.21" cy="33.95" r="3.23" xlink:href="#radial-gradient-13"/><radialGradient id="radial-gradient-126" cx="450.3" cy="32.88" r="1.94" gradientTransform="translate(-252.37) scale(1.45 1)" xlink:href="#radial-gradient-5"/><radialGradient id="radial-gradient-127" cx="144.46" cy="47.98" r="1.85" xlink:href="#radial-gradient-5"/><radialGradient id="radial-gradient-128" cx="146.35" cy="48.7" r="1.77" xlink:href="#radial-gradient-5"/><radialGradient id="radial-gradient-129" cx="140.01" cy="48.52" r="1.66" xlink:href="#radial-gradient-5"/><radialGradient id="radial-gradient-130" cx="165.93" cy="156.17" r="31.27" xlink:href="#radial-gradient-5"/><linearGradient id="Безымянный_градиент_274-3" x1="131.61" y1="164.34" x2="131.61" y2="141.47" xlink:href="#Безымянный_градиент_274"/><radialGradient id="Безымянный_градиент_272-6" cx="386.23" cy="139.15" r="15.28" xlink:href="#Безымянный_градиент_272"/><radialGradient id="Безымянный_градиент_272-7" cx="129.44" cy="158.83" r="13.53" xlink:href="#Безымянный_градиент_272"/><filter id="luminosity-noclip-2" x="352.18" y="7.68" width="124.35" height="251.14" filterUnits="userSpaceOnUse" color-interpolation-filters="sRGB"><feFlood flood-color="#fff" result="bg"/><feBlend in="SourceGraphic" in2="bg"/></filter><mask id="mask-2" x="95.38" y="21.43" width="124.35" height="251.14" maskUnits="userSpaceOnUse"><g class="cls-192"><g transform="translate(-256.8 13.75)"><g class="cls-1"><path class="cls-2" d="M463.16,160.62l13.37-13.05V146.3c-5.26-1.44-16.13-2.09-24.93-2.37l-3.52-8-1.79-.43-1,.43-1.77-5.23-.81-2.39-.95-2.81h-.6l-1.78-6-.71-2.41-.95-3.19-.57-.12-.09-2.07-.05-1.39s0-.67,2.34-.94l.11-1.87h0l-.07-2.88a1.84,1.84,0,0,0-.87-1l-.23-5,1.52-2.8.06,0a9.73,9.73,0,0,0,1.06-.39l-2.37-2.11a95.69,95.69,0,0,1-4.86-18.52c-.45,4.79-1,9.26-1.71,13.29l0-8.78h0v-.58l.94-3.55v-1.5a6.84,6.84,0,0,0-1.19-.5l.13-8.53h0l1.63-2.8h0a11.27,11.27,0,0,0,1.09-.4l-2.2-2.11a127.72,127.72,0,0,1-3.79-18.49c-1.19,7.27-2.11,14-3.81,18.49l-1.53,2.43.71.23,1.13,3-.26,8.3c-.36.12-.72.25-1.09.41V75l.91,3.23c-.06,2-.15,4.93-.26,8.41-.49-1.68-.85-3.53-1.35-6l-3.16-.2-.61-16.08,1.87-.93-2-1.37-.39-10.34,4.94-3.2-5-4C414,34.05,409,19.41,409,19.41a127,127,0,0,1-6.27,18.25v-.41l.75-2.77V33.31a5.76,5.76,0,0,0-.91-.39l.15-6.66h0L404,24.07h0a8.72,8.72,0,0,0,.84-.31l-1.69-1.64a99.87,99.87,0,0,1-2.81-14.43c-1,5.67-1.73,10.89-3.07,14.44l-1.2,1.9.55.18.86,2.37-.26,6.48a9,9,0,0,0-.85.32v1l.68,2.51c-.14,3.77-.41,11-.45,12.29l-3.24,3.86,1.88.09,2.31,1.79L396,79.82l-.76.17c-.26-1.61-.51-3.29-.73-5-.32,1.85-.63,3.66-.94,5.4l-2.12.46c-.38,1.46-.72,2.66-1.07,3.73l.12-13h0V70.9l1-3.53v-1.5l0-3a2.64,2.64,0,0,0-1.07-1l.11-4.93,1.67-2.79,0,0c.68-.22,1.08-.4,1.08-.4l-2.16-2.1a125.78,125.78,0,0,1-3.57-18.43c-1.27,7.24-2.27,13.9-4,18.43L382.08,54l.7.23,1.1,3-.21,4.84a4.07,4.07,0,0,0-.89.88l-.36,3v1.32l.87,3.22c-.25,5.52-.79,18.11-1.3,30-.29-1.18-.57-2.4-.83-3.68-.53-2.7-1-5.64-1.48-9-.59,3.09-1.11,6-1.68,8.57-.49,2.05-1,4-1.58,6l-1.26,1.92.57.18.87,2.4,0,.47h0l-1.26,29.19-.81,1.12c-2.68-.26-4.93-.45-5.86-.45-3.11,0-16.47,1.75-16.47,1.75l2.31,10.5a9.76,9.76,0,0,0,3.08,3.56h0a15.07,15.07,0,0,0,3.41,1.89h3.29l.74,3.82-.16.88-.58,3,10.4,18.66,4.34,1.17,3.08-1.69,9.65-2.44,2.55-2,1.91,3.82-3.77,2.44-7,4.56.53.75c.44.62,1.09,1.56,1.76,2.53l-1.24-.19,4.14,4.46c2.39,2.84,9,9.32,9,9.32L396,209.42l2.52,8.25.82,2.67L403.23,233l-1.8,1.7-1.9,17.63-1,1.67-1.41,2.39,2-.12,4.74,2.59,10.48-3.58,3.2-18.56,2.53-2.67,2-2.09,1.26-1.06-.42.18.48-.51.76-1,7.49-9.84.87-1.15-.95-.85,6.74-5.66,2.22-1.85,10.77-9-2.76-1.8,10.72-10.5,3.6-.85a45.82,45.82,0,0,0,4.63-3l.07,0,.42-.35a55,55,0,0,0,4.93-4.15,31.13,31.13,0,0,0,3.64-3.77v-2L462,163.91l.86-2.43ZM396.7,34.29l-.11,0h0l.11,0a3.5,3.5,0,0,1,.44-.13Zm-14,32.86h0l.3-.09ZM402,79.33h0Zm22.1-4.42h0c.16-.05.4-.13.7-.21Zm8.05,41.35,0-6.7a2.53,2.53,0,0,1,.83.68l0,3.46,0,3Z"/></g></g></g></mask><linearGradient id="linear-gradient-2" x1="414.36" y1="258.82" x2="414.36" y2="7.68" gradientUnits="userSpaceOnUse"><stop offset="0" stop-color="#191e5b"/><stop offset="0.15" stop-color="#2a3164"/><stop offset="0.45" stop-color="#55617c"/><stop offset="0.88" stop-color="#9baea3"/><stop offset="1" stop-color="#afc5ae"/></linearGradient><radialGradient id="radial-gradient-131" cx="591.77" cy="11345.84" r="198.95" gradientTransform="translate(0 -4686.72) scale(1 0.41)" gradientUnits="userSpaceOnUse"><stop offset="0" stop-color="#88baea"/><stop offset="1" stop-color="#839eef"/></radialGradient><radialGradient id="radial-gradient-132" cx="497.48" cy="50.61" r="121.34" gradientUnits="userSpaceOnUse"><stop offset="0" stop-color="#fff"/><stop offset="1" stop-color="#d9edff"/></radialGradient><linearGradient id="linear-gradient-3" x1="328.55" y1="11571.9" x2="479.6" y2="11571.9" gradientTransform="translate(0 -4686.72) scale(1 0.41)" gradientUnits="userSpaceOnUse"><stop offset="0" stop-color="#83a1ef"/><stop offset="0.4" stop-color="#abc4f6"/><stop offset="0.79" stop-color="#cce1fd"/><stop offset="1" stop-color="#d9ecff"/></linearGradient><radialGradient id="radial-gradient-133" cx="442.86" cy="95.23" r="4.94" gradientTransform="matrix(1, 0, 0, 1, 0, 0)" xlink:href="#radial-gradient-131"/><radialGradient id="radial-gradient-134" cx="310.36" cy="11556.1" r="8.37" gradientTransform="matrix(1, 0.06, -0.02, 0.41, 288.69, -4688.89)" xlink:href="#radial-gradient-131"/><radialGradient id="radial-gradient-135" cx="463.69" cy="11513.61" r="6.68" gradientTransform="matrix(1, -0.07, 0.03, 0.41, -343.44, -4627.93)" gradientUnits="userSpaceOnUse"><stop offset="0" stop-color="#b5dbff"/><stop offset="1" stop-color="#ccd9ff"/></radialGradient><radialGradient id="radial-gradient-136" cx="316.39" cy="51.63" r="26.69" xlink:href="#radial-gradient-132"/><radialGradient id="radial-gradient-137" cx="360.74" cy="11379.06" r="72.39" xlink:href="#radial-gradient-131"/><radialGradient id="radial-gradient-138" cx="360.67" cy="11391.55" r="64.47" gradientTransform="translate(0 -4686.72) scale(1 0.41)" xlink:href="#radial-gradient-132"/><radialGradient id="radial-gradient-139" cx="249.98" cy="11218.79" r="28.4" gradientTransform="matrix(0.9, 0.44, -0.18, 0.37, 2083.43, -4245.65)" xlink:href="#radial-gradient-131"/><radialGradient id="radial-gradient-140" cx="268.25" cy="11423.54" r="11.51" gradientTransform="translate(0 -4686.72) scale(1 0.41)" xlink:href="#radial-gradient-132"/></defs><g class="cls-4"><g id="canyon"><g class="cls-5"><path class="cls-6" d="M463.16,160.62,462,163.91l14.53,10.82v2A53.52,53.52,0,0,1,462.84,188l-3.6.85-10.72,10.5,2.76,1.8-19.73,16.55.95.85-.87,1.15-8.25,10.84-3.3,3.48-2.53,2.66-3.2,18.57-10.48,3.58-4.74-2.59-2,.12,1.41-2.39,1-1.67,1.9-17.63,1.8-1.7L396,209.42l3.61-5.41s-8.7-8.49-9.77-10.3c-.79-1.36-2.93-4.41-3.92-5.82h0l-.53-.75,7-4.56,3.77-2.44-1.91-3.82-2.55,2-9.65,2.44L379,182.47l-4.34-1.17-10.4-18.66.58-3,.16-.88-.74-3.82H361s-4.77-1.72-6.52-5.46l-2.31-10.5s13.36-1.75,16.47-1.75,20.68,2.07,20.68,2.07l-.31-2.07s18.61,1.59,26.09,2.7,23.23,3.82,23.23,3.82,28.53,0,38.19,2.6v1.27Z" transform="translate(-256.8 13.75)"/><polygon class="cls-7" points="219.73 161.33 198.41 163.87 178.79 165.89 164.25 168.88 158.63 168.88 144.1 159.1 134.24 154.22 132.22 150.93 134.13 157.3 158.42 169.81 167.76 170.77 178.57 169.81 185.07 172.47 192.9 176.6 203.61 178.72 205.2 177.66 206.37 174.38 219.73 161.33"/><polygon class="cls-8" points="134.24 191.46 137.52 190.07 134.98 192.09 125.33 194.53 122.25 196.23 117.9 195.06 107.51 176.39 113.76 184.56 120.02 186.78 134.24 191.46"/><polygon class="cls-9" points="163.29 247.76 160.75 250.43 157.56 268.99 147.07 272.57 142.33 269.98 141.75 267.71 142.74 266.04 144.63 248.42 148.89 251.81 151.21 251.81 163.29 247.76"/><path class="cls-10" d="M476.53,176.75A53.52,53.52,0,0,1,462.84,188l-3.6.85-10.72,10.5-8.06-1.54-14.9,1.5,5.14,1h12.2l8.38.84-19.73,16.55-3.82-.32-4.24,3.29-7,2.55,10-1.17,5.17-2.35-8.25,10.84-3.3,3.48-4,.65-8.71.85L403.23,233,396,209.42l2.22,2.11,15.12-1.9,9.92-4.46,5.72-4h-3.92l-4.13,1-12.2,3.07-7.43,1.06L399.63,204s-8.7-8.49-9.77-10.3c-.79-1.36-2.93-4.41-3.92-5.82l6.47,1.48,2.12,1.11,11.14-.79,21.21-5.6-12.53-1.51-11.33.74-8.91-.74h-1.65l3.77-2.44-1.91-3.82-2.44-2.12-17.39-6.15-9.61-8.46.16-.88-.74-3.82H361s-4.77-1.72-6.52-5.46l-2.31-10.5,2.47,4.82,10.66,8.38,29.75,13.58,11.88,3.18L436,170.38l16.54,9.87H461Z" transform="translate(-256.8 13.75)"/><polygon class="cls-11" points="206.37 174.38 194.7 171.93 187.27 168.88 190.14 165.89 203.4 164.83 209.6 162.54 187.27 165.02 178.79 165.89 167.76 170.77 178.57 169.81 191.84 176.39 203.61 178.72 205.2 177.66 206.37 174.38"/><path class="cls-12" d="M452.55,180.25,446.72,190l-14,6.77-8.22.66,2.33-13.34-20.52,5.41-1,12.49-2.86,3-2.86-1,1.69,2.22,7.43-1.06,16.33-4,.48-1.84,14.9-1.5,8.06,1.54,10.72-10.5,3.6-.85s9.44-5.83,13.69-11.24L461,180.25Z" transform="translate(-256.8 13.75)"/><polygon class="cls-13" points="172.21 214.9 170.94 231.13 166.7 234.42 164.52 223.97 166.48 218.93 172.21 214.9"/><polygon class="cls-14" points="169.66 235.79 163.29 247.76 167.34 243.29 174.83 233.45 169.66 235.79"/><polygon class="cls-15" points="151.21 251.81 147.07 272.57 157.56 268.99 160.75 250.43 163.29 247.76 151.21 251.81"/><polygon class="cls-16" points="178.57 169.81 182.75 165.48 178.79 165.89 164.25 168.88 158.63 168.88 158.42 169.81 167.76 170.77 178.57 169.81"/><polygon class="cls-17" points="179.21 184.14 170.09 197.84 157.56 196.33 155.18 184.6 149.6 184.14 139.01 179.66 150.15 182.65 179.21 184.14"/><polygon class="cls-18" points="189.93 203.76 201.13 200.97 206.05 201.74 202.44 202.59 191.73 213.09 183.66 211.56 168.76 213.05 175.98 210.52 189.93 203.76"/><polygon class="cls-19" points="148.56 215.74 161.95 214.9 168.29 214.9 152.64 218.75 144.52 219.99 142.83 217.76 145.69 218.72 148.56 215.74"/><polygon class="cls-14" points="169.66 235.79 163.29 247.76 174.83 233.45 169.66 235.79"/><polygon class="cls-20" points="147.07 272.57 151.21 251.81 155.8 248.76 159.7 236.96 156.56 223.38 166.48 218.93 172.21 214.9 168.29 214.9 144.52 219.99 148.56 215.74 149.57 203.26 170.09 197.84 157.56 196.33 155.18 184.6 179.21 184.14 195.76 194 204.25 194 219.73 190.5 206.05 201.74 202.44 202.59 191.73 213.09 183.66 211.56 174.83 212.44 180.23 214.05 194.48 214.9 174.75 231.44 170.94 231.13 165.87 234.63 163.29 236.54 169.66 235.79 174.83 233.45 163.29 247.76 160.75 250.43 157.56 268.99 147.07 272.57"/><polygon class="cls-21" points="129.66 203.98 149.57 207.03 169.06 205.24 182.75 199.49 193.46 197.84 214.66 195.52 210.75 198.78 197.8 200.97 190.58 202.66 185.46 202.66 168.6 206.5 148.88 211.78 137.52 212.45 129.66 203.98"/><polygon class="cls-21" points="139.94 214.9 148.67 214.33 168.01 208.93 183.17 207.03 201.02 203.98 199.47 205.24 184.51 207.03 182.13 207.54 167.76 210 148.56 215.74 143.73 215.74 141.4 216.36 139.94 214.9"/><polygon class="cls-21" points="141.75 231.42 156.73 232.49 166.46 230.12 172.21 223.93 183.71 223.93 178.61 228.21 171.81 227.63 166.4 231.84 159.11 234.41 142.66 234.41 141.75 231.42"/><polygon class="cls-21" points="145.53 243.77 156.43 246.85 164.52 245.44 166.52 244.62 165.27 245.67 164.07 246.31 156.03 247.76 145.83 244.75 145.53 243.77"/><polygon class="cls-22" points="132.22 150.93 134.24 154.22 144.1 159.1 158.63 168.88 164.25 168.88 179.21 165.85 182.75 165.48 181.54 157.46 146.36 152.25 132.22 150.93"/><polygon class="cls-23" points="134.24 191.46 122 193.32 117.9 195.06 122.25 196.23 125.33 194.53 134.98 192.09 137.52 190.07 134.24 191.46"/><polygon class="cls-24" points="107.51 168.65 107.51 165.48 104.3 162.58 103.63 167.61 100.78 166.74 104.22 168.65 107.51 168.65"/><polygon class="cls-25" points="115.06 168.88 137.52 175.63 151.38 177.53 160.7 183.19 150.15 182.65 137.52 179.66 115.06 168.88"/><polygon class="cls-26" points="139.43 193.89 148.48 195.52 137.52 190.07 139.43 193.89"/><polygon class="cls-27" points="195.73 159.8 191.29 149.65 189.5 149.21 188.53 149.65 185 139.22 184.41 139.22 180.97 127.57 179.71 127.32 178.88 133.51 178.88 140.34 178.56 140.99 177.45 131.09 174.49 129.6 173.42 135.98 172.68 136.4 173.21 152.84 172.66 153.3 169.71 140.17 166.97 139.08 165.15 138.46 163.38 159.72 195.73 159.8"/><polygon class="cls-28" points="193.71 159.59 190.4 159.16 189.5 149.21 188.53 149.65 186.83 152.84 185.87 152.84 183.87 141.53 185 139.22 184.41 139.22 181.44 142.74 180.84 142.7 179.56 130.99 179.71 127.32 178.88 133.51 178.88 140.34 178.56 140.99 178.56 155.36 177.18 157.05 174.37 138.46 174.79 130.67 174.49 129.6 173.42 135.98 174.48 141.91 174.99 151.63 173.62 152.84 172.68 136.4 173.21 152.84 172.66 153.3 171.88 155.59 169.65 156.81 165.99 138.75 165.15 138.46 163.38 159.72 185.14 159.77 195.73 159.8 193.71 159.59"/><polygon class="cls-29" points="183.87 141.53 181.44 142.74 181.44 147.96 182.22 148.51 183.87 159.77 186.26 159.77 195.73 159.8 190.4 159.16 189.5 149.21 188.53 149.65 186.83 152.84 185.87 152.84 183.87 141.53"/><polygon class="cls-30" points="179.56 130.99 180.84 142.7 181.44 142.74 181.44 147.96 179.28 152.08 178.59 159.75 176.83 159.75 177.18 157.05 178.56 155.36 178.56 140.99 178.88 140.34 178.88 133.51 179.56 130.99"/><polygon class="cls-31" points="174.37 138.46 174.16 140.13 174.48 141.91 174.99 151.63 175.83 159.24 176.83 159.75 177.18 157.05 174.37 138.46"/><polygon class="cls-32" points="173.62 152.84 172.93 153.83 173.62 159.24 169.65 159.03 169.65 156.81 171.88 155.59 172.66 153.3 173.21 152.84 173.62 152.84"/><polygon class="cls-33" points="192.68 152.84 189.78 152.26 189.88 153.38 193.12 153.83 192.68 152.84"/><polygon class="cls-33" points="194.08 156.04 189.96 154.33 189.99 154.66 194.24 156.39 194.08 156.04"/><polygon class="cls-34" points="185.96 142.03 184.93 147.54 185.44 150.4 186.76 144.41 185.96 142.03"/><polygon class="cls-34" points="181.91 130.76 179.87 133.84 180.58 140.34 183.45 135.98 181.91 130.76"/><polygon class="cls-34" points="174.79 141.21 178.17 137.49 178.56 140.99 176.04 149.53 174.79 141.21"/><path class="cls-35" d="M393.38,53.66l-2.16-2.1a125.78,125.78,0,0,1-3.57-18.43c-1.27,7.24-2.27,13.9-4,18.43L382.08,54A13.08,13.08,0,0,1,393.38,53.66Z" transform="translate(-256.8 13.75)"/><path class="cls-36" d="M382.08,54a12.58,12.58,0,0,1,11.3-.32A16.33,16.33,0,0,1,382.08,54Z" transform="translate(-256.8 13.75)"/><path class="cls-37" d="M390.56,67.58,390,126.67h-9.17s2.52-59.09,2.55-59.1A14.61,14.61,0,0,1,390.56,67.58Z" transform="translate(-256.8 13.75)"/><polygon class="cls-38" points="133.8 76.21 132.1 76.09 131.48 76.85 131.84 77.44 131.58 75.46 129.37 75.47 129.06 77.03 129.1 76.57 129.32 76.11 127.64 76.37 127.34 78.35 133.61 78.75 133.8 76.21"/><path class="cls-39" d="M383.51,65.58,384,54.52s3.6-1.72,6.65-.28L390.4,65Z" transform="translate(-256.8 13.75)"/><path class="cls-40" d="M382.42,65.92l.36-3a3.75,3.75,0,0,1,1.53-1.23l0,2.68,1.16-.26.12-2.85a4.44,4.44,0,0,1,3.16,0l-.06,2.93,1.31.17.27-2.68a2.59,2.59,0,0,1,1.32,1.15l0,3S388.67,64,382.42,65.92Z" transform="translate(-256.8 13.75)"/><polygon class="cls-41" points="133.44 75.45 132.91 75.67 132.7 78.07 133.17 78.13 133.44 75.45"/><polygon class="cls-42" points="127.52 75.48 128.02 75.79 127.92 78.07 127.47 78.17 127.52 75.48"/><path class="cls-43" d="M384,54.52l-1.1-.67s5.58-2.42,9.2-.06l-1.45.45A8.89,8.89,0,0,0,384,54.52Z" transform="translate(-256.8 13.75)"/><polygon class="cls-43" points="126.11 67.6 127.11 70.48 127.23 68.17 126.11 67.6"/><path class="cls-43" d="M388.08,52.76,388,56.44l1.3-3.63S388.32,52.75,388.08,52.76Z" transform="translate(-256.8 13.75)"/><path class="cls-44" d="M388,56.44h.74l1.74-3.4a7.66,7.66,0,0,0-1.18-.23Z" transform="translate(-256.8 13.75)"/><polygon class="cls-43" points="135.31 67.55 133.8 70.18 133.85 68 135.31 67.55"/><polygon class="cls-45" points="133.8 70.18 133.79 70.62 135.46 67.83 135.31 67.55 133.8 70.18"/><polygon class="cls-46" points="126.11 67.6 125.98 67.97 127.08 71 127.11 70.48 126.11 67.6"/><path class="cls-43" d="M384.83,61s0-2.37-.31-2.58-.5,2.88-.5,2.88Z" transform="translate(-256.8 13.75)"/><path class="cls-47" d="M384.43,61.15s-.14-1.78.27-2.18a13.8,13.8,0,0,1,.13,2Z" transform="translate(-256.8 13.75)"/><path class="cls-48" d="M382.08,54l1.55-2.42a8.27,8.27,0,0,1,7.59,0l2.16,2.1S387.52,50.63,382.08,54Z" transform="translate(-256.8 13.75)"/><path class="cls-49" d="M382.41,67.24l1,1.27a11.33,11.33,0,0,1,7.19-.25l1-.89S388.62,65.08,382.41,67.24Z" transform="translate(-256.8 13.75)"/><path class="cls-50" d="M382.41,67.24s5.23-2,9.11.13v-1.5s-3.7-2.23-9.11,0Z" transform="translate(-256.8 13.75)"/><polygon class="cls-43" points="125.61 80.99 126.48 84.22 126.57 82.26 125.61 80.99"/><polygon class="cls-43" points="130.69 80.15 130.67 83.52 131.45 80.18 130.69 80.15"/><polygon class="cls-43" points="134.73 81.12 133.75 84.66 133.76 82.02 134.73 81.12"/><polygon class="cls-51" points="131.45 80.18 132.74 80.38 131.74 83.77 130.67 83.52 131.45 80.18"/><polygon class="cls-52" points="133.75 84.66 133.75 83.76 134.73 81.12 133.75 84.66"/><polygon class="cls-53" points="126.48 84.22 125.61 80.99 125.87 80.9 126.51 83.54 126.48 84.22"/><path class="cls-54" d="M382.41,67.24l.87,3.22v1.59s4.35-2.19,7.27-.56V70.9l1-3.53S388.68,65.2,382.41,67.24Z" transform="translate(-256.8 13.75)"/><path class="cls-43" d="M390,100.81s.5-27.18-.4-28-1.28,28-1.28,28Z" transform="translate(-256.8 13.75)"/><polygon class="cls-55" points="133.63 96.31 125.62 104.22 124.07 140.43 133.24 140.43 133.63 96.31"/><path class="cls-54" d="M382.78,54.21l1.1,3,0,.6s4.26-1.58,6.74-1l1.67-2.79,1.12-.42a12,12,0,0,0-11.3.32Z" transform="translate(-256.8 13.75)"/><path class="cls-43" d="M382.58,100.81s.55-27.17,1.48-28,.2,28,.2,28Z" transform="translate(-256.8 13.75)"/><path class="cls-43" d="M385.09,100.8S385.94,72.51,387,72s.48,28.76.48,28.76Z" transform="translate(-256.8 13.75)"/><path class="cls-56" d="M383,100.81s.32-24.84,1.26-27.38c0,0,.57,9.19,0,27.37Z" transform="translate(-256.8 13.75)"/><path class="cls-57" d="M389.51,100.8s.65-24.84-.19-27.41c0,0-.93,9.18-1,27.37Z" transform="translate(-256.8 13.75)"/><path class="cls-58" d="M385.09,100.8s1-27.36,1.83-27.38c.69,0,.26,27.37.26,27.37Z" transform="translate(-256.8 13.75)"/><path class="cls-59" d="M434.64,61.39l-2.2-2.11a127.72,127.72,0,0,1-3.79-18.49c-1.19,7.27-2.11,14-3.81,18.49l-1.53,2.43S428.05,58.74,434.64,61.39Z" transform="translate(-256.8 13.75)"/><path class="cls-60" d="M423.31,61.71a12.58,12.58,0,0,1,11.33-.32A16.32,16.32,0,0,1,423.31,61.71Z" transform="translate(-256.8 13.75)"/><path class="cls-61" d="M432,75.34l.19,59.26H423s1.8-59.26,1.83-59.27A14.71,14.71,0,0,1,432,75.34Z" transform="translate(-256.8 13.75)"/><path class="cls-62" d="M424.89,73.34l.35-11.1s3.59-1.72,6.66-.27l-.16,11.34Z" transform="translate(-256.8 13.75)"/><path class="cls-43" d="M425.24,62.24l-1.11-.67s5.56-2.43,9.22,0L431.9,62A9,9,0,0,0,425.24,62.24Z" transform="translate(-256.8 13.75)"/><polygon class="cls-43" points="167.34 75.33 168.38 78.22 168.47 75.89 167.34 75.33"/><path class="cls-43" d="M429.31,60.48l-.08,3.7,1.25-3.64S429.55,60.47,429.31,60.48Z" transform="translate(-256.8 13.75)"/><path class="cls-63" d="M429.23,64.18H430l1.71-3.4a6.45,6.45,0,0,0-1.19-.23Z" transform="translate(-256.8 13.75)"/><polygon class="cls-43" points="176.56 75.27 175.09 77.92 175.11 75.72 176.56 75.27"/><polygon class="cls-64" points="175.09 77.92 175.08 78.36 176.72 75.56 176.56 75.27 175.09 77.92"/><polygon class="cls-65" points="167.34 75.33 167.22 75.69 168.36 78.73 168.38 78.22 167.34 75.33"/><path class="cls-43" d="M426.16,68.75s0-2.38-.35-2.59-.47,2.88-.47,2.88Z" transform="translate(-256.8 13.75)"/><path class="cls-66" d="M425.75,68.89s-.16-1.78.25-2.19a15,15,0,0,1,.16,2Z" transform="translate(-256.8 13.75)"/><path class="cls-48" d="M423.31,61.71l1.53-2.43a8.25,8.25,0,0,1,7.6,0l2.2,2.11S428.73,58.35,423.31,61.71Z" transform="translate(-256.8 13.75)"/><path class="cls-67" d="M423.8,75l1,1.28A11.3,11.3,0,0,1,432,76l1-.9S430,72.84,423.8,75Z" transform="translate(-256.8 13.75)"/><path class="cls-68" d="M423.8,75s5.23-2,9.14.14v-1.5s-3.74-2.24-9.13.05Z" transform="translate(-256.8 13.75)"/><polygon class="cls-43" points="167.01 88.75 167.92 91.99 167.98 90.02 167.01 88.75"/><polygon class="cls-43" points="172.09 87.91 172.1 91.29 172.84 87.94 172.09 87.91"/><polygon class="cls-43" points="176.14 88.89 175.2 92.43 175.19 89.78 176.14 88.89"/><polygon class="cls-69" points="172.84 87.94 174.14 88.14 173.18 91.54 172.1 91.29 172.84 87.94"/><polygon class="cls-70" points="175.2 92.43 175.2 91.53 176.14 88.89 175.2 92.43"/><polygon class="cls-71" points="167.92 91.99 167.01 88.75 167.26 88.66 167.94 91.31 167.92 91.99"/><path class="cls-54" d="M423.8,75l.91,3.24v1.6s4.34-2.2,7.28-.57v-.58l.94-3.55S430.07,73,423.8,75Z" transform="translate(-256.8 13.75)"/><path class="cls-54" d="M424,61.94l1.13,3,0,.6s4.25-1.57,6.75-1l1.63-2.8,1.13-.41a12,12,0,0,0-11.33.32Z" transform="translate(-256.8 13.75)"/><path class="cls-72" d="M395.13,53.05h-1.75L398,47.6a131.89,131.89,0,0,0,11-28.19l-3.33,26-3,2.2Z" transform="translate(-256.8 13.75)"/><path class="cls-73" d="M409,19.41s5,14.64,9.8,25.17l5,4-21.9-1.86,1.66-1.86S406.07,35.12,409,19.41Z" transform="translate(-256.8 13.75)"/><polygon class="cls-74" points="167 62.29 158.4 67.86 136.59 66.82 145.09 60.43 167 62.29"/><polygon class="cls-43" points="140.77 68.7 138.33 66.81 145.85 61.32 164.37 62.31 162.02 64.63 146.54 64.32 140.77 68.7"/><polygon class="cls-75" points="146.66 63.64 162.02 64.63 163.15 94.21 145.16 93.08 146.66 63.64"/><polygon class="cls-43" points="139.24 93.58 140.77 68.7 146.66 63.64 145.68 93.03 139.24 93.58"/><polygon class="cls-76" points="137.91 149.34 139.17 106.36 169.09 106.25 169.76 149.81 137.91 149.34"/><polygon class="cls-43" points="137.91 149.34 129 149.34 130.71 106.39 139.17 106.36 137.91 149.34"/><path class="cls-77" d="M423.1,80.66c1.07,5.28,1.5,7.75,4,11.83l3.29,1.31-36.32.13L396,92.08l3.19-12.93Z" transform="translate(-256.8 13.75)"/><path class="cls-78" d="M384.13,94l2.7-2.11c2.47-3.86,3.31-5.91,4.65-11l7.68-1.65A52.11,52.11,0,0,1,396,92.08l-1.92,1.85Z" transform="translate(-256.8 13.75)"/><polygon class="cls-79" points="172.05 107.56 172.06 109.28 169.18 111.26 139.89 111.36 130.49 110.96 129.05 108.72 128.86 107.71 138.12 107.68 172.05 107.56"/><polygon class="cls-80" points="172.06 109.28 138.61 109.25 138.12 107.68 172.05 107.56 172.06 109.28"/><path class="cls-81" d="M394,135.53l-5.86,0-1.73,0a195.31,195.31,0,0,1,4.75-33.78c.33,1.13.62,2.38.88,3.71C394.37,117.29,394,135.53,394,135.53Z" transform="translate(-256.8 13.75)"/><path class="cls-82" d="M394,135.53l-5.86,0a208.75,208.75,0,0,1,3.9-30C394.37,117.29,394,135.53,394,135.53Z" transform="translate(-256.8 13.75)"/><path class="cls-43" d="M403.23,135.69s2.06-25.57,6.21-35.22l2.67-1.59s-4.41,12.85-8.32,36.81Z" transform="translate(-256.8 13.75)"/><path class="cls-83" d="M412.11,98.88s6.48,12.38,7.47,37.06l-15.79-.25S406.15,108.56,412.11,98.88Z" transform="translate(-256.8 13.75)"/><path class="cls-84" d="M419,135.94s-.7-23-6.65-34.19a132.87,132.87,0,0,0-7.49,33.94Z" transform="translate(-256.8 13.75)"/><path class="cls-85" d="M418.12,135.84s-.39-24.47-6.43-32.37a129.66,129.66,0,0,0-6.85,32.22Z" transform="translate(-256.8 13.75)"/><path class="cls-86" d="M414.68,135.85l-9.84-.16c.64-6.17,1.5-11.4,2.31-15.49A99.32,99.32,0,0,1,409.63,110a13.24,13.24,0,0,1,1.45,3.08C413.84,120.89,414.68,135.85,414.68,135.85Z" transform="translate(-256.8 13.75)"/><polygon class="cls-55" points="146.55 105.7 142.36 92.91 147.31 93.22 146.55 105.7"/><path class="cls-87" d="M424.07,114.24h.27s.36-7.71-2.18-14.11l-.37.32s-2.64,4.83-3,14.28Z" transform="translate(-256.8 13.75)"/><path class="cls-88" d="M424.38,114.24h.27a41.79,41.79,0,0,0-2.49-14.11s-2.7,5.15-3.09,14.6Z" transform="translate(-256.8 13.75)"/><path class="cls-89" d="M424.38,114.37l-.81,0-4.15-.1c.34-6.51,1.57-9.86,2.27-11.27a4.86,4.86,0,0,1,.47-.82C424.36,107.1,424.38,114.37,424.38,114.37Z" transform="translate(-256.8 13.75)"/><path class="cls-90" d="M423.57,114.35l-4.15-.1c.34-6.51,1.57-9.86,2.27-11.27A38.56,38.56,0,0,1,423.57,114.35Z" transform="translate(-256.8 13.75)"/><rect class="cls-91" x="419.42" y="114.24" width="5.69" height="0.48" transform="translate(-257.03 14.64) rotate(-0.12)"/><polygon class="cls-92" points="168.32 128.47 167.59 128.92 161.97 128.86 161.97 128.48 162.63 128 162.63 128.48 168.32 128.47"/><path class="cls-93" d="M421.08,104.46s.8,1.8.47,9.78h.1s.19-7.79,1-9.79l-.64-2A12,12,0,0,0,421.08,104.46Z" transform="translate(-256.8 13.75)"/><path class="cls-94" d="M403.4,114.28h.27s.4-7.69-2.1-14.09l-.38.32s-2.66,4.83-3.11,14.26Z" transform="translate(-256.8 13.75)"/><path class="cls-95" d="M403.71,114.28H404a41.56,41.56,0,0,0-2.4-14.09s-2.73,5.15-3.18,14.58Z" transform="translate(-256.8 13.75)"/><path class="cls-96" d="M403.71,114.42l-.82,0-4.14-.11c.37-6.49,1.63-9.85,2.33-11.25a6,6,0,0,1,.48-.82C403.72,107.16,403.71,114.42,403.71,114.42Z" transform="translate(-256.8 13.75)"/><path class="cls-97" d="M402.89,114.4l-4.14-.11c.37-6.49,1.63-9.85,2.33-11.25A37.83,37.83,0,0,1,402.89,114.4Z" transform="translate(-256.8 13.75)"/><polygon class="cls-98" points="141.95 128.05 141.95 128.52 147.64 128.51 147.65 128.03 141.95 128.05"/><polygon class="cls-99" points="147.64 128.51 146.91 128.96 141.29 128.91 141.29 128.52 141.95 128.05 141.95 128.52 147.64 128.51"/><path class="cls-100" d="M400.46,104.51s.79,1.8.42,9.78h.1s.23-7.79,1-9.78l-.63-2.05A12.31,12.31,0,0,0,400.46,104.51Z" transform="translate(-256.8 13.75)"/><polygon class="cls-54" points="172.06 109.28 169.18 111.26 169.18 112.59 138.83 115.33 130.23 118.38 130.49 110.96 129.05 108.72 128.86 107.71 138.12 107.68 138.61 109.25 172.06 109.28"/><path class="cls-101" d="M391.89,84l-.05,0h0Z" transform="translate(-256.8 13.75)"/><polygon class="cls-102" points="122.27 137.75 177.58 136.63 177.73 159.99 121 160.1 122.27 137.75"/><polygon class="cls-103" points="135.73 137.48 135.09 159.99 121 160.1 122.27 137.75 135.73 137.48"/><path class="cls-104" d="M400.39,95.5l-2.2-2.11a126.53,126.53,0,0,1-3.65-18.45c-1.27,7.24-2.26,13.9-4,18.43l-1.57,2.42A13.37,13.37,0,0,1,400.39,95.5Z" transform="translate(-256.8 13.75)"/><path class="cls-105" d="M388.94,95.79a12.86,12.86,0,0,1,11.45-.29A16.7,16.7,0,0,1,388.94,95.79Z" transform="translate(-256.8 13.75)"/><path class="cls-106" d="M395.58,110.32l0,1.38-.81,34.57-4.41,0,1.12-32.47.17-3.45,0,0a4.34,4.34,0,0,1,3.94,0Z" transform="translate(-256.8 13.75)"/><path class="cls-107" d="M398.12,107.5l-.23,1.87c-2.25.28-2.31.95-2.31.95h0a6.38,6.38,0,0,0-3.94,0l0,0a4.31,4.31,0,0,0-2.3-1.28v-1.32l.73-.23.18,0,.18,0h0l.25-.07h0c4.5-1.14,7.18,0,7.42.16Z" transform="translate(-256.8 13.75)"/><path class="cls-108" d="M389.31,109.05a13.7,13.7,0,0,1,8.58.32l.22-1.87a13.22,13.22,0,0,0-8.79.23Z" transform="translate(-256.8 13.75)"/><polygon class="cls-109" points="140.79 118.04 139.07 117.92 138.44 118.67 138.81 119.26 138.54 117.28 136.31 117.29 136 118.85 136.03 118.39 136.26 117.93 134.56 118.18 134.25 120.16 140.6 120.58 140.79 118.04"/><path class="cls-110" d="M390.42,107.4l.47-11.08s3.65-1.7,6.73-.25l-.23,10.76Z" transform="translate(-256.8 13.75)"/><path class="cls-111" d="M389.32,107.73l.35-3a3.8,3.8,0,0,1,1.55-1.23l0,2.69,1.18-.26.12-2.85a5.64,5.64,0,0,1,3.44,0l-.3,2.86,1.33.17.27-2.68a1.65,1.65,0,0,1,1,1.11l-.13,2.87A15.66,15.66,0,0,0,389.32,107.73Z" transform="translate(-256.8 13.75)"/><polygon class="cls-112" points="140.42 117.28 139.89 117.5 139.68 119.9 140.15 119.96 140.42 117.28"/><polygon class="cls-113" points="134.43 117.3 134.94 117.6 134.84 119.89 134.39 119.98 134.43 117.3"/><path class="cls-54" d="M397.89,109.37c-2.25.28-2.31.95-2.31.95l0,1.38a11.41,11.41,0,0,0-4.1,2.08l.17-3.45a4.31,4.31,0,0,0-2.3-1.28h0a15.34,15.34,0,0,1,7.94.11h0l.07,0,.52.17h0Z" transform="translate(-256.8 13.75)"/><path class="cls-43" d="M390.89,96.32l-1.11-.66s5.64-2.41,9.31,0l-1.47.45A9.12,9.12,0,0,0,390.89,96.32Z" transform="translate(-256.8 13.75)"/><polygon class="cls-43" points="132.98 109.41 134 112.29 134.12 109.98 132.98 109.41"/><path class="cls-43" d="M395,94.58l-.11,3.69,1.3-3.63S395.26,94.57,395,94.58Z" transform="translate(-256.8 13.75)"/><path class="cls-114" d="M394.9,98.27h.74l1.75-3.39a6.45,6.45,0,0,0-1.19-.23Z" transform="translate(-256.8 13.75)"/><polygon class="cls-43" points="142.29 109.38 140.78 112.01 140.83 109.83 142.29 109.38"/><polygon class="cls-115" points="140.78 112.01 140.77 112.45 142.45 109.66 142.29 109.38 140.78 112.01"/><polygon class="cls-116" points="132.98 109.41 132.86 109.77 133.98 112.81 134 112.29 132.98 109.41"/><path class="cls-43" d="M396.12,101.43s.16-2.53.5-2.73.36,3.1.36,3.1Z" transform="translate(-256.8 13.75)"/><path class="cls-117" d="M396.55,101.61s.26-1.89-.16-2.34a15.61,15.61,0,0,0-.27,2.16Z" transform="translate(-256.8 13.75)"/><path class="cls-43" d="M391.75,102.82s0-2.37-.33-2.58-.5,2.87-.5,2.87Z" transform="translate(-256.8 13.75)"/><path class="cls-118" d="M391.34,103s-.14-1.78.27-2.18a14.71,14.71,0,0,1,.14,2Z" transform="translate(-256.8 13.75)"/><path class="cls-54" d="M389.66,96l1.11,3,0,.6s4.3-1.56,6.82-1l1.68-2.79,1.14-.41a12.28,12.28,0,0,0-11.45.29Z" transform="translate(-256.8 13.75)"/><path class="cls-48" d="M388.94,95.79l1.57-2.42a8.42,8.42,0,0,1,7.68,0l2.2,2.11S394.45,92.45,388.94,95.79Z" transform="translate(-256.8 13.75)"/><path class="cls-119" d="M384.23,104l-1.73-1.66a108.64,108.64,0,0,1-2.83-14.6,113.53,113.53,0,0,1-3.26,14.57l-1.26,1.92A10.66,10.66,0,0,1,384.23,104Z" transform="translate(-256.8 13.75)"/><path class="cls-120" d="M375.15,104.27a10.26,10.26,0,0,1,9.08-.23A13.29,13.29,0,0,1,375.15,104.27Z" transform="translate(-256.8 13.75)"/><path class="cls-121" d="M374.9,146.41l1.79-41.72s2.9-1.35,5.35-.2l-.86,41.84Z" transform="translate(-256.8 13.75)"/><path class="cls-43" d="M376.69,104.69l-.88-.53s4.49-1.9,7.4,0l-1.17.35A7.28,7.28,0,0,0,376.69,104.69Z" transform="translate(-256.8 13.75)"/><polygon class="cls-43" points="119.02 117.92 119.82 120.2 119.92 118.36 119.02 117.92"/><path class="cls-43" d="M380,103.31l-.1,2.92,1-2.87S380.17,103.31,380,103.31Z" transform="translate(-256.8 13.75)"/><path class="cls-122" d="M379.87,106.23h.59l1.4-2.69a5.59,5.59,0,0,0-.95-.18Z" transform="translate(-256.8 13.75)"/><polygon class="cls-43" points="126.41 117.89 125.2 119.98 125.24 118.25 126.41 117.89"/><polygon class="cls-123" points="125.2 119.98 125.19 120.33 126.53 118.12 126.41 117.89 125.2 119.98"/><polygon class="cls-124" points="119.02 117.92 118.92 118.2 119.8 120.6 119.82 120.2 119.02 117.92"/><path class="cls-43" d="M380.83,108.73s.13-2,.41-2.16.27,2.45.27,2.45Z" transform="translate(-256.8 13.75)"/><path class="cls-125" d="M381.17,108.88s.21-1.5-.12-1.86a11.93,11.93,0,0,0-.22,1.71Z" transform="translate(-256.8 13.75)"/><path class="cls-43" d="M377.35,109.83s0-1.88-.24-2-.41,2.27-.41,2.27Z" transform="translate(-256.8 13.75)"/><path class="cls-126" d="M377,109.94s-.11-1.41.23-1.72a11.29,11.29,0,0,1,.09,1.61Z" transform="translate(-256.8 13.75)"/><path class="cls-54" d="M375.72,104.45l.87,2.4,0,.47s3.42-1.23,5.41-.75l1.35-2.2.9-.33a9.73,9.73,0,0,0-9.08.23Z" transform="translate(-256.8 13.75)"/><path class="cls-48" d="M375.15,104.27l1.26-1.92a6.71,6.71,0,0,1,6.09,0l1.73,1.66S379.53,101.63,375.15,104.27Z" transform="translate(-256.8 13.75)"/><path class="cls-54" d="M383.33,104.37a8.8,8.8,0,0,0,.9-.33l-1.73-1.66a106.17,106.17,0,0,1-2.83-14.6c-1.08,5.69-1.94,10.66-3.26,14.57l-1.26,1.92.52.16.05,0,.87,2.4,0,.47h0l-1.71,39.1,6.28-.08.81-39.76,1.34-2.2Zm-8.09-.15.32-.16-.35.17Z" transform="translate(-256.8 13.75)"/><path class="cls-127" d="M441,95.38l-2.37-2.11a95.69,95.69,0,0,1-4.86-18.52c-.65,7-1.4,13.25-2.92,18.48l-1.45,2.42S434.07,92.7,441,95.38Z" transform="translate(-256.8 13.75)"/><path class="cls-128" d="M429.36,95.65a13,13,0,0,1,11.6-.27A16.88,16.88,0,0,1,429.36,95.65Z" transform="translate(-256.8 13.75)"/><path class="cls-129" d="M437.05,110.24l.05,1.39,1.49,34.68-5.4-.05L433,113.7l0-3.46h0a4.7,4.7,0,0,1,4.09,0Z" transform="translate(-256.8 13.75)"/><path class="cls-130" d="M439.5,107.43l-.11,1.87c-2.31.27-2.34.94-2.34.94h0a6.73,6.73,0,0,0-4.09,0h0a5,5,0,0,0-2.46-1.3l-.07-1.31c.26-.09.51-.16.75-.23l.19-.05.18,0h0l.26-.07h0c4.59-1.13,7.45.08,7.7.19Z" transform="translate(-256.8 13.75)"/><path class="cls-131" d="M430.46,109a14.71,14.71,0,0,1,8.93.35l.1-1.88a14.22,14.22,0,0,0-9.1.21Z" transform="translate(-256.8 13.75)"/><polygon class="cls-132" points="181.93 117.95 180.15 117.82 179.55 118.58 179.97 119.17 179.56 117.19 177.26 117.19 177.04 118.75 177.05 118.28 177.25 117.83 175.51 118.08 175.31 120.06 181.91 120.5 181.93 117.95"/><path class="cls-133" d="M431.52,107.3l-.15-11.11s3.6-1.7,6.83-.24l.5,10.8Z" transform="translate(-256.8 13.75)"/><path class="cls-134" d="M430.39,107.63l.21-3a3.62,3.62,0,0,1,1.52-1.22l.12,2.7,1.2-.26-.05-2.86a5.94,5.94,0,0,1,3.54.07l-.12,2.86,1.39.18.09-2.69a1.83,1.83,0,0,1,1.13,1.11l.07,2.88A16.83,16.83,0,0,0,430.39,107.63Z" transform="translate(-256.8 13.75)"/><polygon class="cls-135" points="181.5 117.19 180.96 117.41 180.91 119.81 181.4 119.88 181.5 117.19"/><polygon class="cls-136" points="175.33 117.18 175.87 117.5 175.9 119.78 175.44 119.88 175.33 117.18"/><path class="cls-54" d="M439.39,109.3c-2.31.27-2.34.94-2.34.94l.05,1.39A11.31,11.31,0,0,0,433,113.7l0-3.46a5,5,0,0,0-2.46-1.3h0a16.63,16.63,0,0,1,8.25.14h0l.07,0a4.89,4.89,0,0,1,.55.18h0Z" transform="translate(-256.8 13.75)"/><path class="cls-43" d="M431.37,96.19l-1.17-.67s5.57-2.41,9.46,0L438.2,96A9.42,9.42,0,0,0,431.37,96.19Z" transform="translate(-256.8 13.75)"/><polygon class="cls-43" points="173.4 109.27 174.6 112.17 174.59 109.84 173.4 109.27"/><path class="cls-43" d="M435.45,94.45l.11,3.7,1.09-3.64S435.7,94.44,435.45,94.45Z" transform="translate(-256.8 13.75)"/><path class="cls-137" d="M435.56,98.15h.76l1.56-3.4a7.47,7.47,0,0,0-1.23-.24Z" transform="translate(-256.8 13.75)"/><polygon class="cls-43" points="182.86 109.26 181.5 111.9 181.4 109.71 182.86 109.26"/><polygon class="cls-138" points="181.5 111.9 181.52 112.34 183.04 109.55 182.86 109.26 181.5 111.9"/><polygon class="cls-139" points="173.4 109.27 173.3 109.64 174.61 112.68 174.6 112.17 173.4 109.27"/><path class="cls-43" d="M437,101.33s0-2.54.33-2.74.57,3.11.57,3.11Z" transform="translate(-256.8 13.75)"/><path class="cls-140" d="M437.48,101.51s.13-1.89-.33-2.35a14.76,14.76,0,0,0-.12,2.17Z" transform="translate(-256.8 13.75)"/><path class="cls-43" d="M432.62,102.71s-.15-2.38-.48-2.59-.35,2.88-.35,2.88Z" transform="translate(-256.8 13.75)"/><path class="cls-141" d="M432.21,102.85s-.25-1.79.15-2.19a15.05,15.05,0,0,1,.26,2Z" transform="translate(-256.8 13.75)"/><path class="cls-54" d="M430.09,95.88l1.31,3.05v.6s4.3-1.56,6.91-.94l1.52-2.8,1.12-.41a12.66,12.66,0,0,0-11.6.27Z" transform="translate(-256.8 13.75)"/><path class="cls-48" d="M429.36,95.65l1.45-2.42a8.5,8.5,0,0,1,7.78,0L441,95.38S434.74,92.31,429.36,95.65Z" transform="translate(-256.8 13.75)"/><polygon class="cls-142" points="177.15 135.72 177.5 137.46 176.25 138.76 138.33 138.82 138.35 135.58 177.15 135.72"/><polygon class="cls-54" points="177.5 137.46 138.34 137.81 138.33 138.82 176.25 138.76 177.5 137.46"/><polygon class="cls-54" points="177.5 137.46 176.26 139.85 138.28 140.41 138.34 137.81 177.5 137.46"/><polygon class="cls-143" points="176.39 160.02 176.31 145.52 173.59 145.51 173.45 154.54 172.79 156.33 173.15 148.36 167.2 146.37 166.18 148.77 166.2 154.17 167.23 155.58 167.23 156.52 166.21 157.18 163.29 158.12 162.96 152.77 154.13 147.77 149.84 149.31 148.03 152.78 149.36 156.9 148.02 158.77 148.03 154.27 144.65 152.78 142.44 154.74 140.58 157.37 140.62 158.78 138.92 158.68 139.4 152.21 138.28 145.55 137.88 154.27 135.62 156.15 134.43 156.34 133.75 152.78 134.14 137.53 132.7 137.49 131.25 148.79 128.96 154.09 126.58 157 125.89 156.06 125.46 151.28 124.58 152.22 123.25 155.59 121.02 157.37 118.27 156.25 118.1 160.16 181.8 160.07 181.56 152.37 180.19 155.29 177.75 155.76 176.39 160.02"/><path class="cls-43" d="M415.31,117.28l-1.61.88a15.42,15.42,0,0,0-2.38,3.72h.5a167.74,167.74,0,0,0-2.22,24.4l.51,0S412.19,122.16,415.31,117.28Z" transform="translate(-256.8 13.75)"/><path class="cls-144" d="M419.76,146.14s.34-20.31-4.45-28.86c0,0-4.67,9.15-5.2,29Z" transform="translate(-256.8 13.75)"/><path class="cls-145" d="M411.1,146.23s.59-18.15,4.18-25.73c0,0,4.19,9.57,4.22,25.77Z" transform="translate(-256.8 13.75)"/><path class="cls-146" d="M414.74,121.8s3.9,8.57,3.93,24.32l-7.57.11S411.69,129.8,414.74,121.8Z" transform="translate(-256.8 13.75)"/><polygon class="cls-48" points="167 62.29 161.98 58.34 146.75 58.57 145.09 60.43 167 62.29"/><path class="cls-147" d="M410.22,46.79v-13c-3.15,11.47-5.63,21.89-8.67,29.36l-2.35,2.5,2.62.39,2.88-3.31,13.4.94-1.33,2,4.42-2.2L414,61.09Z" transform="translate(-256.8 13.75)"/><polygon class="cls-148" points="146.55 105.7 160.86 105.65 159.98 79.4 148.2 78.54 146.55 105.7"/><polygon class="cls-43" points="146.55 105.7 145.16 93.08 146.09 81.06 148.2 78.54 146.55 105.7"/><polygon class="cls-43" points="146.09 81.06 145.03 79.75 147.91 76.44 161.31 77.37 159.98 79.4 148.2 78.54 146.09 81.06"/><path class="cls-149" d="M421.2,63.45l-3.68-2.58a157,157,0,0,1-7.29-27.13c-1.74,10.4-3.46,20-5,26.55L404.32,62Z" transform="translate(-256.8 13.75)"/><path class="cls-150" d="M414.35,87.58h.41s.57-11.82-3.26-21.64l-.57.5s-4,7.42-4.68,21.91Z" transform="translate(-256.8 13.75)"/><path class="cls-151" d="M414.81,87.58h.41s.2-11.77-3.72-21.64c0,0-4.14,7.91-4.78,22.41Z" transform="translate(-256.8 13.75)"/><path class="cls-152" d="M414.82,87.79l-1.25,0-6.31-.15c.54-10,2.45-15.13,3.5-17.29a7.92,7.92,0,0,1,.74-1.27C414.81,76.64,414.82,87.79,414.82,87.79Z" transform="translate(-256.8 13.75)"/><path class="cls-153" d="M413.57,87.76l-6.31-.15c.54-10,2.45-15.13,3.5-17.29C413.48,77.56,413.57,87.12,413.57,87.76Z" transform="translate(-256.8 13.75)"/><polygon class="cls-154" points="150.46 101.37 150.46 102.1 159.14 102.06 159.14 101.33 150.46 101.37"/><polygon class="cls-155" points="159.14 102.06 158.02 102.76 149.46 102.69 149.46 102.1 150.46 101.37 150.46 102.1 159.14 102.06"/><path class="cls-156" d="M409.83,72.58s1.21,2.77.68,15h.15s.32-12,1.55-15l-1-3.14A18.84,18.84,0,0,0,409.83,72.58Z" transform="translate(-256.8 13.75)"/><polygon class="cls-48" points="148.45 74.04 160.72 74.62 164.4 77.21 147.52 75.73 148.45 74.04"/><polygon class="cls-54" points="161.31 77.37 159.98 79.4 159.98 79.9 147.96 82.44 145.85 84.12 146.09 81.06 145.03 79.75 147.91 76.44 161.31 77.37"/><path class="cls-157" d="M404.86,23.75l-1.69-1.64a99.87,99.87,0,0,1-2.81-14.43c-1,5.67-1.73,10.89-3.07,14.44l-1.2,1.9A10,10,0,0,1,404.86,23.75Z" transform="translate(-256.8 13.75)"/><path class="cls-158" d="M396.09,24a9.68,9.68,0,0,1,8.77-.27A12.56,12.56,0,0,1,396.09,24Z" transform="translate(-256.8 13.75)"/><path class="cls-159" d="M402.71,34.65l0,5.19-3.79,7.71-2.28,1.83s.53-14.72.56-14.72A11.24,11.24,0,0,1,402.71,34.65Z" transform="translate(-256.8 13.75)"/><path class="cls-160" d="M397.24,33.1l.34-8.67s2.79-1.35,5.16-.22l-.21,8.85Z" transform="translate(-256.8 13.75)"/><path class="cls-43" d="M397.58,24.43l-.85-.52s4.32-1.9,7.13-.06l-1.12.36A6.86,6.86,0,0,0,397.58,24.43Z" transform="translate(-256.8 13.75)"/><polygon class="cls-43" points="139.93 37.67 140.72 39.92 140.81 38.11 139.93 37.67"/><path class="cls-43" d="M400.74,23.05l-.09,2.89,1-2.85S400.93,23,400.74,23.05Z" transform="translate(-256.8 13.75)"/><path class="cls-161" d="M400.65,25.94h.57l1.34-2.66a5.33,5.33,0,0,0-.91-.18Z" transform="translate(-256.8 13.75)"/><polygon class="cls-43" points="147.07 37.61 145.91 39.67 145.94 37.96 147.07 37.61"/><polygon class="cls-162" points="145.91 39.67 145.9 40.02 147.19 37.83 147.07 37.61 145.91 39.67"/><polygon class="cls-163" points="139.93 37.67 139.84 37.95 140.7 40.32 140.72 39.92 139.93 37.67"/><path class="cls-43" d="M401.74,29.28s.12-1.85.37-2,.25,2.27.25,2.27Z" transform="translate(-256.8 13.75)"/><path class="cls-164" d="M402.05,29.42s.19-1.39-.11-1.73a12,12,0,0,0-.2,1.59Z" transform="translate(-256.8 13.75)"/><path class="cls-48" d="M396.09,24l1.2-1.9a6.35,6.35,0,0,1,5.88,0l1.69,1.64S400.31,21.39,396.09,24Z" transform="translate(-256.8 13.75)"/><path class="cls-165" d="M396.39,34.4l.75,1a8.62,8.62,0,0,1,5.57-.2l.74-.71S401.2,32.7,396.39,34.4Z" transform="translate(-256.8 13.75)"/><path class="cls-166" d="M396.39,34.4s4.05-1.59,7.06.08V33.31s-2.87-1.74-7.06.06Z" transform="translate(-256.8 13.75)"/><polygon class="cls-43" points="139.59 48.15 140.28 50.67 140.34 49.14 139.59 48.15"/><polygon class="cls-43" points="143.53 47.48 143.52 50.12 144.11 47.5 143.53 47.48"/><polygon class="cls-43" points="146.65 48.24 145.91 51.01 145.91 48.94 146.65 48.24"/><polygon class="cls-167" points="144.11 47.5 145.11 47.66 144.35 50.31 143.52 50.12 144.11 47.5"/><polygon class="cls-168" points="145.91 51.01 145.91 50.3 146.65 48.24 145.91 51.01"/><polygon class="cls-169" points="140.28 50.67 139.59 48.15 139.79 48.08 140.3 50.14 140.28 50.67"/><path class="cls-54" d="M396.39,34.4l.68,2.52v1.24s3.37-1.72,5.63-.45v-.46l.75-2.77S401.25,32.79,396.39,34.4Z" transform="translate(-256.8 13.75)"/><path class="cls-54" d="M396.64,24.2l.86,2.37,0,.46s3.29-1.24,5.22-.77L404,24.07l.88-.32a9.23,9.23,0,0,0-8.77.27Z" transform="translate(-256.8 13.75)"/><polygon class="cls-170" points="181.01 155.33 183.81 156.24 185.89 158.29 187.73 158.29 191.4 160.16 114.71 160.16 111.11 160.4 114.09 157.75 118.84 156.96 119.03 158.95 125.27 160.02 130.36 160.05 133.22 157.75 136.6 157.42 137.85 158.19 139.97 159.41 154.12 159.21 156.42 159.34 167.68 159.26 175.86 158.8 181.01 155.33"/><polygon class="cls-54" points="183.81 156.24 182.18 157.67 176.34 159.11 185.89 158.29 183.81 156.24"/><polygon class="cls-54" points="187.73 158.29 175.94 160.02 172.32 159.16 162.69 159.29 157.89 160.08 191.4 160.16 187.73 158.29"/><polygon class="cls-54" points="133.22 157.75 132.31 159.22 137.4 159.22 142.41 160.13 130.36 160.05 133.22 157.75"/><polygon class="cls-54" points="114.09 157.75 117.5 159.22 122.25 160.16 111.11 160.4 114.09 157.75"/><polygon class="cls-171" points="111.11 160.4 121.7 145.94 123.11 146.96 123.11 150.17 124.11 147.79 126.62 141.47 127.7 143.17 128.71 156.19 129.88 154.3 136.81 154.76 152.11 161.34 147.76 164.34 116.8 162.12 111.11 160.4"/><path class="cls-172" d="M394.13,143.77l-7.46-3.22-1.16,1.88-2.57,2.39-2.1.06-.93-5.32,3.24-10.46.78-.58-.51-.81-3.51,8.71-6.19,8,1.86-7.27,2.91-4.92L367.9,146.65l5.7,1.72,31,2.21-.41-4.06Zm-7.39-1.8,7.19,2.24,5.67,2-11.71-.89L386,142.49Zm-2.11,4.34-.35-.56.25-.47,2.63.24,4,.65Z" transform="translate(-256.8 13.75)"/><polygon class="cls-173" points="129.88 154.3 137.33 157.53 147.36 160.28 149.62 160.27 136.81 154.76 129.88 154.3"/><polygon class="cls-174" points="137.33 157.53 137.13 157.96 142.8 159.92 131.09 159.03 130.37 159.27 134.35 159.92 127.84 160.06 127.48 159.51 126.15 158.58 121.54 159.54 124.04 158.63 123.11 153.32 118.65 157.29 116.93 158.13 111.11 160.4 116.8 162.12 147.76 164.34 147.36 160.28 137.33 157.53"/><polygon class="cls-175" points="131.03 154.8 130.63 155.94 131.56 156.23 132.09 155.26 131.03 154.8"/><polygon class="cls-175" points="132.36 156.47 133.42 155.84 134.81 156.44 133.61 156.87 132.36 156.47"/><polygon class="cls-176" points="118.96 155.51 124.24 149.69 126.36 142.85 125.92 143.21 123.11 150.17 118.96 155.51"/><polygon class="cls-176" points="118.78 150.87 115.58 154.3 121.7 145.94 118.78 150.87"/><polygon class="cls-177" points="124.04 158.63 121.54 159.54 121 162.42 116.9 162.13 120.12 159.34 124.04 158.63"/><polygon class="cls-34" points="128.02 147.29 123.71 151.38 123.11 153.32 123.47 155.35 128.21 150.12 128.02 147.29"/><polygon class="cls-34" points="124.66 148.32 127.77 143.96 127.7 143.17 125.23 146.48 124.66 148.32"/><g class="cls-178"><path class="cls-179" d="M463.16,160.62l13.37-13.05V146.3c-5.26-1.44-16.13-2.09-24.93-2.37l-3.52-8-1.79-.43-1,.43-1.77-5.23-.81-2.39-.95-2.81h-.6l-1.78-6-.71-2.41-.95-3.19-.57-.12-.09-2.07-.05-1.39s0-.67,2.34-.94l.11-1.87h0l-.07-2.88a1.84,1.84,0,0,0-.87-1l-.23-5,1.52-2.8.06,0a9.73,9.73,0,0,0,1.06-.39l-2.37-2.11a95.69,95.69,0,0,1-4.86-18.52c-.45,4.79-1,9.26-1.71,13.29l0-8.78h0v-.58l.94-3.55v-1.5a6.84,6.84,0,0,0-1.19-.5l.13-8.53h0l1.63-2.8h0a11.27,11.27,0,0,0,1.09-.4l-2.2-2.11a127.72,127.72,0,0,1-3.79-18.49c-1.19,7.27-2.11,14-3.81,18.49l-1.53,2.43.71.23,1.13,3-.26,8.3c-.36.12-.72.25-1.09.41V75l.91,3.23c-.06,2-.15,4.93-.26,8.41-.49-1.68-.85-3.53-1.35-6l-3.16-.2-.61-16.08,1.87-.93-2-1.37-.39-10.34,4.94-3.2-5-4C414,34.05,409,19.41,409,19.41a127,127,0,0,1-6.27,18.25v-.41l.75-2.77V33.31a5.76,5.76,0,0,0-.91-.39l.15-6.66h0L404,24.07h0a8.72,8.72,0,0,0,.84-.31l-1.69-1.64a99.87,99.87,0,0,1-2.81-14.43c-1,5.67-1.73,10.89-3.07,14.44l-1.2,1.9.55.18.86,2.37-.26,6.48a9,9,0,0,0-.85.32v1l.68,2.51c-.14,3.77-.41,11-.45,12.29l-3.24,3.86,1.88.09,2.31,1.79L396,79.82l-.76.17c-.26-1.61-.51-3.29-.73-5-.32,1.85-.63,3.66-.94,5.4l-2.12.46c-.38,1.46-.72,2.66-1.07,3.73l.12-13h0V70.9l1-3.53v-1.5l0-3a2.64,2.64,0,0,0-1.07-1l.11-4.93,1.67-2.79,0,0c.68-.22,1.08-.4,1.08-.4l-2.16-2.1a125.78,125.78,0,0,1-3.57-18.43c-1.27,7.24-2.27,13.9-4,18.43L382.08,54l.7.23,1.1,3-.21,4.84a4.07,4.07,0,0,0-.89.88l-.36,3v1.32l.87,3.22c-.25,5.52-.79,18.11-1.3,30-.29-1.18-.57-2.4-.83-3.68-.53-2.7-1-5.64-1.48-9-.59,3.09-1.11,6-1.68,8.57-.49,2.05-1,4-1.58,6l-1.26,1.92.57.18.87,2.4,0,.47h0l-1.26,29.19-.81,1.12c-2.68-.26-4.93-.45-5.86-.45-3.11,0-16.47,1.75-16.47,1.75l2.31,10.5a9.76,9.76,0,0,0,3.08,3.56h0a15.07,15.07,0,0,0,3.41,1.89h3.29l.74,3.82-.16.88-.58,3,10.4,18.66,4.34,1.17,3.08-1.69,9.65-2.44,2.55-2,1.91,3.82-3.77,2.44-7,4.56.53.75c.44.62,1.09,1.56,1.76,2.53l-1.24-.19,4.14,4.46c2.39,2.84,9,9.32,9,9.32L396,209.42l2.52,8.25.82,2.67L403.23,233l-1.8,1.7-1.9,17.63-1,1.67-1.41,2.39,2-.12,4.74,2.59,10.48-3.58,3.2-18.56,2.53-2.67,2-2.09,1.26-1.06-.42.18.48-.51.76-1,7.49-9.84.87-1.15-.95-.85,6.74-5.66,2.22-1.85,10.77-9-2.76-1.8,10.72-10.5,3.6-.85a45.82,45.82,0,0,0,4.63-3l.07,0,.42-.35a55,55,0,0,0,4.93-4.15,31.13,31.13,0,0,0,3.64-3.77v-2L462,163.91l.86-2.43ZM396.7,34.29l-.11,0h0l.11,0a3.5,3.5,0,0,1,.44-.13Zm-14,32.86h0l.3-.09ZM402,79.33h0Zm22.1-4.42h0c.16-.05.4-.13.7-.21Zm8.05,41.35,0-6.7a2.53,2.53,0,0,1,.83.68l0,3.46,0,3Z" transform="translate(-256.8 13.75)"/></g><path class="cls-180" d="M463.16,160.62l13.37-13.05V146.3c-5.26-1.44-16.13-2.09-24.93-2.37l-3.52-8-1.79-.43-1,.43-1.77-5.23-.81-2.39-.95-2.81h-.6l-1.78-6-.71-2.41-.95-3.19-.47-.1.07-2.08.08-1.31a5.66,5.66,0,0,1,2-.54l.42,0,.13-2.34-.08-2.88,0-.15a2.25,2.25,0,0,0-.85-1.12l-.21-4.55,1.35-2.5a9.31,9.31,0,0,0,1-.37l.7-.32L439,93a95.58,95.58,0,0,1-4.78-18.31l-.64-3.77-.22,2.42-.19-.11a6.31,6.31,0,0,0-.94-.42l.12-8,1.49-2.54c.62-.21,1-.37,1-.37l.67-.31L432.88,59a129,129,0,0,1-3.74-18.29l-.44-3.34-1,6.25c-.95,5.93-1.85,11.54-3.29,15.41L422.54,62l1.09.36,1,2.72-.25,7.85c-.26.09-.53.19-.8.31l-.3.13.91,4.94-.14,4.61c-.12-.57-.24-1.16-.37-1.8l-.19-.92L420.43,80l-.59-15.3,2.33-1.16-2.44-1.72-.37-9.8,5.29-3.43-5.47-4.31c-4.72-10.39-9.69-24.88-9.74-25l-.54-1.59-.41,1.63a120.54,120.54,0,0,1-4.54,14V33l-.24-.15s-.25-.14-.67-.31l.15-6.15,1.13-1.93a7.31,7.31,0,0,0,.74-.29l.67-.3-2.11-2a100.38,100.38,0,0,1-2.77-14.23l-.42-3.37-.95,5.65c-.78,4.64-1.51,9-2.61,12l-1.54,2.45.92.3.74,2-.23,6c-.19.06-.37.14-.56.22l-.3.13v1l-.1,0,.1.38v.66l.16-.06.52,1.91c-.14,3.64-.39,10.42-.45,12l-3.05,3.65-1.41-1.36a126.5,126.5,0,0,1-3.51-18.23l-.41-3.35L386.65,36c-1,5.92-2,11.51-3.47,15.37l-1.87,2.93,1.08.35,1,2.71-.19,4.5a5.78,5.78,0,0,0-.81.84l-.07.11-.38,3.15v1l-.11,0,.11.38V68l.17-.06.71,2.61c-.23,5-.68,15.53-1.14,26.16h0c-.53-2.71-1-5.66-1.48-9l-.44-2.9-.88,4.68c-.46,2.4-.88,4.67-1.33,6.76-.45,1.85-.94,3.73-1.56,5.9l-1.57,2.4,1.18.31.53,2.08,0,1.22h0l-.82,28.5-.71,1c-2.68-.26-4.93-.45-5.86-.45-3.11,0-16.47,1.75-16.47,1.75l2.31,10.5a9.76,9.76,0,0,0,3.08,3.56h0a15.07,15.07,0,0,0,3.41,1.89h3.29l.74,3.82-.16.88-.58,3,10.4,18.66,4.34,1.17,3.08-1.69,9.65-2.44,2.55-2,1.91,3.82-3.77,2.44-7,4.56.53.75c.44.62,1.09,1.56,1.76,2.53l-1.24-.19,4.14,4.46c2.39,2.84,9,9.32,9,9.32L396,209.42l2.52,8.25.82,2.67L403.23,233l-1.8,1.7-1.9,17.63-1,1.67-1.41,2.39,1-.06,1-.06,4.74,2.59,10.48-3.58,3.2-18.56,2.53-2.67,2-2.09,1.26-1.06-.42.18.48-.51.76-1,7.49-9.84.87-1.15-.95-.85,6.74-5.66,2.22-1.85,10.77-9-2.76-1.8,10.72-10.5,3.6-.85a45.82,45.82,0,0,0,4.63-3l.07,0,.42-.35a55,55,0,0,0,4.93-4.15,31.13,31.13,0,0,0,3.64-3.77v-2L462,163.91l.86-2.43ZM393.59,54.12l.67-.3-.23-.23,1,0,2,1.54-1.46,23.66c-.2-1.32-.38-2.63-.55-4l-.41-3.3-1.46,8.36-2.09.44-.08.3-.06.21.08-8.59h0V71l1-3.47.05-4.79L392,62.6a3,3,0,0,0-1-1.08l.11-4.51,1.5-2.52A10.17,10.17,0,0,0,393.59,54.12Zm59.32,104.4,9,2-.91,4.07,14.55,10.23,0,1.43-14.51,4,14.11-3.06-3.26,3.54-4.36,3.6-4.88,3.06-4,.88L447.1,199.09l2.62,2-19.49,16.58,1.08,1.32-8,11.12-6.21,6.39-3.37,18.27L404,258.18l-4.6-2.47-1.1.31,1.84-3.65,2-17.17,2-1.64-7-22.28,1.15.64,3.87-.89-3.88.5-1.51-1.43,4.59-5.79L391.06,193.8,387.77,189l4.43.83,2.35,1,5.64-.76-5.66.39-1.88-1.22L387,187.8l-.4-.58,10.89-6.92-3.29-4.9-2.77,2.29L381.74,180l-3.15,1.73-3.1-.85L364.9,162.64l.74-4-.92-4.17-3.78.07-3.09-1.88-1.39-1.25L355,149.51l-1.34-6.62.83,1.22,3.09,1.94-2.61-2.2-1.7-2.87-.34-1.7,15-1.72,1.36-.1,5,.45.08-.11-6.48,8.85,10.67-14.23,1.34.79-1.42-1-3.05,4.17,1.17-29.05-.22-2.24-.46-1.08.89-1.36.07-.14c.63-2.22,2.37-12.63,2.75-14.64.7,6,2.35,13,2.35,13s1.13-24.69,1.38-30.22l-.35-3,.49-.16-.27-1-.33.09V66l.34-2.83a4.18,4.18,0,0,1,.7-.67l.2-.14.22-5.18-1.21-3.35-.32-.1,1.2-1.88.05-.09c1.51-3.89,2.43-9.18,3.49-15.3a125.17,125.17,0,0,0,3.14,15.25l0,.14,1.65,1.6-.07.08h0l-.28.1-.16.06-1.83,3.06L390,62.1l.28.15a2.09,2.09,0,0,1,.8.72l0,2.19-.34.87a2.27,2.27,0,0,1,.34.15V67.3l-.6,3.74V84.5c.31-1,1.06-3.67,1.06-3.67l2.12-.49.94-5.4.74,5.17.74-.29,2.06-25.11-2.64-2.05-1,0,2.7-3.22v-.18c0-1.24.3-8.51.45-12.28v-.08L397,34.72l.28-.08-.28-1-.11,0h0l.51-.18.33-.11.27-6.92-1-2.69-.17-.06.91-1.44A65.29,65.29,0,0,0,400.31,11a96.77,96.77,0,0,0,2.38,11.25l0,.13L404,23.56l-.14.05-.17.06-1.2,2-.23,0L402,33.28l.35.12c.24.08.43.16.57.22v.8l-.73,2.7,0,3,1-2.25A128.26,128.26,0,0,0,409,21.12c1.42,4.06,5.44,15.24,9.28,23.67l.05.11,4.56,3.6-4.59,3L419.11,62l2,1.33L419,64.55l.95,15.91,2.75.67,0,.17s1.27,3.76,1.73,5.34l.24-7.65,0-.7-.91-4.61,1.09-.41.26-8.3-1.13-3-.71-.18,1.58-2.51a81.27,81.27,0,0,0,3.73-15.14,154.26,154.26,0,0,0,3.82,15.17l2.19,2.1-1.12.42-1.65,2.83-.12,8.47s.88.6,1.07.69L432,76.05l-.44,2.32-.07-.05L432,88S433.4,79.2,433.74,76c1.19,6.94,4.77,17.25,4.77,17.25L441,95.38l-1.18.43-1.46,2.78-.25,5.26.25.14c.2.1,1,.54,1.11.89l0,4.45c-2.58.23-2.44,1.13-2.44,1.13l.3,4.59,0-.81.27,0,3.3,11.53h.78l-1,2,1.07-1.63,3.19,10.49,1.42-.59,1.58.37,4.46,9.61.13,0-.82-1.89,7.08.38,11.34.93,5.32.94-.08,1.14h0l-9,1.23,8.67-.89-12.45,11.8ZM433,75.13c-.15,1.59-.62,7.43-.83,9.1L432,79Z" transform="translate(-256.8 13.75)"/><polygon class="cls-180" points="121.16 152.68 123.33 150.23 126.62 141.47 123.11 150.17 121.16 152.68"/><path class="cls-181" d="M329.43,59.25s6.8-19.32,17.36-25.92c14.67-9.16,30.57-2.2,30.57-2.2S398.49,2,431.83,0c15.85-.95,12.1,20.11,12.1,20.11l22.67-4.27s44.74-29.61,93.32-29.61c71.74,0,105.61,47.84,105.61,47.84L575.19,45.57,571.27,51H489.75l1.32-6.81L358.56,51s13.68,18.18,14.72,25.2l-3,2.19,12.31,5.23-10-.28-10,.62a6.76,6.76,0,0,1,1.12-4.69l-31.66-10.2s-1.66-7.37.46-11.43Z" transform="translate(-256.8 13.75)"/><path class="cls-182" d="M486.37,24.53s-18.8-2-54.33,4.28l11.36-6.12s-32.65-.48-66,8.44l6.91.34s-31.47,7.59-54.84,27.78A69,69,0,0,1,345,53.07S332,59.24,331.93,68s37.8,14.72,37.8,14.72-4.58-.26-7.07,1.26c5.46.5,19.91,1.41,19.91,1.41l0-1.75L367,80.27s6.09-.75,6.24-4.08c0,0-.67-3.51-20.8-9.18,0,0,43.4-12.77,93-16s60.42-2.47,60.42-2.47L489.75,51s57.85,1.83,81.52,0l-6.57-2.88,100.83-14S561.46,6.85,469.37,19Z" transform="translate(-256.8 13.75)"/><path class="cls-183" d="M437.18,89.41l12.94,1.19-1.84,1.26S473.82,96,479,98.59s-22.88,8.24-74.86,8.5-75.58-3.18-75.58-3.18l14.12.25-1.24-1.09s10.14-3.78,20.18-3.76l-3.25,5.23s45.15,4.3,70.93-.32,8.95-11.77,8.95-11.77Z" transform="translate(-256.8 13.75)"/><path class="cls-184" d="M437.62,90.6s8.38,1.47,10.28,3.65c1.46,1.68-5.55,5.61-5.55,5.61s4-3.33-4.11-7.41Z" transform="translate(-256.8 13.75)"/><path class="cls-185" d="M304.83,102.28s4.85-8.54,14.79.91Z" transform="translate(-256.8 13.75)"/><path class="cls-186" d="M450.83,90.6s3.51-6,11.76,0Z" transform="translate(-256.8 13.75)"/><path class="cls-187" d="M343.67,25.82S305.33,34,298.25,49.68s25.38,28.05,25.38,28.05S286.47,67.5,289.27,47.68,324.48,24.36,343.67,25.82Z" transform="translate(-256.8 13.75)"/><path class="cls-188" d="M380.75,17.83S350,9.67,336,10.66s-16.76,6-16.76,6S286,22.43,289.89,52.43c0,0,10.71-15,26.25-20.9s27.53-5.71,27.53-5.71,1.47-5.67,0-7.75S380.75,17.83,380.75,17.83Z" transform="translate(-256.8 13.75)"/><path class="cls-189" d="M289.89,52.43s13.3-20.6,53.78-26.61l-8.36-.23,45.44-7.76s-39.09-3.89-69.94,4.72C283.65,30.12,289.89,52.43,289.89,52.43Z" transform="translate(-256.8 13.75)"/><path class="cls-190" d="M258.22,42.21a69.48,69.48,0,0,1,20.07-10.6S250.26,16.62,258.22,42.21Z" transform="translate(-256.8 13.75)"/><path class="cls-191" d="M258.22,42.21s.18-10.29,20.07-10.6Z" transform="translate(-256.8 13.75)"/></g></g></g></svg>