<svg xmlns="http://www.w3.org/2000/svg" xmlns:xlink="http://www.w3.org/1999/xlink" viewBox="0 0 630.01 376.68"><defs><style>.cls-1{fill:none;}.cls-2{isolation:isolate;}.cls-3{clip-path:url(#clip-path);}.cls-10,.cls-4,.cls-5,.cls-9{mix-blend-mode:screen;}.cls-4{fill:url(#Безымянный_градиент_6);}.cls-5{fill:url(#Безымянный_градиент_558);}.cls-6{fill:#fff;}.cls-11,.cls-6,.cls-8{fill-rule:evenodd;}.cls-7{opacity:0.2;}.cls-8{fill:#635eb0;}.cls-9{fill:url(#Безымянный_градиент_223);}.cls-10{fill:url(#Безымянный_градиент_207);}.cls-11{fill:#a2bbff;}</style><clipPath id="clip-path" transform="translate(-135.8 29.43)"><rect class="cls-1" width="800" height="400"/></clipPath><radialGradient id="Безымянный_градиент_6" cx="-1179.23" cy="288.56" r="44.12" gradientTransform="translate(3318.54 -559.67) scale(2.39 2.37)" gradientUnits="userSpaceOnUse"><stop offset="0" stop-color="#6a229d"/><stop offset="0.16" stop-color="#672199"/><stop offset="0.32" stop-color="#5f1e8c"/><stop offset="0.48" stop-color="#511a78"/><stop offset="0.64" stop-color="#3d145b"/><stop offset="0.81" stop-color="#240c36"/><stop offset="0.97" stop-color="#060209"/><stop offset="1"/></radialGradient><radialGradient id="Безымянный_градиент_558" cx="-1178.29" cy="286.87" r="37.64" gradientTransform="translate(3315.04 -560.09) scale(2.39 2.37)" gradientUnits="userSpaceOnUse"><stop offset="0" stop-color="#0037a4"/><stop offset="0.15" stop-color="#0036a0"/><stop offset="0.31" stop-color="#003294"/><stop offset="0.47" stop-color="#002b7f"/><stop offset="0.63" stop-color="#002163"/><stop offset="0.79" stop-color="#00153e"/><stop offset="0.95" stop-color="#000611"/><stop offset="1"/></radialGradient><radialGradient id="Безымянный_градиент_223" cx="-1179.93" cy="286.99" r="64.29" gradientTransform="translate(3316.39 -557.4) scale(2.39 2.37)" gradientUnits="userSpaceOnUse"><stop offset="0" stop-color="#0053c2"/><stop offset="1"/></radialGradient><radialGradient id="Безымянный_градиент_207" cx="-1179.93" cy="286.99" r="43.83" gradientTransform="translate(3316.39 -557.4) scale(2.39 2.37)" gradientUnits="userSpaceOnUse"><stop offset="0" stop-color="#0053c2"/><stop offset="0.13" stop-color="#004cb1"/><stop offset="0.38" stop-color="#003884"/><stop offset="0.73" stop-color="#001a3c"/><stop offset="1"/></radialGradient></defs><g class="cls-2"><g id="canyon"><g class="cls-3"><ellipse class="cls-4" cx="495.32" cy="125.29" rx="105.62" ry="104.73" transform="translate(-79.32 416.37) rotate(-45)"/><ellipse class="cls-5" cx="494.07" cy="120.86" rx="90.11" ry="89.34" transform="translate(-76.55 414.19) rotate(-45)"/><path class="cls-6" d="M562.54,121.72a67.83,67.83,0,1,1-135.66,0,68.8,68.8,0,0,1,.4-7.36,67.83,67.83,0,0,1,135.26,7.36Z" transform="translate(-135.8 29.43)"/><g class="cls-7"><path class="cls-8" d="M477.58,167.57a16.21,16.21,0,0,0,2.87,4.93c1.58,1.64,2.81,1.95,4.86,2.54,1.19.35,1.43.77,2.95.74a16.88,16.88,0,0,1,3.33,0c2.15.49,3.3,2.4,5.71,2.53s3.76-.63,5.75-1.24,4-1.39,5.77-2c1.9-.72,3.59-1.22,5.55-1.85s3.18-2.08,5.81-1.34c.17,1-.07,2.53,1.13,3,.83.33,2.2-.54,3.08-.88,2.3-.88,4.39-1.37,6.57-2.28a10.4,10.4,0,0,0,2.9-1.22c1-.76,2.14-1.33,3.21-2.05,2-1.32,3.93-2.76,5.91-4.11,3.79-2.58,6.24-6.12,8.54-9.86a30.13,30.13,0,0,0,2.67-6.39c.94-2.76.63-3.55-1.23-5.81-3.32,1.38-4.64-.67-3.72-4.23a24.59,24.59,0,0,0,.46-10.5c-.12-.57-.57-1-.66-1.8a16.1,16.1,0,0,0-.16-2.49,14,14,0,0,1-.64-4.11,19.79,19.79,0,0,0-.18-4.93,9.6,9.6,0,0,1-.66-2.46,12.81,12.81,0,0,0-.17-3.1c-.79-2.74-3.3-3.51-5.56-4.29-1.55-.54-2.33-1.07-3.31,0s-.79,2.66-.8,4.12c0,2.75,1.75,5.17,3.28,7.4.69,1,1.88,1.94,1.71,3.31-.1.75-1,.86-1,1.61.07.92,1.06,1.2,1.55,1.83,3.92,5.12-3.47,9.63-7,12.35-2,1.55-5,2.34-5.79,4.91-.82,2.75,1.07,5,2.07,7.4s2,6.76.43,9.07a7.05,7.05,0,0,1-2.89,2c-1.45.69-2,1.56-3.27,2.48a10.93,10.93,0,0,1-7.21,1.85,7.64,7.64,0,0,1-4.1-1.66c-1-.69-2.31-1.95-3.48-2.28a13.55,13.55,0,0,0-2.3-.17c-1.16-.14-1.38-.62-2.4-.88-1.75-.45-3,.78-4.36,1.48-1.16.59-2.53,1.43-3.94,1.07s-2.94-1.23-4.25-1.5c-3.13-.65-8.21-.88-10.72,1.25-1.27,1.08-1.71,2.58-2.84,3.71S477.92,165.05,477.58,167.57Z" transform="translate(-135.8 29.43)"/><path class="cls-8" d="M540,96.09c-3,.06-5.78-2.21-8.23-3.91a15.57,15.57,0,0,1-5.12-5.75c-.29-.65-.39-1.19-.62-1.84,0-.15-.78-2.1-.78-2.16A5.93,5.93,0,0,1,527.09,79c2.44-2.52,6.19-.71,8.64.82a40.09,40.09,0,0,1,6.53,4.93,15.17,15.17,0,0,1,2.91,2.86c.89,1.5.63,3.33.61,5.15,0,2.78,3.59,6-.81,6.59-1.72.24-7-1.22-7.41-3.3Z" transform="translate(-135.8 29.43)"/><path class="cls-8" d="M485.8,184c-.75.83-1.63.26-2.48,0a7.54,7.54,0,0,0-2.45-.4,19.89,19.89,0,0,1-5.14-.41c-1.62-.4-3.17-.64-4.72-1-.62-.15-1.21-.5-1.84-.63-.38-.08-.82,0-1.21,0-.18,0-.2-.25-.33-.28-.32-.07-.62,0-.93-.08a36.83,36.83,0,0,1-4.41-1.16,6.73,6.73,0,0,1-1.86-.59c-.64-.38-1.5-.81-2.07-1.23-2.21-1.64-4.64-3-6.66-5s-3.87-3.67-5.87-5.45c-.46-.41-.83-.95-1.32-1.34a13.38,13.38,0,0,1-1.54-1.12,24.8,24.8,0,0,1-2.67-3.4c-1.63-2.34-3.71-4.26-5-6.82-.62-1.24-1.18-2.45-1.9-3.63a17.56,17.56,0,0,1-1.25-2.49c-.25-.61-.75-1.34-.92-1.93-.26-.89-.25-1.73-.49-2.59-.11-.38-.36-.63-.45-1s.14-1,0-1.47-.35-.6-.45-1,.14-1,0-1.48-.35-.59-.45-1,.17-1.16,0-1.68-.35-.58-.44-1a7.92,7.92,0,0,1,0-1.46c0-1-.36-1.87-.42-2.87a13.39,13.39,0,0,1,0-3.1c.08-.41.35-.6.44-1s-.13-1.08.05-1.63c1.11-.29.76,2.06.75,2.64,0,1.06.44,1.64.41,2.67,0,1.27.51,1.44,1.26,2.37a7.43,7.43,0,0,1,1.23,1.71c.11.35.1.92.18,1.26a3.86,3.86,0,0,1,.21,1.23c0,1-.07,1.51.71,2.16a6.27,6.27,0,0,0,2.14,1.15c.94.21,1.75.2,2.71.37.43.08.59.36,1,.45s1.08-.2,1.58.06a3.65,3.65,0,0,1,1.23,1.66,3,3,0,0,1-.32,2.37c-.14.27-.25.56-.41.82s-.58.6-.74.9c-.78,1.42.34,3.74.65,4.94.12.47.82,1.89.43,2.31s-2.71.06-3.15-.19c-.26.52.23,1.51.38,2.07a9.21,9.21,0,0,0,.88,2.19,9,9,0,0,0,3.35,3c.83.44,1.34.67,1.49-.45.07-.51-.07-.79.18-1.26s.53-.38.66-.79-.15-1,0-1.47.32-.55.39-.84c.23-1-.15-2.06,0-3.05.33-2,1.8-2.86,3.51-3.28a30.75,30.75,0,0,0,5.11-1.65,8.16,8.16,0,0,1,5.78-.51,26.47,26.47,0,0,1,4.26,2.21,15.8,15.8,0,0,0,1.91.76c.75.29,1.53.57,2.29.79a17.7,17.7,0,0,1,4.17,1.36,12.68,12.68,0,0,1,3.6,2.78c.8,1.09,1.57,3.33,1,4.7-.44,1-2,1.94-2.74,2.81-1.27,1.48-.93,2.46,0,4a8.87,8.87,0,0,1,1.09,1.9,10.79,10.79,0,0,1,0,2.84,3.57,3.57,0,0,1-.71,2c-.4.61-1.35,1-1.67,1.61s0,.84.21,1.26c.07.12.27.16.33.28.16.3.06.57.18.85.41.94,1.22.8,2.07,1a3.82,3.82,0,0,0,2.47-.19,4.26,4.26,0,0,1,1.21-.43c.61-.1.9.23,1.34.32,1,.21,1.59-.48,2.59-.54a2.43,2.43,0,0,1,1.94.94c.52.52,1.25,1.39,1.16,2.17S486.36,183.26,485.8,184Z" transform="translate(-135.8 29.43)"/><path class="cls-8" d="M478,153.19a5.94,5.94,0,0,1,.72-.35,9.89,9.89,0,0,0,2.16,2c1.2.76,1.79.28,2.06-1,.14-.66-.21-1.06-.33-1.54s0-1.13-.59-1.47c-.8-.47-3.13-.23-2.79,1.15Z" transform="translate(-135.8 29.43)"/><path class="cls-8" d="M438.55,100.2a.7.7,0,0,1-.76.38,7.62,7.62,0,0,1,0-2.61c.08-.38.33-.57.39-1a11.11,11.11,0,0,1,.08-1.15c.11-.51.53-1.32.64-1.83a9,9,0,0,1,.51-2c.3-.66.46-1.53.76-2.29a12.77,12.77,0,0,1,1-1.82c.76-1.24,1.38-2.45,2.16-3.71a24.93,24.93,0,0,1,5-6.15c.7-.59,1.5-1,2.24-1.55.25-.18.45-.46.69-.62s.63-.24.85-.39c.64-.47,2.48-2.34,3.32-1.89-.58,1.52-1.58,3.05-2.31,4.55-.84,1.72-2.43,1.65-3.69,2.87-2,1.92,1.32,2.72,2.46,3.47s1.14,1.79,1.13,3a9.32,9.32,0,0,0,.41,3.08,11.92,11.92,0,0,1,.43,1.44c0,.28,0,.56,0,.84a.57.57,0,0,0,.34.48c.26,1.18-.23,1.87-.63,2.88A6.47,6.47,0,0,1,452,98.86c-.8.75-1.69.5-2.77.51a5.25,5.25,0,0,1-1.64-.32c-.41-.1-1-.34-1.32-.4-.5-.1-1-.08-1.47-.19s-.54-.4-1.23-.22-1.38,1-2.12,1.16c-1,.23-2.21-.26-3.24,0C438.19,99.56,438.16,99.67,438.55,100.2Z" transform="translate(-135.8 29.43)"/></g><ellipse class="cls-9" cx="491.5" cy="123.83" rx="153.91" ry="152.6" transform="translate(-79.41 413.24) rotate(-45)"/><ellipse class="cls-10" cx="491.5" cy="123.83" rx="104.92" ry="104.03" transform="translate(-79.41 413.24) rotate(-45)"/><polygon class="cls-11" points="630.01 29.43 614.13 34.43 605.58 39.76 573.02 40.43 566.53 42.96 566.51 49.76 561.76 54.52 520.92 95.43 517.66 95.43 517.66 111.76 507.49 111.76 503.82 114.76 495.27 128.09 463.52 147.09 464.51 158.68 451.11 177.29 438.47 171.77 431.8 174.46 404.67 199.09 395.76 195.93 362.53 202.05 362.53 207.85 341.2 219.81 338.66 251.53 319.13 267.55 310.77 267.55 305.13 278.62 285.52 354.98 304.32 277.51 310.23 265.68 319.13 266.12 338.13 250.2 340.54 218.84 361.87 206.59 362.12 201.38 366.25 200.55 391.28 195.93 396.04 194.59 404.53 198.19 430.7 173.79 438.7 170.68 450.45 175.43 451.95 174.67 463.52 158.68 462.37 146.59 495.12 126.71 502.95 114.19 507.2 110.75 517.12 110.75 516.74 95.22 517.66 94.68 520.66 94.97 537.45 78.22 562.53 51.68 564.98 49.76 564.98 42.43 573.02 39.42 604.95 39.09 614.12 33.26 624.45 29.43 630.01 29.43"/><polygon class="cls-11" points="517.66 111.76 518.66 126.71 517.66 126.71 515.06 111.76 517.66 111.76"/><polygon class="cls-11" points="337.37 252.59 337.69 272.1 341.2 219.81 337.37 252.59"/><polygon class="cls-11" points="0 29.43 16.68 40.76 16.95 45.61 36.75 63.76 42.61 71.93 87.48 86.43 102 111.93 103.81 156.43 136.75 173.93 135.89 190.43 152.82 205.18 156.72 205.18 165.01 229.43 172.27 227.43 175.65 229.43 189.09 261.43 194.06 276.18 196.39 295.68 194.06 300.43 196.39 376.68 194.7 300.18 197.7 294.76 194.7 273.99 190.44 260.43 176.62 228.78 172.45 226.09 166.12 228.01 157.28 204.62 153.62 204.62 136.75 190.43 137.28 173.18 136.27 172.26 104.62 155.34 102.91 111.51 95.64 97.26 87.48 85.34 44.69 70.8 38.32 63.76 17.95 45.05 17.95 39.36 5.01 29.43 0 29.43"/><polygon class="cls-11" points="158.98 209.12 159.96 199.1 182.01 182.43 186.13 183.76 196.39 204.62 200.83 205.58 214.09 228.67 219.51 254 235.14 266.27 242.16 292.14 244.8 291.15 254.12 292.54 264.2 311.48 271.53 316.69 284.65 357.39 272.03 315.51 264.2 310.59 254.7 291.15 243.78 289.87 242.16 290.51 235.76 265.49 219.95 253.33 214.82 227.47 201.39 205.18 196.95 203.93 186.82 183.24 181.64 180.86 159.23 198.59 157.66 207.03 158.98 209.12"/></g></g></g></svg>