<svg id="canyon" xmlns="http://www.w3.org/2000/svg" xmlns:xlink="http://www.w3.org/1999/xlink" viewBox="0 0 800.68 479.96"><defs><style>.cls-1{fill:none;}.cls-2{clip-path:url(#clip-path);}.cls-3,.cls-5,.cls-6,.cls-9{fill-rule:evenodd;}.cls-3{fill:url(#Безымянный_градиент_368);}.cls-4{opacity:0.5;}.cls-10,.cls-5{fill:#fff;}.cls-6,.cls-7{fill:#b8d3ff;}.cls-8,.cls-9{fill:#9d6dff;}</style><clipPath id="clip-path" transform="translate(0.68 95.96)"><rect class="cls-1" width="800" height="400"/></clipPath><linearGradient id="Безымянный_градиент_368" x1="400.34" y1="479.96" x2="400.34" y2="95.96" gradientUnits="userSpaceOnUse"><stop offset="0" stop-color="#c5aeff"/><stop offset="0.11" stop-color="#aea4f3"/><stop offset="0.34" stop-color="#738ad3"/><stop offset="0.6" stop-color="#2c6cae"/><stop offset="0.82" stop-color="#2d347d"/><stop offset="1" stop-color="#2e0452"/></linearGradient></defs><g class="cls-2"><polygon class="cls-3" points="794.62 452.96 0 479.96 0 95.96 800.68 95.96 794.62 452.96"/><g class="cls-4"><path class="cls-5" d="M255.23,119.55a1.29,1.29,0,1,1-1.29-1.29A1.29,1.29,0,0,1,255.23,119.55Z" transform="translate(0.68 95.96)"/><path class="cls-6" d="M222.08,38.69a1.3,1.3,0,1,1-1.3-1.3A1.3,1.3,0,0,1,222.08,38.69Z" transform="translate(0.68 95.96)"/><path class="cls-6" d="M211.29,50.55A1.29,1.29,0,1,1,210,49.26,1.29,1.29,0,0,1,211.29,50.55Z" transform="translate(0.68 95.96)"/><path class="cls-6" d="M161,95.12a1.29,1.29,0,1,1-1.29-1.29A1.29,1.29,0,0,1,161,95.12Z" transform="translate(0.68 95.96)"/><path class="cls-5" d="M253.94,95.12a1.29,1.29,0,1,1-1.29-1.29A1.29,1.29,0,0,1,253.94,95.12Z" transform="translate(0.68 95.96)"/><path class="cls-6" d="M159.67,72.34a1.3,1.3,0,1,1-1.29-1.3A1.29,1.29,0,0,1,159.67,72.34Z" transform="translate(0.68 95.96)"/><circle class="cls-7" cx="271.83" cy="220.81" r="0.91"/><circle class="cls-7" cx="146.01" cy="191.08" r="0.91"/><circle class="cls-8" cx="234.7" cy="207.13" r="0.91"/><circle class="cls-7" cx="279.83" cy="155.25" r="0.91"/><circle class="cls-7" cx="280.52" cy="193.97" r="0.91"/><path class="cls-9" d="M228,100.45a.67.67,0,1,1-1.34,0,.67.67,0,1,1,1.34,0Z" transform="translate(0.68 95.96)"/><circle class="cls-7" cx="183.08" cy="186.53" r="0.67"/><path class="cls-6" d="M135.67,55.35a.67.67,0,1,1-.67-.67A.67.67,0,0,1,135.67,55.35Z" transform="translate(0.68 95.96)"/><path class="cls-6" d="M256.79,114.47a.43.43,0,0,1-.86,0,.43.43,0,1,1,.86,0Z" transform="translate(0.68 95.96)"/><circle class="cls-8" cx="232.31" cy="206.7" r="0.43"/><path class="cls-9" d="M232.5,120.84a.44.44,0,1,1-.43-.43A.43.43,0,0,1,232.5,120.84Z" transform="translate(0.68 95.96)"/><circle class="cls-8" cx="238.26" cy="214.22" r="0.43"/><path class="cls-9" d="M226.51,120.15a.43.43,0,1,1-.43-.43A.43.43,0,0,1,226.51,120.15Z" transform="translate(0.68 95.96)"/><path class="cls-6" d="M260.61,86.68a.43.43,0,1,1-.43-.43A.43.43,0,0,1,260.61,86.68Z" transform="translate(0.68 95.96)"/><path class="cls-6" d="M239.61,111.39a.21.21,0,0,1-.21.21.22.22,0,1,1,0-.43A.21.21,0,0,1,239.61,111.39Z" transform="translate(0.68 95.96)"/><path class="cls-6" d="M183.62,159.57a.27.27,0,1,1-.27-.27A.27.27,0,0,1,183.62,159.57Z" transform="translate(0.68 95.96)"/><path class="cls-6" d="M188,111.6a.21.21,0,0,1-.21.22.22.22,0,0,1-.22-.22.21.21,0,0,1,.22-.21A.21.21,0,0,1,188,111.6Z" transform="translate(0.68 95.96)"/><path class="cls-6" d="M139.22,108.56a.22.22,0,0,1-.22.22.21.21,0,0,1-.21-.22.21.21,0,0,1,.21-.21A.22.22,0,0,1,139.22,108.56Z" transform="translate(0.68 95.96)"/><path class="cls-6" d="M212.81,108.35a.21.21,0,0,1-.21.21.21.21,0,0,1-.22-.21.22.22,0,0,1,.22-.22A.21.21,0,0,1,212.81,108.35Z" transform="translate(0.68 95.96)"/><path class="cls-6" d="M182.61,110.31a.21.21,0,0,1-.21.21.21.21,0,0,1-.22-.21.22.22,0,0,1,.22-.22A.21.21,0,0,1,182.61,110.31Z" transform="translate(0.68 95.96)"/><path class="cls-9" d="M236.38,114.9a.21.21,0,0,1-.21.21.21.21,0,0,1-.22-.21.22.22,0,0,1,.22-.22A.21.21,0,0,1,236.38,114.9Z" transform="translate(0.68 95.96)"/><path class="cls-6" d="M195.61,115.11a.22.22,0,0,1-.44,0,.22.22,0,0,1,.44,0Z" transform="translate(0.68 95.96)"/><path class="cls-6" d="M139,115.74a.21.21,0,0,1-.21.21.21.21,0,0,1-.22-.21.22.22,0,1,1,.43,0Z" transform="translate(0.68 95.96)"/><circle class="cls-8" cx="238.26" cy="203.88" r="0.43"/><path class="cls-9" d="M218.25,107.49a.43.43,0,0,1-.43.43.43.43,0,0,1,0-.86A.43.43,0,0,1,218.25,107.49Z" transform="translate(0.68 95.96)"/><circle class="cls-7" cx="136.78" cy="185.22" r="0.43"/><path class="cls-6" d="M226.51,56a.43.43,0,1,1-.43-.43A.43.43,0,0,1,226.51,56Z" transform="translate(0.68 95.96)"/><path class="cls-6" d="M210.32,27.91a.43.43,0,1,1-.43-.43A.44.44,0,0,1,210.32,27.91Z" transform="translate(0.68 95.96)"/><circle class="cls-7" cx="204.26" cy="217.97" r="0.43"/><circle class="cls-7" cx="134.58" cy="184.79" r="0.43"/><circle class="cls-7" cx="164.5" cy="135.94" r="0.43"/><path class="cls-6" d="M200.26,28.78a.44.44,0,0,1-.43.43.43.43,0,0,1-.43-.43.43.43,0,0,1,.43-.43A.43.43,0,0,1,200.26,28.78Z" transform="translate(0.68 95.96)"/><circle class="cls-7" cx="134.15" cy="158.92" r="0.43"/><circle class="cls-7" cx="172.29" cy="141.61" r="0.43"/><path class="cls-6" d="M212.6,87.11a.43.43,0,0,1-.43.43.43.43,0,1,1,0-.86A.43.43,0,0,1,212.6,87.11Z" transform="translate(0.68 95.96)"/><path class="cls-6" d="M141.05,57.33a.43.43,0,0,1-.43.43.43.43,0,0,1-.43-.43.44.44,0,0,1,.43-.43A.43.43,0,0,1,141.05,57.33Z" transform="translate(0.68 95.96)"/><path class="cls-6" d="M204.92,67.31a.43.43,0,0,1-.86,0,.43.43,0,1,1,.86,0Z" transform="translate(0.68 95.96)"/><path class="cls-6" d="M140.08,35.12a.43.43,0,0,1-.43.43.43.43,0,1,1,0-.86A.43.43,0,0,1,140.08,35.12Z" transform="translate(0.68 95.96)"/><path class="cls-6" d="M234.46,84.63a.43.43,0,0,1-.86,0,.43.43,0,1,1,.86,0Z" transform="translate(0.68 95.96)"/><circle class="cls-7" cx="632.72" cy="172.57" r="0.76"/><circle class="cls-7" cx="378.11" cy="106.88" r="1.29"/><path class="cls-6" d="M317.17,68a1.29,1.29,0,1,1,0,1.82A1.29,1.29,0,0,1,317.17,68Z" transform="translate(0.68 95.96)"/><path class="cls-6" d="M325.38,34.19a.91.91,0,1,1,0,1.29A.92.92,0,0,1,325.38,34.19Z" transform="translate(0.68 95.96)"/><circle class="cls-7" cx="607.52" cy="148.21" r="0.54"/><path class="cls-6" d="M300.26,47a.92.92,0,1,1,0,1.3A.92.92,0,0,1,300.26,47Z" transform="translate(0.68 95.96)"/><circle class="cls-7" cx="605.83" cy="155.42" r="0.39"/><path class="cls-6" d="M643.54,54.32a.25.25,0,1,1,0,.36A.25.25,0,0,1,643.54,54.32Z" transform="translate(0.68 95.96)"/><path class="cls-6" d="M607.47,53.24a.25.25,0,1,1,0,.36A.25.25,0,0,1,607.47,53.24Z" transform="translate(0.68 95.96)"/><path class="cls-6" d="M611.49,48.86a.25.25,0,1,1,.36.36.25.25,0,0,1-.36-.36Z" transform="translate(0.68 95.96)"/><path class="cls-6" d="M608.12,47.64a.27.27,0,0,1,.36,0,.25.25,0,1,1-.36,0Z" transform="translate(0.68 95.96)"/><circle class="cls-7" cx="307.47" cy="165.54" r="0.43"/><path class="cls-6" d="M604.6,49.84a.13.13,0,1,1,.18.18.15.15,0,0,1-.18,0A.13.13,0,0,1,604.6,49.84Z" transform="translate(0.68 95.96)"/><path class="cls-6" d="M557.38,127.75a.13.13,0,1,1,0,.18A.13.13,0,0,1,557.38,127.75Z" transform="translate(0.68 95.96)"/><circle class="cls-7" cx="284.13" cy="126.74" r="0.22"/><path class="cls-6" d="M607.41,49.72a.11.11,0,0,1,.17,0,.13.13,0,0,1,0,.18.11.11,0,0,1-.17,0A.13.13,0,0,1,607.41,49.72Z" transform="translate(0.68 95.96)"/><path class="cls-6" d="M603.83,51.94a.25.25,0,0,1,.36,0,.27.27,0,0,1,0,.36.25.25,0,1,1-.36-.36Z" transform="translate(0.68 95.96)"/><path class="cls-6" d="M611.86,60.33a.25.25,0,0,1,.36,0,.25.25,0,0,1-.36.36A.25.25,0,0,1,611.86,60.33Z" transform="translate(0.68 95.96)"/><path class="cls-6" d="M265.65,30.9a.45.45,0,0,1,.61,0,.43.43,0,1,1-.61,0Z" transform="translate(0.68 95.96)"/><path class="cls-6" d="M548.65,136.66a.24.24,0,0,1,.35,0,.25.25,0,0,1,0,.36.24.24,0,0,1-.35,0A.25.25,0,0,1,548.65,136.66Z" transform="translate(0.68 95.96)"/><circle class="cls-7" cx="324.51" cy="185.49" r="0.43"/><circle class="cls-7" cx="575.72" cy="215.8" r="0.76"/><circle class="cls-7" cx="612.74" cy="200.49" r="0.76"/><circle class="cls-7" cx="591.09" cy="204.81" r="0.76"/><circle class="cls-7" cx="566.11" cy="226.49" r="0.76"/><circle class="cls-7" cx="568.46" cy="234.38" r="0.76"/><path class="cls-6" d="M569.72,110.11a.54.54,0,1,1,0,.76A.54.54,0,0,1,569.72,110.11Z" transform="translate(0.68 95.96)"/><circle class="cls-7" cx="600.66" cy="192.53" r="0.54"/><circle class="cls-7" cx="596.37" cy="196.7" r="0.54"/><path class="cls-6" d="M579.46,131.22a.53.53,0,0,1,.75,0,.54.54,0,0,1,0,.76.53.53,0,0,1-.75,0A.54.54,0,0,1,579.46,131.22Z" transform="translate(0.68 95.96)"/><circle class="cls-7" cx="613.11" cy="148.47" r="0.54"/><circle class="cls-7" cx="578.83" cy="234.77" r="0.39"/><path class="cls-6" d="M581,146.25a.39.39,0,0,1,.56,0,.4.4,0,1,1-.56,0Z" transform="translate(0.68 95.96)"/><circle class="cls-7" cx="566.87" cy="232.41" r="0.39"/><circle class="cls-7" cx="543.99" cy="246.88" r="0.39"/><path class="cls-6" d="M571.75,120.77a.24.24,0,0,1,.35,0,.25.25,0,0,1,0,.36.24.24,0,0,1-.35,0A.25.25,0,0,1,571.75,120.77Z" transform="translate(0.68 95.96)"/><path class="cls-6" d="M580.47,132.59a.25.25,0,1,1,0,.36A.25.25,0,0,1,580.47,132.59Z" transform="translate(0.68 95.96)"/><path class="cls-6" d="M567.83,135.87a.25.25,0,0,1,.36,0,.24.24,0,0,1,0,.35.25.25,0,0,1-.36,0A.24.24,0,0,1,567.83,135.87Z" transform="translate(0.68 95.96)"/><path class="cls-6" d="M596.05,130.35a.24.24,0,0,1,.35,0,.25.25,0,0,1,0,.36.26.26,0,0,1-.35,0A.25.25,0,0,1,596.05,130.35Z" transform="translate(0.68 95.96)"/><path class="cls-6" d="M603.74,128.47a.25.25,0,0,1,.36,0,.25.25,0,1,1-.36.36A.25.25,0,0,1,603.74,128.47Z" transform="translate(0.68 95.96)"/><path class="cls-6" d="M584.49,128.22a.25.25,0,1,1,0,.35A.24.24,0,0,1,584.49,128.22Z" transform="translate(0.68 95.96)"/><circle class="cls-7" cx="310.97" cy="153.29" r="0.43"/><path class="cls-6" d="M617.78,96.9a.25.25,0,1,1,0,.36A.27.27,0,0,1,617.78,96.9Z" transform="translate(0.68 95.96)"/><path class="cls-6" d="M581.12,127a.25.25,0,0,1,.36,0,.24.24,0,0,1,0,.35.25.25,0,0,1-.36,0A.24.24,0,0,1,581.12,127Z" transform="translate(0.68 95.96)"/><path class="cls-6" d="M558.62,130.73a.24.24,0,0,1,.35,0,.25.25,0,0,1,0,.36.26.26,0,0,1-.35,0A.25.25,0,0,1,558.62,130.73Z" transform="translate(0.68 95.96)"/><circle class="cls-7" cx="260.86" cy="150.26" r="0.43"/><path class="cls-6" d="M577.6,129.19a.13.13,0,1,1,.18.18.15.15,0,0,1-.18,0A.13.13,0,0,1,577.6,129.19Z" transform="translate(0.68 95.96)"/><path class="cls-6" d="M557.63,133.29a.13.13,0,1,1,0,.18A.13.13,0,0,1,557.63,133.29Z" transform="translate(0.68 95.96)"/><path class="cls-6" d="M561.1,131a.13.13,0,1,1,0,.18A.13.13,0,0,1,561.1,131Z" transform="translate(0.68 95.96)"/><circle class="cls-7" cx="323.86" cy="151.31" r="0.22"/><path class="cls-6" d="M587.47,141.58a.13.13,0,1,1,0,.18A.15.15,0,0,1,587.47,141.58Z" transform="translate(0.68 95.96)"/><path class="cls-6" d="M587.6,150.46a.13.13,0,1,1,.18.18.15.15,0,0,1-.18,0A.13.13,0,0,1,587.6,150.46Z" transform="translate(0.68 95.96)"/><circle class="cls-7" cx="275" cy="203.16" r="0.22"/><path class="cls-6" d="M582.78,150.58a.13.13,0,1,1,0,.18A.13.13,0,0,1,582.78,150.58Z" transform="translate(0.68 95.96)"/><path class="cls-6" d="M582.65,148.92a.13.13,0,1,1,0,.18A.13.13,0,0,1,582.65,148.92Z" transform="translate(0.68 95.96)"/><path class="cls-6" d="M566.93,137.46a.13.13,0,1,1,0,.18A.13.13,0,0,1,566.93,137.46Z" transform="translate(0.68 95.96)"/><path class="cls-6" d="M580.4,129.07a.13.13,0,1,1,0,.18A.13.13,0,0,1,580.4,129.07Z" transform="translate(0.68 95.96)"/><path class="cls-6" d="M566.1,135.58a.13.13,0,0,1,.18,0,.11.11,0,0,1,0,.17.13.13,0,0,1-.18,0A.11.11,0,0,1,566.1,135.58Z" transform="translate(0.68 95.96)"/><path class="cls-6" d="M576.83,131.29a.24.24,0,0,1,.35,0,.25.25,0,0,1,0,.36.24.24,0,0,1-.35,0A.25.25,0,0,1,576.83,131.29Z" transform="translate(0.68 95.96)"/><path class="cls-6" d="M561.39,135.36a.25.25,0,1,1,0,.36A.25.25,0,0,1,561.39,135.36Z" transform="translate(0.68 95.96)"/><path class="cls-6" d="M564.74,135.61a.25.25,0,1,1,0,.36A.27.27,0,0,1,564.74,135.61Z" transform="translate(0.68 95.96)"/><path class="cls-6" d="M269.93,65.43a.45.45,0,0,1,.61,0,.43.43,0,1,1-.61,0Z" transform="translate(0.68 95.96)"/><path class="cls-6" d="M373.79,7.73a.92.92,0,0,1,1.29,0,.91.91,0,1,1-1.29,0Z" transform="translate(0.68 95.96)"/><path class="cls-6" d="M285.68,46a.42.42,0,0,1,.6,0,.43.43,0,0,1,0,.61.42.42,0,0,1-.6,0A.43.43,0,0,1,285.68,46Z" transform="translate(0.68 95.96)"/><circle class="cls-7" cx="377.61" cy="96.81" r="0.43"/><circle class="cls-7" cx="371.47" cy="100.39" r="0.22"/><circle class="cls-7" cx="376.23" cy="100.19" r="0.22"/><path class="cls-6" d="M369.31,7.86a.43.43,0,0,1,.61,0,.42.42,0,0,1,0,.6.43.43,0,0,1-.61,0A.42.42,0,0,1,369.31,7.86Z" transform="translate(0.68 95.96)"/><circle class="cls-7" cx="341.9" cy="99.32" r="0.43"/><path class="cls-6" d="M584.86,139.68a.24.24,0,0,1,.35,0,.25.25,0,0,1,0,.36.26.26,0,0,1-.35,0A.25.25,0,0,1,584.86,139.68Z" transform="translate(0.68 95.96)"/><path class="cls-6" d="M614.86,116.64a.25.25,0,1,1,0,.36A.27.27,0,0,1,614.86,116.64Z" transform="translate(0.68 95.96)"/><path class="cls-6" d="M608.54,139.93a.25.25,0,1,1,0,.36A.25.25,0,0,1,608.54,139.93Z" transform="translate(0.68 95.96)"/><path class="cls-6" d="M574.1,148.7a.25.25,0,1,1,0,.36A.25.25,0,0,1,574.1,148.7Z" transform="translate(0.68 95.96)"/><path class="cls-6" d="M618.36,114.38a.25.25,0,1,1,0,.36A.25.25,0,0,1,618.36,114.38Z" transform="translate(0.68 95.96)"/><circle class="cls-7" cx="301.26" cy="198.75" r="0.91"/><circle class="cls-7" cx="302.5" cy="170.92" r="0.91"/><path class="cls-6" d="M144.69,104a.91.91,0,1,1,0,1.29A.91.91,0,0,1,144.69,104Z" transform="translate(0.68 95.96)"/><circle class="cls-7" cx="298.39" cy="211.03" r="0.67"/><path class="cls-6" d="M301.66,104.48a.43.43,0,1,1,.61.61.45.45,0,0,1-.61,0A.43.43,0,0,1,301.66,104.48Z" transform="translate(0.68 95.96)"/><circle class="cls-7" cx="309.48" cy="193.29" r="0.43"/><path class="cls-6" d="M316.49,71.37a.42.42,0,0,1,.6,0,.43.43,0,0,1,0,.61.42.42,0,0,1-.6,0A.43.43,0,0,1,316.49,71.37Z" transform="translate(0.68 95.96)"/><path class="cls-6" d="M302.77,95a.45.45,0,0,1,.61,0,.43.43,0,1,1-.61,0Z" transform="translate(0.68 95.96)"/><circle class="cls-7" cx="297.61" cy="194.8" r="0.22"/><circle class="cls-7" cx="289.38" cy="212.51" r="0.22"/><path class="cls-6" d="M313.59,119.78a.22.22,0,0,1,.3,0,.21.21,0,0,1,0,.31.22.22,0,0,1-.3,0A.21.21,0,0,1,313.59,119.78Z" transform="translate(0.68 95.96)"/><path class="cls-6" d="M301.55,98.49a.21.21,0,0,1,.31,0,.22.22,0,0,1,0,.3.23.23,0,0,1-.31,0A.22.22,0,0,1,301.55,98.49Z" transform="translate(0.68 95.96)"/><circle class="cls-7" cx="296.44" cy="198.53" r="0.43"/><circle class="cls-7" cx="267.07" cy="198.26" r="0.43"/><circle class="cls-7" cx="310.11" cy="212.81" r="0.43"/><path class="cls-6" d="M578.74,150.49a.25.25,0,1,1,0,.36A.25.25,0,0,1,578.74,150.49Z" transform="translate(0.68 95.96)"/><circle class="cls-7" cx="583.17" cy="258.04" r="0.25"/><circle class="cls-7" cx="569.49" cy="238.58" r="0.25"/><circle class="cls-7" cx="239.31" cy="262.92" r="1.34"/><circle class="cls-7" cx="204.8" cy="178.78" r="1.34"/><path class="cls-6" d="M194.24,95.17a1.35,1.35,0,1,1-1.34-1.35A1.34,1.34,0,0,1,194.24,95.17Z" transform="translate(0.68 95.96)"/><circle class="cls-10" cx="141.2" cy="237.5" r="1.34"/><circle class="cls-7" cx="237.96" cy="237.5" r="1.34"/><circle class="cls-7" cx="139.86" cy="213.79" r="1.34"/><path class="cls-6" d="M257.48,172.48a1,1,0,0,1-1.9,0,1,1,0,0,1,1.9,0Z" transform="translate(0.68 95.96)"/><path class="cls-6" d="M218.85,158.24a1,1,0,1,1-.95-1A.95.95,0,0,1,218.85,158.24Z" transform="translate(0.68 95.96)"/><circle class="cls-7" cx="265.53" cy="200.22" r="0.95"/><path class="cls-6" d="M266.52,144.55a.95.95,0,0,1-1.9,0,1,1,0,0,1,1.9,0Z" transform="translate(0.68 95.96)"/><path class="cls-6" d="M211.68,147.09a.7.7,0,1,1-1.4,0,.7.7,0,0,1,1.4,0Z" transform="translate(0.68 95.96)"/><path class="cls-6" d="M164.88,136.81a.7.7,0,1,1-.7-.7A.7.7,0,0,1,164.88,136.81Z" transform="translate(0.68 95.96)"/><path class="cls-6" d="M241.59,161.67a.45.45,0,1,1-.45-.44A.45.45,0,0,1,241.59,161.67Z" transform="translate(0.68 95.96)"/><path class="cls-6" d="M215.86,157.8a.45.45,0,1,1-.45-.45A.45.45,0,0,1,215.86,157.8Z" transform="translate(0.68 95.96)"/><path class="cls-6" d="M216.31,168.31a.45.45,0,1,1-.9,0,.45.45,0,0,1,.9,0Z" transform="translate(0.68 95.96)"/><path class="cls-6" d="M222.05,165.62a.45.45,0,1,1-.45-.45A.45.45,0,0,1,222.05,165.62Z" transform="translate(0.68 95.96)"/><path class="cls-6" d="M210.08,167.59a.45.45,0,1,1-.45-.45A.45.45,0,0,1,210.08,167.59Z" transform="translate(0.68 95.96)"/><path class="cls-6" d="M245.56,132.76a.45.45,0,1,1-.45-.45A.45.45,0,0,1,245.56,132.76Z" transform="translate(0.68 95.96)"/><circle class="cls-7" cx="224.17" cy="254.43" r="0.22"/><circle class="cls-7" cx="170.51" cy="254.65" r="0.22"/><path class="cls-6" d="M195.83,155.31a.22.22,0,0,1-.23.22.22.22,0,0,1,0-.44A.22.22,0,0,1,195.83,155.31Z" transform="translate(0.68 95.96)"/><path class="cls-6" d="M164.4,157.35a.22.22,0,0,1-.22.22.22.22,0,0,1-.23-.22.23.23,0,1,1,.45,0Z" transform="translate(0.68 95.96)"/><path class="cls-6" d="M220.35,162.12a.23.23,0,1,1-.22-.22A.22.22,0,0,1,220.35,162.12Z" transform="translate(0.68 95.96)"/><path class="cls-6" d="M177.92,162.35a.22.22,0,0,1-.22.22.23.23,0,1,1,.22-.22Z" transform="translate(0.68 95.96)"/><path class="cls-6" d="M222.05,154.86a.45.45,0,1,1-.45-.45A.45.45,0,0,1,222.05,154.86Z" transform="translate(0.68 95.96)"/><path class="cls-6" d="M201.49,154.41A.45.45,0,1,1,201,154,.45.45,0,0,1,201.49,154.41Z" transform="translate(0.68 95.96)"/><path class="cls-6" d="M210.08,100.86a.45.45,0,1,1-.45-.45A.45.45,0,0,1,210.08,100.86Z" transform="translate(0.68 95.96)"/><path class="cls-6" d="M193.23,71.61a.45.45,0,1,1-.45-.45A.45.45,0,0,1,193.23,71.61Z" transform="translate(0.68 95.96)"/><path class="cls-6" d="M186.67,169.52a.45.45,0,1,1-.45-.45A.45.45,0,0,1,186.67,169.52Z" transform="translate(0.68 95.96)"/><circle class="cls-7" cx="145.52" cy="180.12" r="0.45"/><circle class="cls-7" cx="182.99" cy="168.46" r="0.45"/><circle class="cls-7" cx="153.63" cy="186.03" r="0.45"/><path class="cls-6" d="M195.6,133.21a.45.45,0,1,1-.45-.45A.45.45,0,0,1,195.6,133.21Z" transform="translate(0.68 95.96)"/><path class="cls-6" d="M187.61,112.61a.45.45,0,1,1-.44-.45A.45.45,0,0,1,187.61,112.61Z" transform="translate(0.68 95.96)"/><path class="cls-6" d="M218.35,130.62a.45.45,0,1,1-.89,0,.45.45,0,1,1,.89,0Z" transform="translate(0.68 95.96)"/><circle class="cls-7" cx="323.07" cy="191.33" r="1.34"/><path class="cls-6" d="M265.57,98.11a1.35,1.35,0,1,1,0,1.91A1.35,1.35,0,0,1,265.57,98.11Z" transform="translate(0.68 95.96)"/><path class="cls-6" d="M304.42,113.35a1.33,1.33,0,0,1,1.9,0,1.34,1.34,0,1,1-1.9,1.9A1.33,1.33,0,0,1,304.42,113.35Z" transform="translate(0.68 95.96)"/><circle class="cls-7" cx="314.32" cy="174.77" r="0.95"/><circle class="cls-7" cx="331.57" cy="212.15" r="0.95"/><path class="cls-6" d="M286.82,91.49a1,1,0,1,1,0,1.35A1,1,0,0,1,286.82,91.49Z" transform="translate(0.68 95.96)"/><path class="cls-6" d="M327.4,128.48a.7.7,0,1,1,0,1A.71.71,0,0,1,327.4,128.48Z" transform="translate(0.68 95.96)"/><circle class="cls-7" cx="317.56" cy="193.29" r="0.45"/><path class="cls-6" d="M332,118a.45.45,0,1,1,0,.64A.47.47,0,0,1,332,118Z" transform="translate(0.68 95.96)"/><circle class="cls-7" cx="340.12" cy="206.48" r="0.45"/><path class="cls-6" d="M333.17,108a.45.45,0,0,1,.63,0,.47.47,0,0,1,0,.64.45.45,0,0,1-.63,0A.45.45,0,0,1,333.17,108Z" transform="translate(0.68 95.96)"/><path class="cls-6" d="M293.3,114.65a.45.45,0,1,1,0,.64A.47.47,0,0,1,293.3,114.65Z" transform="translate(0.68 95.96)"/><path class="cls-6" d="M326.93,111.92a.24.24,0,0,1,.32,0,.23.23,0,1,1-.32.32A.24.24,0,0,1,326.93,111.92Z" transform="translate(0.68 95.96)"/><circle class="cls-7" cx="345.26" cy="230" r="0.22"/><path class="cls-6" d="M269.17,74.43a.21.21,0,0,1,.31,0,.22.22,0,0,1,0,.32.23.23,0,0,1-.31,0A.22.22,0,0,1,269.17,74.43Z" transform="translate(0.68 95.96)"/><path class="cls-6" d="M331.89,111.72a.22.22,0,0,1,.32,0,.21.21,0,0,1,0,.31.22.22,0,0,1-.32,0A.23.23,0,0,1,331.89,111.72Z" transform="translate(0.68 95.96)"/><circle class="cls-7" cx="326.55" cy="211.93" r="0.45"/><path class="cls-6" d="M339.78,130.51a.45.45,0,1,1,0,.63A.45.45,0,0,1,339.78,130.51Z" transform="translate(0.68 95.96)"/><circle class="cls-7" cx="251.81" cy="171" r="0.45"/><path class="cls-6" d="M329,149.67a.45.45,0,0,1,.63.63.45.45,0,0,1-.63,0A.43.43,0,0,1,329,149.67Z" transform="translate(0.68 95.96)"/><circle class="cls-7" cx="312.03" cy="231.68" r="0.45"/><path class="cls-5" d="M374.75,118.92a1.35,1.35,0,0,1,1.9,0,1.34,1.34,0,1,1-1.9,1.9A1.35,1.35,0,0,1,374.75,118.92Z" transform="translate(0.68 95.96)"/><path class="cls-6" d="M440.32,91.8a1.35,1.35,0,1,1,0,1.91A1.35,1.35,0,0,1,440.32,91.8Z" transform="translate(0.68 95.96)"/><path class="cls-5" d="M402,99.46a1.33,1.33,0,0,1,1.9,0,1.34,1.34,0,1,1-1.9,1.9A1.33,1.33,0,0,1,402,99.46Z" transform="translate(0.68 95.96)"/><circle class="cls-7" cx="359.35" cy="234.76" r="1.34"/><path class="cls-6" d="M361.89,151.82a1.34,1.34,0,1,1,1.9,1.9,1.34,1.34,0,0,1-1.9-1.9Z" transform="translate(0.68 95.96)"/><circle class="cls-7" cx="367.62" cy="199.27" r="0.95"/><circle class="cls-7" cx="420.56" cy="174.62" r="0.95"/><circle class="cls-7" cx="412.95" cy="182" r="0.95"/><path class="cls-6" d="M383.52,140a1,1,0,0,1,1.34,0,1,1,0,0,1,0,1.35,1,1,0,0,1-1.34,0A1,1,0,0,1,383.52,140Z" transform="translate(0.68 95.96)"/><circle class="cls-7" cx="341.48" cy="212.63" r="0.95"/><circle class="cls-7" cx="381.88" cy="249.43" r="0.7"/><path class="cls-6" d="M386.29,166.65a.7.7,0,1,1,0,1A.69.69,0,0,1,386.29,166.65Z" transform="translate(0.68 95.96)"/><path class="cls-6" d="M359.52,148.8a.7.7,0,1,1,0,1A.71.71,0,0,1,359.52,148.8Z" transform="translate(0.68 95.96)"/><path class="cls-6" d="M319,174.44a.7.7,0,1,1,0,1A.69.69,0,0,1,319,174.44Z" transform="translate(0.68 95.96)"/><path class="cls-6" d="M369.87,121.52a.43.43,0,0,1,.63,0,.45.45,0,0,1,0,.63.45.45,0,1,1-.63-.63Z" transform="translate(0.68 95.96)"/><path class="cls-6" d="M385.32,142.45a.45.45,0,0,1,.63,0,.47.47,0,0,1,0,.64.45.45,0,0,1-.63,0A.45.45,0,0,1,385.32,142.45Z" transform="translate(0.68 95.96)"/><path class="cls-6" d="M362.93,148.25a.45.45,0,0,1,.63,0,.47.47,0,0,1,0,.64.45.45,0,0,1-.63,0A.45.45,0,0,1,362.93,148.25Z" transform="translate(0.68 95.96)"/><path class="cls-6" d="M412.91,138.48a.45.45,0,0,1,.63,0,.47.47,0,0,1,0,.64.45.45,0,0,1-.63,0A.45.45,0,0,1,412.91,138.48Z" transform="translate(0.68 95.96)"/><path class="cls-6" d="M426.53,135.15a.45.45,0,0,1,.63,0,.45.45,0,1,1-.63,0Z" transform="translate(0.68 95.96)"/><path class="cls-6" d="M392.43,134.7a.45.45,0,1,1,0,.64A.47.47,0,0,1,392.43,134.7Z" transform="translate(0.68 95.96)"/><path class="cls-6" d="M297,101.9a.45.45,0,0,1,.63,0,.45.45,0,0,1,0,.64.45.45,0,0,1-.63,0A.45.45,0,0,1,297,101.9Z" transform="translate(0.68 95.96)"/><path class="cls-6" d="M451.41,79.24a.45.45,0,0,1,.63.63.45.45,0,1,1-.63-.63Z" transform="translate(0.68 95.96)"/><path class="cls-6" d="M386.47,132.54a.45.45,0,0,1,.63,0,.45.45,0,0,1,0,.64.45.45,0,0,1-.63,0A.47.47,0,0,1,386.47,132.54Z" transform="translate(0.68 95.96)"/><path class="cls-6" d="M346.61,139.15a.45.45,0,0,1,.63,0,.45.45,0,0,1,0,.64.45.45,0,0,1-.63,0A.45.45,0,0,1,346.61,139.15Z" transform="translate(0.68 95.96)"/><path class="cls-6" d="M244.8,98.75a.45.45,0,1,1,0,.63A.43.43,0,0,1,244.8,98.75Z" transform="translate(0.68 95.96)"/><path class="cls-6" d="M380.24,136.42a.23.23,0,0,1,.32.32.23.23,0,1,1-.32-.32Z" transform="translate(0.68 95.96)"/><path class="cls-6" d="M344.87,143.69a.21.21,0,0,1,.31,0,.22.22,0,0,1,0,.32.23.23,0,0,1-.31,0A.22.22,0,0,1,344.87,143.69Z" transform="translate(0.68 95.96)"/><path class="cls-6" d="M351,139.59a.22.22,0,0,1,.32,0,.23.23,0,0,1,0,.31.22.22,0,0,1-.32,0A.21.21,0,0,1,351,139.59Z" transform="translate(0.68 95.96)"/><path class="cls-6" d="M310.52,100a.23.23,0,0,1,.32.32.24.24,0,0,1-.32,0A.22.22,0,0,1,310.52,100Z" transform="translate(0.68 95.96)"/><path class="cls-6" d="M397.72,158.38a.22.22,0,0,1,.32,0,.21.21,0,0,1,0,.31.22.22,0,0,1-.32,0A.23.23,0,0,1,397.72,158.38Z" transform="translate(0.68 95.96)"/><path class="cls-6" d="M398,174.1a.21.21,0,0,1,.31,0,.22.22,0,0,1,0,.32.23.23,0,0,1-.31,0A.22.22,0,0,1,398,174.1Z" transform="translate(0.68 95.96)"/><path class="cls-6" d="M259.68,154a.21.21,0,0,1,.31,0,.22.22,0,0,1,0,.32.23.23,0,0,1-.31,0A.22.22,0,0,1,259.68,154Z" transform="translate(0.68 95.96)"/><path class="cls-6" d="M389.4,174.32a.24.24,0,0,1,.32,0,.23.23,0,0,1-.32.32A.24.24,0,0,1,389.4,174.32Z" transform="translate(0.68 95.96)"/><path class="cls-6" d="M389.18,171.38a.22.22,0,0,1,.32,0,.21.21,0,0,1,0,.31.22.22,0,0,1-.32,0A.21.21,0,0,1,389.18,171.38Z" transform="translate(0.68 95.96)"/><path class="cls-6" d="M361.34,151.07a.23.23,0,0,1,.31,0,.22.22,0,0,1,0,.32.21.21,0,0,1-.31,0A.22.22,0,0,1,361.34,151.07Z" transform="translate(0.68 95.96)"/><path class="cls-6" d="M385.2,136.22a.22.22,0,0,1,.32,0,.23.23,0,0,1,0,.31.22.22,0,0,1-.32,0A.21.21,0,0,1,385.2,136.22Z" transform="translate(0.68 95.96)"/><path class="cls-6" d="M359.86,147.74a.22.22,0,0,1,.32,0,.24.24,0,0,1,0,.32.23.23,0,1,1-.32-.32Z" transform="translate(0.68 95.96)"/><circle class="cls-7" cx="379.86" cy="236.43" r="0.45"/><path class="cls-6" d="M351.52,147.36a.45.45,0,0,1,.64,0,.45.45,0,0,1,0,.63.45.45,0,0,1-.64,0A.45.45,0,0,1,351.52,147.36Z" transform="translate(0.68 95.96)"/><path class="cls-6" d="M357.46,147.81a.45.45,0,0,1,.64,0,.45.45,0,0,1,0,.63.45.45,0,0,1-.64,0A.45.45,0,0,1,357.46,147.81Z" transform="translate(0.68 95.96)"/><path class="cls-6" d="M255.26,110.65a.45.45,0,1,1,0,.64A.47.47,0,0,1,255.26,110.65Z" transform="translate(0.68 95.96)"/><circle class="cls-7" cx="264.09" cy="192.38" r="0.95"/><path class="cls-6" d="M271.65,90.43a.45.45,0,0,1,.63,0,.45.45,0,1,1-.63,0Z" transform="translate(0.68 95.96)"/><path class="cls-6" d="M265.69,88.27a.43.43,0,0,1,.63,0,.45.45,0,0,1,0,.63.45.45,0,1,1-.63-.63Z" transform="translate(0.68 95.96)"/><path class="cls-6" d="M259.45,92.15a.23.23,0,1,1,0,.32A.24.24,0,0,1,259.45,92.15Z" transform="translate(0.68 95.96)"/><path class="cls-6" d="M264.41,91.94a.24.24,0,0,1,.32,0,.23.23,0,1,1-.32.32A.24.24,0,0,1,264.41,91.94Z" transform="translate(0.68 95.96)"/><path class="cls-6" d="M258.08,95.88a.45.45,0,1,1,0,.63A.43.43,0,0,1,258.08,95.88Z" transform="translate(0.68 95.96)"/><path class="cls-6" d="M393.09,155a.43.43,0,0,1,.63,0,.45.45,0,0,1,0,.63.45.45,0,1,1-.63-.63Z" transform="translate(0.68 95.96)"/><circle class="cls-8" cx="447.23" cy="210.48" r="0.45"/><path class="cls-6" d="M435,155.45a.45.45,0,0,1,.63,0,.47.47,0,0,1,0,.64.45.45,0,0,1-.63,0A.45.45,0,0,1,435,155.45Z" transform="translate(0.68 95.96)"/><path class="cls-6" d="M374,171a.45.45,0,0,1,.63,0,.45.45,0,0,1,0,.64.45.45,0,0,1-.63,0A.45.45,0,0,1,374,171Z" transform="translate(0.68 95.96)"/><circle class="cls-8" cx="453.43" cy="206.48" r="0.45"/><path class="cls-6" d="M286.49,148.85a.95.95,0,1,1,0,1.34A.95.95,0,0,1,286.49,148.85Z" transform="translate(0.68 95.96)"/><path class="cls-6" d="M287.77,119.89a1,1,0,1,1,0,1.35A1,1,0,0,1,287.77,119.89Z" transform="translate(0.68 95.96)"/><circle class="cls-7" cx="284.85" cy="258.26" r="0.7"/><circle class="cls-7" cx="289.28" cy="247.56" r="0.45"/><path class="cls-6" d="M295.4,143.53a.45.45,0,0,1,.63,0,.45.45,0,1,1-.63,0Z" transform="translate(0.68 95.96)"/><path class="cls-6" d="M303.71,116.83a.45.45,0,1,1,0,.63A.43.43,0,0,1,303.71,116.83Z" transform="translate(0.68 95.96)"/><circle class="cls-7" cx="290.43" cy="237.65" r="0.45"/><path class="cls-6" d="M283.21,145.25a.21.21,0,0,1,.31,0,.22.22,0,0,1,0,.32.21.21,0,0,1-.31,0A.22.22,0,0,1,283.21,145.25Z" transform="translate(0.68 95.96)"/><path class="cls-6" d="M274.64,163.68a.23.23,0,0,1,.31,0,.22.22,0,0,1,0,.32.21.21,0,0,1-.31,0A.22.22,0,0,1,274.64,163.68Z" transform="translate(0.68 95.96)"/><path class="cls-6" d="M300.69,167.21a.22.22,0,0,1,.32,0,.21.21,0,0,1,0,.31.22.22,0,0,1-.32,0A.21.21,0,0,1,300.69,167.21Z" transform="translate(0.68 95.96)"/><path class="cls-6" d="M288.17,145.05a.22.22,0,1,1,0,.31A.21.21,0,0,1,288.17,145.05Z" transform="translate(0.68 95.96)"/><path class="cls-6" d="M281.83,149a.45.45,0,1,1,0,.63A.43.43,0,0,1,281.83,149Z" transform="translate(0.68 95.96)"/><path class="cls-6" d="M251.26,148.7a.45.45,0,0,1,.63,0,.45.45,0,0,1,0,.64.45.45,0,0,1-.63,0A.45.45,0,0,1,251.26,148.7Z" transform="translate(0.68 95.96)"/><path class="cls-6" d="M138.93,101.11a.43.43,0,1,1-.39.46A.43.43,0,0,1,138.93,101.11Z" transform="translate(0.68 95.96)"/><path class="cls-6" d="M692.46-14.33a.22.22,0,0,1-.32,0,.23.23,0,0,1,0-.32.22.22,0,0,1,.31,0A.21.21,0,0,1,692.46-14.33Z" transform="translate(0.68 95.96)"/><path class="cls-6" d="M747-9a.22.22,0,0,1-.32,0,.22.22,0,0,1,0-.31.21.21,0,0,1,.31,0A.21.21,0,0,1,747-9Z" transform="translate(0.68 95.96)"/><path class="cls-6" d="M743.49-13.62a.22.22,0,0,1-.32,0,.23.23,0,0,1,0-.32.24.24,0,0,1,.32,0A.23.23,0,0,1,743.49-13.62Z" transform="translate(0.68 95.96)"/><path class="cls-6" d="M221.51.34a.44.44,0,0,1-.59.15.42.42,0,0,1-.16-.58.43.43,0,0,1,.59-.16A.45.45,0,0,1,221.51.34Z" transform="translate(0.68 95.96)"/><path class="cls-6" d="M244.93,47.84a1.34,1.34,0,1,1-.49-1.84A1.34,1.34,0,0,1,244.93,47.84Z" transform="translate(0.68 95.96)"/><path class="cls-6" d="M211.9,20.68a.7.7,0,1,1-.26-1A.7.7,0,0,1,211.9,20.68Z" transform="translate(0.68 95.96)"/><path class="cls-6" d="M219.89,6.83a.7.7,0,0,1-1.21-.7.7.7,0,1,1,1.21.7Z" transform="translate(0.68 95.96)"/><path class="cls-6" d="M178.84,31.17a.44.44,0,1,1-.16-.61A.44.44,0,0,1,178.84,31.17Z" transform="translate(0.68 95.96)"/><path class="cls-6" d="M274.59-95.62a.23.23,0,0,1-.3.08.23.23,0,0,1-.09-.31.24.24,0,0,1,.31-.08A.23.23,0,0,1,274.59-95.62Z" transform="translate(0.68 95.96)"/><path class="cls-6" d="M227.15,27.64a.22.22,0,0,1-.31.08.23.23,0,0,1-.08-.3.22.22,0,0,1,.31-.08A.21.21,0,0,1,227.15,27.64Z" transform="translate(0.68 95.96)"/><path class="cls-6" d="M198.16,14.38a.24.24,0,0,1-.31.08.22.22,0,0,1,.22-.39A.23.23,0,0,1,198.16,14.38Z" transform="translate(0.68 95.96)"/><path class="cls-6" d="M191.5,9.68a.22.22,0,0,1-.3.09.23.23,0,0,1-.09-.31.23.23,0,0,1,.31-.08A.22.22,0,0,1,191.5,9.68Z" transform="translate(0.68 95.96)"/><path class="cls-6" d="M296.6,59.13a.23.23,0,0,1-.31.09.23.23,0,0,1-.08-.31.22.22,0,0,1,.3-.08A.22.22,0,0,1,296.6,59.13Z" transform="translate(0.68 95.96)"/><path class="cls-6" d="M742.22,6.37a.46.46,0,0,1-.62.16.45.45,0,0,1-.16-.61.45.45,0,0,1,.61-.17A.46.46,0,0,1,742.22,6.37Z" transform="translate(0.68 95.96)"/><path class="cls-6" d="M219.85,4.11a.45.45,0,0,1-.61.16.45.45,0,0,1-.17-.61.44.44,0,0,1,.61-.16A.44.44,0,0,1,219.85,4.11Z" transform="translate(0.68 95.96)"/><path class="cls-6" d="M742.5,5a.45.45,0,0,1-.78-.45.45.45,0,0,1,.62-.16A.45.45,0,0,1,742.5,5Z" transform="translate(0.68 95.96)"/><path class="cls-6" d="M249.69,17.69a1.29,1.29,0,1,1,.77-1.65A1.29,1.29,0,0,1,249.69,17.69Z" transform="translate(0.68 95.96)"/><path class="cls-6" d="M316.87,10a1.29,1.29,0,1,1,.77-1.65A1.28,1.28,0,0,1,316.87,10Z" transform="translate(0.68 95.96)"/><path class="cls-6" d="M282.53,11.57a.91.91,0,0,1-1.17-.55.91.91,0,1,1,1.71-.62A.91.91,0,0,1,282.53,11.57Z" transform="translate(0.68 95.96)"/><path class="cls-6" d="M290.24,1.43a.66.66,0,0,1-.85-.4.67.67,0,0,1,1.26-.46A.68.68,0,0,1,290.24,1.43Z" transform="translate(0.68 95.96)"/><path class="cls-6" d="M213.52,8.1a.43.43,0,0,1-.29-.81.43.43,0,1,1,.29.81Z" transform="translate(0.68 95.96)"/><path class="cls-6" d="M282,8.72a.43.43,0,1,1,.26-.55A.42.42,0,0,1,282,8.72Z" transform="translate(0.68 95.96)"/><path class="cls-6" d="M272.61,12.58a.45.45,0,0,1-.56-.26.43.43,0,0,1,.26-.55.43.43,0,0,1,.3.81Z" transform="translate(0.68 95.96)"/><path class="cls-6" d="M276.92,16.88a.42.42,0,0,1-.55-.25.44.44,0,0,1,.25-.56.45.45,0,0,1,.56.26A.43.43,0,0,1,276.92,16.88Z" transform="translate(0.68 95.96)"/><path class="cls-6" d="M271.21,6.72a.43.43,0,0,1-.55-.26.43.43,0,1,1,.55.26Z" transform="translate(0.68 95.96)"/><path class="cls-6" d="M283.92,16a.21.21,0,0,1-.27-.13.21.21,0,0,1,.13-.28.21.21,0,0,1,.27.13A.22.22,0,0,1,283.92,16Z" transform="translate(0.68 95.96)"/><path class="cls-6" d="M721.93-1.86a.22.22,0,0,1-.28-.13.22.22,0,0,1,.13-.28.21.21,0,0,1,.27.13A.21.21,0,0,1,721.93-1.86Z" transform="translate(0.68 95.96)"/><path class="cls-5" d="M279.52,14.2a.22.22,0,0,1-.28-.13.21.21,0,0,1,.13-.27.21.21,0,0,1,.28.13A.21.21,0,0,1,279.52,14.2Z" transform="translate(0.68 95.96)"/><path class="cls-6" d="M709.69-15.72a.21.21,0,0,1-.27-.13.21.21,0,0,1,.13-.28.21.21,0,0,1,.27.13A.23.23,0,0,1,709.69-15.72Z" transform="translate(0.68 95.96)"/><path class="cls-6" d="M286.64,13.35a.44.44,0,0,1-.56-.25.45.45,0,0,1,.26-.56.43.43,0,0,1,.55.26A.43.43,0,0,1,286.64,13.35Z" transform="translate(0.68 95.96)"/><path class="cls-6" d="M724.59,3a.43.43,0,1,1-.29-.81.43.43,0,0,1,.29.81Z" transform="translate(0.68 95.96)"/><path class="cls-6" d="M706.08-5.47a.43.43,0,0,1-.55-.26.43.43,0,0,1,.26-.55.43.43,0,0,1,.55.26A.43.43,0,0,1,706.08-5.47Z" transform="translate(0.68 95.96)"/><circle class="cls-10" cx="158.66" cy="104.91" r="1.34"/><path class="cls-9" d="M181.87.27a1.33,1.33,0,0,1-1.72-.8,1.35,1.35,0,0,1,.8-1.72,1.34,1.34,0,0,1,1.73.8A1.34,1.34,0,0,1,181.87.27Z" transform="translate(0.68 95.96)"/><path class="cls-6" d="M159.23,28.56a1,1,0,1,1-.65-1.79,1,1,0,0,1,1.22.57A1,1,0,0,1,159.23,28.56Z" transform="translate(0.68 95.96)"/><path class="cls-9" d="M677.09,20.85a.95.95,0,1,1,.57-1.22A.95.95,0,0,1,677.09,20.85Z" transform="translate(0.68 95.96)"/><path class="cls-6" d="M226.19,13.08a.95.95,0,1,1,.57-1.22A.94.94,0,0,1,226.19,13.08Z" transform="translate(0.68 95.96)"/><path class="cls-6" d="M685.12,10.3A.7.7,0,0,1,684.65,9a.7.7,0,1,1,.47,1.31Z" transform="translate(0.68 95.96)"/><path class="cls-6" d="M164,9.93a.43.43,0,0,1-.57-.27.44.44,0,0,1,.26-.57.46.46,0,0,1,.58.27A.45.45,0,0,1,164,9.93Z" transform="translate(0.68 95.96)"/><path class="cls-9" d="M676.49,17.89a.45.45,0,0,1-.57-.27.45.45,0,1,1,.84-.3A.45.45,0,0,1,676.49,17.89Z" transform="translate(0.68 95.96)"/><path class="cls-9" d="M666.77,21.9a.44.44,0,0,1-.58-.27.45.45,0,0,1,.27-.57.45.45,0,0,1,.31.84Z" transform="translate(0.68 95.96)"/><path class="cls-6" d="M153.58-7.08a.45.45,0,0,1-.57-.27.44.44,0,0,1,.26-.57.45.45,0,0,1,.58.26A.46.46,0,0,1,153.58-7.08Z" transform="translate(0.68 95.96)"/><path class="cls-6" d="M192.5,3.79a.44.44,0,0,1-.58-.27.45.45,0,1,1,.84-.3A.44.44,0,0,1,192.5,3.79Z" transform="translate(0.68 95.96)"/><path class="cls-9" d="M160.87-8a.23.23,0,0,1-.29-.14.22.22,0,0,1,.14-.28.21.21,0,0,1,.28.13A.22.22,0,0,1,160.87-8Z" transform="translate(0.68 95.96)"/><path class="cls-6" d="M674,23.59a.23.23,0,0,1-.29-.13.23.23,0,0,1,.14-.29.22.22,0,0,1,.28.13A.21.21,0,0,1,674,23.59Z" transform="translate(0.68 95.96)"/><path class="cls-9" d="M681.37,22.71a.45.45,0,1,1-.31-.85.45.45,0,0,1,.31.85Z" transform="translate(0.68 95.96)"/><path class="cls-6" d="M674.76,3.23a.45.45,0,0,1-.57-.27.45.45,0,0,1,.84-.31A.44.44,0,0,1,674.76,3.23Z" transform="translate(0.68 95.96)"/><path class="cls-6" d="M692.68-9.55a.43.43,0,0,1-.57-.27.45.45,0,0,1,.27-.57.45.45,0,0,1,.57.27A.43.43,0,0,1,692.68-9.55Z" transform="translate(0.68 95.96)"/><path class="cls-6" d="M258.58,2.63a.45.45,0,0,1-.31-.85.45.45,0,1,1,.31.85Z" transform="translate(0.68 95.96)"/><path class="cls-6" d="M767.09,68.31a.42.42,0,0,1-.6.06.43.43,0,0,1,.55-.66A.42.42,0,0,1,767.09,68.31Z" transform="translate(0.68 95.96)"/><path class="cls-6" d="M757.49,58.87a1.35,1.35,0,1,1-.17-1.89A1.35,1.35,0,0,1,757.49,58.87Z" transform="translate(0.68 95.96)"/><path class="cls-6" d="M754.08,86.67a.7.7,0,1,1-.08-1A.71.71,0,0,1,754.08,86.67Z" transform="translate(0.68 95.96)"/><path class="cls-6" d="M764.37,74.42a.7.7,0,0,1-1.07-.89.7.7,0,1,1,1.07.89Z" transform="translate(0.68 95.96)"/><path class="cls-5" d="M719.7,91.23a.45.45,0,1,1-.05-.63A.44.44,0,0,1,719.7,91.23Z" transform="translate(0.68 95.96)"/><path class="cls-6" d="M750.26,125.92a.22.22,0,1,1,0-.31A.21.21,0,0,1,750.26,125.92Z" transform="translate(0.68 95.96)"/><path class="cls-6" d="M767.88,96.19a.22.22,0,0,1-.31,0,.21.21,0,0,1,0-.31.22.22,0,0,1,.32,0A.23.23,0,0,1,767.88,96.19Z" transform="translate(0.68 95.96)"/><path class="cls-5" d="M741.65,78.06a.21.21,0,0,1-.31,0,.22.22,0,0,1,0-.32.22.22,0,0,1,.31,0A.21.21,0,0,1,741.65,78.06Z" transform="translate(0.68 95.96)"/><path class="cls-5" d="M735.92,72.28a.22.22,0,1,1-.34-.29.22.22,0,1,1,.34.29Z" transform="translate(0.68 95.96)"/><path class="cls-6" d="M762.91,101.76a.23.23,0,0,1-.32,0,.22.22,0,0,1,0-.31.21.21,0,0,1,.31,0A.22.22,0,0,1,762.91,101.76Z" transform="translate(0.68 95.96)"/><path class="cls-6" d="M764.8,71.74a.45.45,0,1,1,0-.63A.44.44,0,0,1,764.8,71.74Z" transform="translate(0.68 95.96)"/><path class="cls-6" d="M767.49,124.53a.21.21,0,0,1-.27-.13.22.22,0,0,1,.13-.28.21.21,0,0,1,.27.13A.21.21,0,0,1,767.49,124.53Z" transform="translate(0.68 95.96)"/><path class="cls-6" d="M763.89,134.78a.43.43,0,1,1-.3-.81.43.43,0,0,1,.3.81Z" transform="translate(0.68 95.96)"/><path class="cls-6" d="M742.92,150.55a.7.7,0,1,1,.42-.89A.69.69,0,0,1,742.92,150.55Z" transform="translate(0.68 95.96)"/><path class="cls-9" d="M734.29,158.14a.43.43,0,0,1-.57-.27.45.45,0,0,1,.27-.57.45.45,0,0,1,.3.84Z" transform="translate(0.68 95.96)"/><path class="cls-6" d="M732.57,143.48a.46.46,0,0,1-.58-.27.45.45,0,0,1,.27-.57.44.44,0,0,1,.57.26A.45.45,0,0,1,732.57,143.48Z" transform="translate(0.68 95.96)"/><path class="cls-6" d="M750.49,130.7a.44.44,0,0,1-.58-.27.45.45,0,1,1,.84-.3A.44.44,0,0,1,750.49,130.7Z" transform="translate(0.68 95.96)"/><path class="cls-6" d="M760.68,151.2a.44.44,0,0,1-.57-.27.45.45,0,1,1,.84-.3A.43.43,0,0,1,760.68,151.2Z" transform="translate(0.68 95.96)"/><path class="cls-6" d="M751.41,182.55a.26.26,0,0,1-.38,0,.27.27,0,1,1,.38,0Z" transform="translate(0.68 95.96)"/><path class="cls-6" d="M763.5,187.14a.23.23,0,1,1,0-.32A.23.23,0,0,1,763.5,187.14Z" transform="translate(0.68 95.96)"/><path class="cls-6" d="M745.26,181a.23.23,0,0,1-.32,0,.22.22,0,0,1,0-.31.21.21,0,0,1,.31,0A.22.22,0,0,1,745.26,181Z" transform="translate(0.68 95.96)"/><path class="cls-6" d="M768.41,190.1a.45.45,0,0,1-.69-.58.45.45,0,1,1,.69.58Z" transform="translate(0.68 95.96)"/><path class="cls-6" d="M747.34,192.13a.45.45,0,1,1-.05-.63A.44.44,0,0,1,747.34,192.13Z" transform="translate(0.68 95.96)"/><path class="cls-6" d="M752.38,199.76a.22.22,0,0,1-.3.08.22.22,0,1,1,.3-.08Z" transform="translate(0.68 95.96)"/><path class="cls-6" d="M746,195.25a.21.21,0,1,1-.37-.21.21.21,0,0,1,.37.21Z" transform="translate(0.68 95.96)"/><path class="cls-6" d="M751.9,196.63a.45.45,0,0,1-.61.17.45.45,0,0,1-.16-.62.45.45,0,0,1,.61-.16A.44.44,0,0,1,751.9,196.63Z" transform="translate(0.68 95.96)"/><path class="cls-6" d="M736.86,188.47a.45.45,0,0,1-.78-.45.45.45,0,0,1,.78.45Z" transform="translate(0.68 95.96)"/><path class="cls-6" d="M737.14,187.08a.45.45,0,0,1-.78-.45.45.45,0,0,1,.78.45Z" transform="translate(0.68 95.96)"/><path class="cls-6" d="M758.39,199.34a.45.45,0,0,1-.62.16.45.45,0,0,1-.16-.61.45.45,0,0,1,.78.45Z" transform="translate(0.68 95.96)"/><path class="cls-6" d="M721.47,202a.91.91,0,1,1,.55-1.17A.91.91,0,0,1,721.47,202Z" transform="translate(0.68 95.96)"/><path class="cls-6" d="M729.19,191.86a.67.67,0,1,1,.4-.86A.66.66,0,0,1,729.19,191.86Z" transform="translate(0.68 95.96)"/><path class="cls-6" d="M720.89,199.15a.43.43,0,0,1-.55-.26.43.43,0,1,1,.81-.29A.43.43,0,0,1,720.89,199.15Z" transform="translate(0.68 95.96)"/><path class="cls-6" d="M710.15,197.15a.43.43,0,1,1-.29-.81.43.43,0,0,1,.55.25A.44.44,0,0,1,710.15,197.15Z" transform="translate(0.68 95.96)"/><path class="cls-6" d="M716.57,180.24a.22.22,0,0,1-.28-.13.21.21,0,0,1,.13-.27.2.2,0,0,1,.27.12A.21.21,0,0,1,716.57,180.24Z" transform="translate(0.68 95.96)"/><path class="cls-6" d="M719.23,185.06a.43.43,0,0,1-.55-.26.43.43,0,1,1,.81-.29A.43.43,0,0,1,719.23,185.06Z" transform="translate(0.68 95.96)"/><path class="cls-6" d="M700.72,176.63a.43.43,0,0,1-.55-.25.44.44,0,0,1,.26-.56.43.43,0,0,1,.55.26A.43.43,0,0,1,700.72,176.63Z" transform="translate(0.68 95.96)"/><path class="cls-6" d="M746.26,192.48a.44.44,0,0,1-.56-.25.45.45,0,0,1,.26-.56.43.43,0,0,1,.55.26A.43.43,0,0,1,746.26,192.48Z" transform="translate(0.68 95.96)"/><path class="cls-6" d="M679.76,192.4a.68.68,0,0,1-.89-.41.7.7,0,1,1,.89.41Z" transform="translate(0.68 95.96)"/><path class="cls-6" d="M697.52,193.05a.45.45,0,1,1-.3-.84.45.45,0,0,1,.57.27A.43.43,0,0,1,697.52,193.05Z" transform="translate(0.68 95.96)"/><path class="cls-6" d="M224.2-8.54a.45.45,0,0,1,.22.59.46.46,0,0,1-.6.22.46.46,0,0,1-.22-.6A.45.45,0,0,1,224.2-8.54Z" transform="translate(0.68 95.96)"/><path class="cls-6" d="M177.39,24.3a.23.23,0,0,1,.11.3.23.23,0,0,1-.41-.19A.23.23,0,0,1,177.39,24.3Z" transform="translate(0.68 95.96)"/><path class="cls-6" d="M216.59,5.36a.45.45,0,1,1-.6.22A.45.45,0,0,1,216.59,5.36Z" transform="translate(0.68 95.96)"/><path class="cls-6" d="M231.43,3a.44.44,0,0,1,.22.59.45.45,0,1,1-.81-.38A.44.44,0,0,1,231.43,3Z" transform="translate(0.68 95.96)"/><path class="cls-6" d="M673.92,177.28a.45.45,0,1,1-.45-.45A.45.45,0,0,1,673.92,177.28Z" transform="translate(0.68 95.96)"/><path class="cls-5" d="M645.77,169.33a1.35,1.35,0,1,1-.17-1.89A1.34,1.34,0,0,1,645.77,169.33Z" transform="translate(0.68 95.96)"/><path class="cls-6" d="M655.62,184.82a.95.95,0,1,1-.11-1.34A1,1,0,0,1,655.62,184.82Z" transform="translate(0.68 95.96)"/><path class="cls-6" d="M650.41,166.32a.45.45,0,0,1-.63.06.45.45,0,1,1,.58-.69A.44.44,0,0,1,650.41,166.32Z" transform="translate(0.68 95.96)"/><path class="cls-6" d="M669.22,172.05a.22.22,0,0,1,.24.21.22.22,0,0,1-.2.24.22.22,0,0,1-.24-.2A.23.23,0,0,1,669.22,172.05Z" transform="translate(0.68 95.96)"/><path class="cls-6" d="M666.16,162.61a.44.44,0,0,1,.48.41.45.45,0,0,1-.4.49.46.46,0,0,1-.49-.41A.45.45,0,0,1,666.16,162.61Z" transform="translate(0.68 95.96)"/><path class="cls-6" d="M632.44,163.48a.21.21,0,0,1-.37-.21.21.21,0,0,1,.37.21Z" transform="translate(0.68 95.96)"/><path class="cls-5" d="M622,187.26a1.34,1.34,0,1,1-.49-1.83A1.34,1.34,0,0,1,622,187.26Z" transform="translate(0.68 95.96)"/><path class="cls-6" d="M632.71,166.06a1.34,1.34,0,1,1-.49-1.84A1.34,1.34,0,0,1,632.71,166.06Z" transform="translate(0.68 95.96)"/><path class="cls-6" d="M608.77,179.61a1,1,0,1,1-.35-1.29A.95.95,0,0,1,608.77,179.61Z" transform="translate(0.68 95.96)"/><path class="cls-6" d="M644.33,194.66a.7.7,0,1,1-.26-.95A.7.7,0,0,1,644.33,194.66Z" transform="translate(0.68 95.96)"/><path class="cls-6" d="M637.87,216.21a.23.23,0,0,1-.39-.23.23.23,0,0,1,.31-.08A.24.24,0,0,1,637.87,216.21Z" transform="translate(0.68 95.96)"/><path class="cls-6" d="M595.44,188.07a.23.23,0,0,1-.31.09.24.24,0,0,1-.08-.31.22.22,0,0,1,.39.22Z" transform="translate(0.68 95.96)"/><path class="cls-6" d="M633.65,212.22a.23.23,0,1,1-.39-.23.23.23,0,1,1,.39.23Z" transform="translate(0.68 95.96)"/><path class="cls-6" d="M642.86,223.3a.23.23,0,0,1-.31.09.24.24,0,0,1-.08-.31.22.22,0,0,1,.39.22Z" transform="translate(0.68 95.96)"/><path class="cls-6" d="M591.51,194.43a.22.22,0,1,1-.38-.23.22.22,0,0,1,.3-.08A.22.22,0,0,1,591.51,194.43Z" transform="translate(0.68 95.96)"/><path class="cls-6" d="M603.06,169.28a.45.45,0,0,1-.78-.45.45.45,0,0,1,.61-.16A.45.45,0,0,1,603.06,169.28Z" transform="translate(0.68 95.96)"/><path class="cls-6" d="M601.3,167.75a.46.46,0,0,1-.62.16.45.45,0,0,1-.16-.61.43.43,0,0,1,.61-.16A.44.44,0,0,1,601.3,167.75Z" transform="translate(0.68 95.96)"/><path class="cls-6" d="M602.75,186.81a.95.95,0,1,1-.68,1.16A.94.94,0,0,1,602.75,186.81Z" transform="translate(0.68 95.96)"/><path class="cls-6" d="M609.23,162.63a.43.43,0,1,1,.26-.55A.43.43,0,0,1,609.23,162.63Z" transform="translate(0.68 95.96)"/><path class="cls-6" d="M594.48,173.52a1,1,0,1,1,.57-1.22A1,1,0,0,1,594.48,173.52Z" transform="translate(0.68 95.96)"/><path class="cls-6" d="M601.43,167.72a1,1,0,1,1-1.26.46A1,1,0,0,1,601.43,167.72Z" transform="translate(0.68 95.96)"/><path class="cls-6" d="M603.69,163.41a.22.22,0,0,1,.11.3.23.23,0,0,1-.3.11.23.23,0,0,1,.19-.41Z" transform="translate(0.68 95.96)"/><path class="cls-6" d="M605.58,168a.23.23,0,0,1,.11.3.23.23,0,0,1-.41-.19A.23.23,0,0,1,605.58,168Z" transform="translate(0.68 95.96)"/><path class="cls-6" d="M599.72,163.39a.45.45,0,1,1-.38.81.45.45,0,0,1,.38-.81Z" transform="translate(0.68 95.96)"/><path class="cls-6" d="M179.46,14.59a.45.45,0,0,1,.21.6.45.45,0,0,1-.81-.38A.45.45,0,0,1,179.46,14.59Z" transform="translate(0.68 95.96)"/><path class="cls-6" d="M296.05,163.83a.45.45,0,1,1,0,.64A.47.47,0,0,1,296.05,163.83Z" transform="translate(0.68 95.96)"/><path class="cls-6" d="M382.25,174.16a.45.45,0,1,1,0,.64A.47.47,0,0,1,382.25,174.16Z" transform="translate(0.68 95.96)"/><path class="cls-6" d="M388.57,194.38a.45.45,0,0,1,.64,0,.45.45,0,0,1,0,.63.45.45,0,0,1-.64,0A.45.45,0,0,1,388.57,194.38Z" transform="translate(0.68 95.96)"/><path class="cls-6" d="M364.34,159.91a.45.45,0,0,1,.63.63.45.45,0,0,1-.63,0A.43.43,0,0,1,364.34,159.91Z" transform="translate(0.68 95.96)"/><circle class="cls-8" cx="463" cy="221.95" r="1.34"/><circle class="cls-8" cx="461.66" cy="196.53" r="1.34"/><path class="cls-9" d="M481.18,131.51a.95.95,0,1,1-.95-.95A.95.95,0,0,1,481.18,131.51Z" transform="translate(0.68 95.96)"/><circle class="cls-7" cx="442.28" cy="213.23" r="0.95"/><circle class="cls-7" cx="489.23" cy="159.25" r="0.95"/><path class="cls-9" d="M490.22,103.58a1,1,0,1,1-1-1A.95.95,0,0,1,490.22,103.58Z" transform="translate(0.68 95.96)"/><path class="cls-6" d="M435.37,106.12a.7.7,0,1,1-.69-.69A.69.69,0,0,1,435.37,106.12Z" transform="translate(0.68 95.96)"/><path class="cls-9" d="M465.29,120.7a.45.45,0,1,1-.45-.44A.45.45,0,0,1,465.29,120.7Z" transform="translate(0.68 95.96)"/><path class="cls-6" d="M439.56,116.83a.45.45,0,1,1-.45-.45A.45.45,0,0,1,439.56,116.83Z" transform="translate(0.68 95.96)"/><path class="cls-9" d="M440,127.34a.45.45,0,1,1-.45-.45A.45.45,0,0,1,440,127.34Z" transform="translate(0.68 95.96)"/><path class="cls-6" d="M445.75,124.65a.45.45,0,1,1-.45-.45A.45.45,0,0,1,445.75,124.65Z" transform="translate(0.68 95.96)"/><circle class="cls-7" cx="434.01" cy="222.58" r="0.45"/><path class="cls-9" d="M469.26,91.79a.45.45,0,1,1-.45-.45A.45.45,0,0,1,469.26,91.79Z" transform="translate(0.68 95.96)"/><circle class="cls-8" cx="447.87" cy="213.46" r="0.22"/><circle class="cls-7" cx="444.5" cy="217.11" r="0.22"/><path class="cls-6" d="M445.75,113.89a.45.45,0,1,1-.45-.45A.45.45,0,0,1,445.75,113.89Z" transform="translate(0.68 95.96)"/><circle class="cls-7" cx="434.01" cy="155.85" r="0.45"/><circle class="cls-7" cx="442.28" cy="185.61" r="0.45"/><path class="cls-6" d="M545.14,53.45a1.35,1.35,0,0,1,1.9,0,1.34,1.34,0,0,1-1.9,1.9A1.35,1.35,0,0,1,545.14,53.45Z" transform="translate(0.68 95.96)"/><path class="cls-6" d="M489.27,57.14a1.35,1.35,0,0,1,1.9,0,1.34,1.34,0,1,1-1.9,1.9A1.35,1.35,0,0,1,489.27,57.14Z" transform="translate(0.68 95.96)"/><path class="cls-5" d="M528.12,72.38a1.33,1.33,0,0,1,1.9,0,1.34,1.34,0,0,1-1.9,1.9A1.33,1.33,0,0,1,528.12,72.38Z" transform="translate(0.68 95.96)"/><path class="cls-6" d="M536.66,37.17a1,1,0,0,1,1.35,0,1,1,0,0,1,0,1.34,1,1,0,0,1-1.35,0A1,1,0,0,1,536.66,37.17Z" transform="translate(0.68 95.96)"/><path class="cls-6" d="M553.91,74.55a1,1,0,1,1,0,1.35A1,1,0,0,1,553.91,74.55Z" transform="translate(0.68 95.96)"/><path class="cls-6" d="M510.52,50.52a1,1,0,0,1,1.34,0,1,1,0,0,1,0,1.35,1,1,0,0,1-1.34,0A1,1,0,0,1,510.52,50.52Z" transform="translate(0.68 95.96)"/><circle class="cls-7" cx="552.27" cy="183.96" r="0.7"/><circle class="cls-7" cx="541.26" cy="152.32" r="0.45"/><path class="cls-6" d="M555.71,77a.45.45,0,0,1,.63,0,.45.45,0,0,1,0,.64.45.45,0,0,1-.63,0A.47.47,0,0,1,555.71,77Z" transform="translate(0.68 95.96)"/><path class="cls-6" d="M562.83,69.23a.45.45,0,0,1,.63,0,.47.47,0,0,1,0,.64.45.45,0,0,1-.63,0A.45.45,0,0,1,562.83,69.23Z" transform="translate(0.68 95.96)"/><path class="cls-6" d="M556.86,67.07a.45.45,0,1,1,0,.64A.47.47,0,0,1,556.86,67.07Z" transform="translate(0.68 95.96)"/><path class="cls-6" d="M517,73.68a.45.45,0,1,1,0,.64A.47.47,0,0,1,517,73.68Z" transform="translate(0.68 95.96)"/><path class="cls-6" d="M550.63,71a.24.24,0,0,1,.32,0,.23.23,0,1,1-.32,0Z" transform="translate(0.68 95.96)"/><path class="cls-6" d="M568.12,92.91a.22.22,0,1,1,0,.31A.21.21,0,0,1,568.12,92.91Z" transform="translate(0.68 95.96)"/><path class="cls-6" d="M492.87,33.46a.21.21,0,0,1,.31,0,.22.22,0,0,1,0,.32.23.23,0,0,1-.31,0A.22.22,0,0,1,492.87,33.46Z" transform="translate(0.68 95.96)"/><path class="cls-6" d="M555.59,70.75a.22.22,0,0,1,.32,0,.21.21,0,0,1,0,.31.22.22,0,0,1-.32,0A.23.23,0,0,1,555.59,70.75Z" transform="translate(0.68 95.96)"/><circle class="cls-7" cx="550.25" cy="170.96" r="0.45"/><path class="cls-6" d="M563.48,89.54a.45.45,0,1,1,0,.63A.43.43,0,0,1,563.48,89.54Z" transform="translate(0.68 95.96)"/><path class="cls-6" d="M474.51,33.75a.45.45,0,1,1,0,.63A.44.44,0,0,1,474.51,33.75Z" transform="translate(0.68 95.96)"/><path class="cls-6" d="M609.74,43.18a.45.45,0,0,1,.64,0,.45.45,0,0,1,0,.63.47.47,0,0,1-.64,0A.45.45,0,0,1,609.74,43.18Z" transform="translate(0.68 95.96)"/><path class="cls-6" d="M534.73,94.44a.45.45,0,0,1,.64,0,.45.45,0,0,1,0,.63.47.47,0,0,1-.64,0A.45.45,0,0,1,534.73,94.44Z" transform="translate(0.68 95.96)"/><circle class="cls-7" cx="600.08" cy="174.86" r="1.34"/><path class="cls-5" d="M664,50.83a1.35,1.35,0,0,1,1.91,1.9,1.35,1.35,0,1,1-1.91-1.9Z" transform="translate(0.68 95.96)"/><path class="cls-6" d="M625.67,58.49a1.35,1.35,0,1,1,1.91,1.9,1.35,1.35,0,0,1-1.91-1.9Z" transform="translate(0.68 95.96)"/><path class="cls-6" d="M581.42,96.88a1.34,1.34,0,1,1,1.9,1.9,1.34,1.34,0,0,1-1.9-1.9Z" transform="translate(0.68 95.96)"/><path class="cls-6" d="M585.59,110.85a1.34,1.34,0,0,1,1.9,1.9,1.34,1.34,0,1,1-1.9-1.9Z" transform="translate(0.68 95.96)"/><circle class="cls-7" cx="591.32" cy="158.3" r="0.95"/><circle class="cls-7" cx="644.26" cy="133.65" r="0.95"/><circle class="cls-7" cx="636.65" cy="141.03" r="0.95"/><path class="cls-6" d="M607.22,99.05a1,1,0,0,1,1.34,0,1,1,0,0,1,0,1.35,1,1,0,0,1-1.34,0A1,1,0,0,1,607.22,99.05Z" transform="translate(0.68 95.96)"/><path class="cls-6" d="M563.82,75a1,1,0,1,1,0,1.35A1,1,0,0,1,563.82,75Z" transform="translate(0.68 95.96)"/><circle class="cls-7" cx="605.58" cy="208.46" r="0.7"/><circle class="cls-7" cx="611.16" cy="222.13" r="0.7"/><path class="cls-6" d="M583.22,107.83a.7.7,0,1,1,0,1A.71.71,0,0,1,583.22,107.83Z" transform="translate(0.68 95.96)"/><path class="cls-6" d="M542.7,133.46a.7.7,0,1,1,1,1,.69.69,0,0,1-1,0A.71.71,0,0,1,542.7,133.46Z" transform="translate(0.68 95.96)"/><path class="cls-6" d="M593.56,80.55a.45.45,0,0,1,.64,0,.45.45,0,0,1,0,.63.47.47,0,0,1-.64,0A.45.45,0,0,1,593.56,80.55Z" transform="translate(0.68 95.96)"/><circle class="cls-7" cx="610.01" cy="197.76" r="0.45"/><path class="cls-6" d="M586.62,107.28a.45.45,0,1,1,0,.64A.47.47,0,0,1,586.62,107.28Z" transform="translate(0.68 95.96)"/><path class="cls-6" d="M636.6,97.51a.47.47,0,0,1,.64,0,.45.45,0,0,1,0,.63.45.45,0,0,1-.64,0A.45.45,0,0,1,636.6,97.51Z" transform="translate(0.68 95.96)"/><path class="cls-6" d="M650.23,94.18a.45.45,0,0,1,.63,0,.45.45,0,1,1-.63,0Z" transform="translate(0.68 95.96)"/><path class="cls-6" d="M616.13,93.73a.45.45,0,0,1,.63,0,.45.45,0,0,1,0,.64.45.45,0,0,1-.63,0A.47.47,0,0,1,616.13,93.73Z" transform="translate(0.68 95.96)"/><path class="cls-6" d="M520.65,60.93a.45.45,0,0,1,.63,0,.45.45,0,0,1,0,.64.45.45,0,0,1-.63,0A.45.45,0,0,1,520.65,60.93Z" transform="translate(0.68 95.96)"/><circle class="cls-7" cx="676.11" cy="134.54" r="0.45"/><path class="cls-6" d="M610.17,91.57a.45.45,0,0,1,.63,0,.45.45,0,0,1,0,.64.45.45,0,0,1-.63,0A.45.45,0,0,1,610.17,91.57Z" transform="translate(0.68 95.96)"/><circle class="cls-7" cx="571.3" cy="194.46" r="0.45"/><path class="cls-6" d="M468.5,57.78a.45.45,0,1,1,0,.63A.43.43,0,0,1,468.5,57.78Z" transform="translate(0.68 95.96)"/><path class="cls-6" d="M603.94,95.45a.23.23,0,0,1,.31,0,.22.22,0,0,1,0,.32.21.21,0,0,1-.31,0A.22.22,0,0,1,603.94,95.45Z" transform="translate(0.68 95.96)"/><path class="cls-6" d="M568.57,102.72a.21.21,0,0,1,.31,0,.22.22,0,0,1,0,.32.23.23,0,0,1-.31,0A.22.22,0,0,1,568.57,102.72Z" transform="translate(0.68 95.96)"/><circle class="cls-7" cx="575.55" cy="194.73" r="0.22"/><path class="cls-6" d="M534.22,59a.22.22,0,0,1,.32,0,.23.23,0,0,1-.32.32A.22.22,0,0,1,534.22,59Z" transform="translate(0.68 95.96)"/><path class="cls-6" d="M621.42,117.41a.22.22,0,0,1,.32,0,.21.21,0,0,1,0,.31.22.22,0,0,1-.32,0A.21.21,0,0,1,621.42,117.41Z" transform="translate(0.68 95.96)"/><path class="cls-6" d="M621.65,133.13a.21.21,0,0,1,.31,0,.22.22,0,0,1,0,.32.23.23,0,0,1-.31,0A.22.22,0,0,1,621.65,133.13Z" transform="translate(0.68 95.96)"/><path class="cls-9" d="M483.38,113a.21.21,0,0,1,.31,0,.22.22,0,0,1,0,.32.23.23,0,0,1-.31,0A.22.22,0,0,1,483.38,113Z" transform="translate(0.68 95.96)"/><path class="cls-6" d="M613.1,133.35a.23.23,0,1,1,0,.32A.24.24,0,0,1,613.1,133.35Z" transform="translate(0.68 95.96)"/><path class="cls-6" d="M612.88,130.4a.23.23,0,0,1,.32.32.23.23,0,1,1-.32-.32Z" transform="translate(0.68 95.96)"/><path class="cls-6" d="M585,110.1a.23.23,0,0,1,.31,0,.22.22,0,0,1,0,.32.21.21,0,0,1-.31,0A.22.22,0,0,1,585,110.1Z" transform="translate(0.68 95.96)"/><path class="cls-6" d="M608.9,95.25a.22.22,0,1,1,0,.31A.21.21,0,0,1,608.9,95.25Z" transform="translate(0.68 95.96)"/><path class="cls-6" d="M583.56,106.77a.21.21,0,0,1,.31,0,.22.22,0,0,1,0,.32.23.23,0,0,1-.31,0A.22.22,0,0,1,583.56,106.77Z" transform="translate(0.68 95.96)"/><path class="cls-6" d="M602.56,99.18a.45.45,0,1,1,0,.63A.45.45,0,0,1,602.56,99.18Z" transform="translate(0.68 95.96)"/><circle class="cls-7" cx="576.22" cy="202.66" r="0.45"/><path class="cls-6" d="M581.16,106.84a.45.45,0,0,1,.63.63.45.45,0,1,1-.63-.63Z" transform="translate(0.68 95.96)"/><circle class="cls-7" cx="479.96" cy="165.96" r="0.45"/><circle class="cls-7" cx="487.78" cy="151.41" r="0.95"/><circle class="cls-7" cx="496.34" cy="145.74" r="0.45"/><path class="cls-6" d="M489.38,47.3a.45.45,0,0,1,.64,0,.45.45,0,0,1,0,.63.45.45,0,0,1-.64,0A.45.45,0,0,1,489.38,47.3Z" transform="translate(0.68 95.96)"/><path class="cls-6" d="M483.15,51.18a.23.23,0,0,1,.32.32.24.24,0,0,1-.32,0A.22.22,0,0,1,483.15,51.18Z" transform="translate(0.68 95.96)"/><path class="cls-6" d="M488.11,51a.24.24,0,0,1,.32,0,.23.23,0,0,1-.32.32A.24.24,0,0,1,488.11,51Z" transform="translate(0.68 95.96)"/><path class="cls-6" d="M481.78,54.91a.43.43,0,0,1,.63,0,.45.45,0,0,1,0,.63.45.45,0,0,1-.63-.63Z" transform="translate(0.68 95.96)"/><path class="cls-5" d="M388.08,61.59a.95.95,0,1,1-.95-1A.95.95,0,0,1,388.08,61.59Z" transform="translate(0.68 95.96)"/><path class="cls-6" d="M387.85,55.45a1.33,1.33,0,0,1,1.9,0,1.34,1.34,0,1,1-1.9,1.9A1.33,1.33,0,0,1,387.85,55.45Z" transform="translate(0.68 95.96)"/><path class="cls-6" d="M409.1,48.83a.95.95,0,1,1,0,1.34A.95.95,0,0,1,409.1,48.83Z" transform="translate(0.68 95.96)"/><path class="cls-6" d="M391.44,31.76a.24.24,0,0,1,.32,0,.23.23,0,1,1-.32.32A.24.24,0,0,1,391.44,31.76Z" transform="translate(0.68 95.96)"/><circle class="cls-7" cx="374.08" cy="128.33" r="0.45"/><path class="cls-6" d="M367.07,56.08a.45.45,0,1,1,0,.64A.47.47,0,0,1,367.07,56.08Z" transform="translate(0.68 95.96)"/><circle class="cls-7" cx="378.54" cy="164.26" r="0.45"/><circle class="cls-7" cx="386.36" cy="149.71" r="0.95"/><path class="cls-6" d="M393.92,47.76a.45.45,0,1,1,0,.64A.47.47,0,0,1,393.92,47.76Z" transform="translate(0.68 95.96)"/><path class="cls-6" d="M388,45.6a.45.45,0,1,1,0,.64A.47.47,0,0,1,388,45.6Z" transform="translate(0.68 95.96)"/><path class="cls-6" d="M381.73,49.49a.22.22,0,0,1,.32,0,.23.23,0,0,1,0,.31.22.22,0,0,1-.32,0A.21.21,0,0,1,381.73,49.49Z" transform="translate(0.68 95.96)"/><path class="cls-6" d="M386.69,49.28a.23.23,0,1,1,.32.32.24.24,0,0,1-.32,0A.22.22,0,0,1,386.69,49.28Z" transform="translate(0.68 95.96)"/><path class="cls-6" d="M380.35,53.21a.47.47,0,0,1,.64,0,.45.45,0,0,1,0,.63.45.45,0,0,1-.64,0A.45.45,0,0,1,380.35,53.21Z" transform="translate(0.68 95.96)"/><circle class="cls-7" cx="617.78" cy="210.31" r="0.45"/><circle class="cls-7" cx="670.93" cy="169.51" r="0.45"/><circle class="cls-7" cx="659.73" cy="210.76" r="0.45"/><path class="cls-6" d="M597.74,130a.45.45,0,0,1,.63,0,.45.45,0,0,1,0,.64.45.45,0,0,1-.63,0A.45.45,0,0,1,597.74,130Z" transform="translate(0.68 95.96)"/><circle class="cls-7" cx="677.13" cy="165.51" r="0.45"/><path class="cls-6" d="M653.27,10.33a1,1,0,0,1,1.35,0,1,1,0,0,1,0,1.34,1,1,0,0,1-1.35,0A1,1,0,0,1,653.27,10.33Z" transform="translate(0.68 95.96)"/><circle class="cls-7" cx="645.21" cy="167.41" r="0.95"/><path class="cls-6" d="M507.37,120.84a.7.7,0,1,1,0,1A.69.69,0,0,1,507.37,120.84Z" transform="translate(0.68 95.96)"/><circle class="cls-7" cx="512.98" cy="206.59" r="0.45"/><circle class="cls-7" cx="520.09" cy="198.84" r="0.45"/><path class="cls-6" d="M527.41,75.86a.45.45,0,1,1,0,.63A.44.44,0,0,1,527.41,75.86Z" transform="translate(0.68 95.96)"/><path class="cls-6" d="M513.14,100.4a.43.43,0,0,1,.63,0,.45.45,0,0,1,0,.63.45.45,0,1,1-.63-.63Z" transform="translate(0.68 95.96)"/><path class="cls-6" d="M506.9,104.28a.23.23,0,1,1,0,.32A.24.24,0,0,1,506.9,104.28Z" transform="translate(0.68 95.96)"/><path class="cls-9" d="M498.33,122.71a.23.23,0,1,1,0,.32A.24.24,0,0,1,498.33,122.71Z" transform="translate(0.68 95.96)"/><path class="cls-6" d="M524.39,126.23a.23.23,0,0,1,.32.32.23.23,0,1,1-.32-.32Z" transform="translate(0.68 95.96)"/><path class="cls-6" d="M511.87,104.07a.23.23,0,0,1,.31,0,.22.22,0,0,1,0,.32.21.21,0,0,1-.31,0A.22.22,0,0,1,511.87,104.07Z" transform="translate(0.68 95.96)"/><path class="cls-6" d="M692.66,17.6a.47.47,0,0,1,.64,0,.45.45,0,0,1,0,.63.45.45,0,0,1-.64,0A.45.45,0,0,1,692.66,17.6Z" transform="translate(0.68 95.96)"/><circle class="cls-8" cx="475.95" cy="204.01" r="0.45"/><path class="cls-6" d="M519.75,122.86a.45.45,0,1,1,0,.64A.47.47,0,0,1,519.75,122.86Z" transform="translate(0.68 95.96)"/><circle class="cls-7" cx="606.95" cy="229.47" r="0.45"/><path class="cls-6" d="M612.27,153.41a.45.45,0,0,1,.64,0,.45.45,0,0,1,0,.63.45.45,0,0,1-.64,0A.45.45,0,0,1,612.27,153.41Z" transform="translate(0.68 95.96)"/><path class="cls-6" d="M588,118.93a.45.45,0,0,1,.63,0,.45.45,0,0,1,0,.64.45.45,0,0,1-.63,0A.45.45,0,0,1,588,118.93Z" transform="translate(0.68 95.96)"/><circle class="cls-7" cx="681.16" cy="211.58" r="0.76"/><path class="cls-6" d="M658.3,119.41a.76.76,0,1,1,0,1.07A.75.75,0,0,1,658.3,119.41Z" transform="translate(0.68 95.96)"/><path class="cls-6" d="M668,107.28a.54.54,0,1,1,0,.76A.54.54,0,0,1,668,107.28Z" transform="translate(0.68 95.96)"/><path class="cls-6" d="M663.73,111.45a.56.56,0,0,1,.76,0,.54.54,0,1,1-.76,0Z" transform="translate(0.68 95.96)"/><circle class="cls-7" cx="650.4" cy="253.58" r="0.39"/><path class="cls-6" d="M648.89,143.68a.25.25,0,1,1,0,.36A.27.27,0,0,1,648.89,143.68Z" transform="translate(0.68 95.96)"/><path class="cls-6" d="M664.47,141.44a.25.25,0,1,1,.36.36.27.27,0,0,1-.36,0A.25.25,0,0,1,664.47,141.44Z" transform="translate(0.68 95.96)"/><path class="cls-6" d="M672.16,139.56a.25.25,0,0,1,.36.36.27.27,0,0,1-.36,0A.25.25,0,0,1,672.16,139.56Z" transform="translate(0.68 95.96)"/><path class="cls-6" d="M652.91,139.31a.25.25,0,0,1,.36,0,.24.24,0,0,1,0,.35.25.25,0,0,1-.36,0A.24.24,0,0,1,652.91,139.31Z" transform="translate(0.68 95.96)"/><path class="cls-6" d="M686.21,108a.25.25,0,1,1,0,.36A.25.25,0,0,1,686.21,108Z" transform="translate(0.68 95.96)"/><path class="cls-6" d="M649.55,138.09a.25.25,0,1,1,0,.35A.24.24,0,0,1,649.55,138.09Z" transform="translate(0.68 95.96)"/><path class="cls-6" d="M655.9,152.67a.13.13,0,1,1,0,.18A.13.13,0,0,1,655.9,152.67Z" transform="translate(0.68 95.96)"/><circle class="cls-7" cx="656.79" cy="257.6" r="0.13"/><path class="cls-6" d="M651.2,161.67a.13.13,0,1,1,0,.18A.13.13,0,0,1,651.2,161.67Z" transform="translate(0.68 95.96)"/><path class="cls-6" d="M651.08,160a.13.13,0,0,1,.18,0,.15.15,0,0,1,0,.18.13.13,0,0,1-.18-.18Z" transform="translate(0.68 95.96)"/><path class="cls-6" d="M648.83,140.16a.13.13,0,1,1,0,.18A.13.13,0,0,1,648.83,140.16Z" transform="translate(0.68 95.96)"/><path class="cls-6" d="M653.28,150.77a.25.25,0,1,1,.36.36.27.27,0,0,1-.36,0A.25.25,0,0,1,653.28,150.77Z" transform="translate(0.68 95.96)"/><path class="cls-6" d="M683.29,127.73a.25.25,0,1,1,0,.36A.25.25,0,0,1,683.29,127.73Z" transform="translate(0.68 95.96)"/><path class="cls-6" d="M677,151a.25.25,0,1,1,0,.36A.27.27,0,0,1,677,151Z" transform="translate(0.68 95.96)"/><path class="cls-6" d="M686.79,125.47a.26.26,0,0,1,.35,0,.25.25,0,0,1,0,.36.24.24,0,0,1-.35,0A.25.25,0,0,1,686.79,125.47Z" transform="translate(0.68 95.96)"/><path class="cls-6" d="M650.73,173a.25.25,0,0,1,.36,0,.24.24,0,0,1,0,.35.25.25,0,0,1-.36,0A.26.26,0,0,1,650.73,173Z" transform="translate(0.68 95.96)"/><path class="cls-6" d="M666.87,89a1.35,1.35,0,0,1,1.9,0,1.34,1.34,0,0,1-1.9,1.9A1.35,1.35,0,0,1,666.87,89Z" transform="translate(0.68 95.96)"/><path class="cls-5" d="M732.44,61.92a1.34,1.34,0,1,1,1.9,1.9,1.34,1.34,0,0,1-1.9-1.9Z" transform="translate(0.68 95.96)"/><path class="cls-5" d="M694.1,69.58a1.33,1.33,0,0,1,1.9,0,1.34,1.34,0,0,1-1.9,1.9A1.33,1.33,0,0,1,694.1,69.58Z" transform="translate(0.68 95.96)"/><path class="cls-6" d="M649.85,108a1.33,1.33,0,0,1,1.9,0,1.34,1.34,0,0,1-1.9,1.9A1.33,1.33,0,0,1,649.85,108Z" transform="translate(0.68 95.96)"/><path class="cls-6" d="M654,121.94a1.35,1.35,0,0,1,1.9,0,1.34,1.34,0,1,1-1.9,1.9A1.35,1.35,0,0,1,654,121.94Z" transform="translate(0.68 95.96)"/><circle class="cls-7" cx="659.75" cy="169.39" r="0.95"/><path class="cls-6" d="M711.33,48.1a1,1,0,1,1,0,1.35A1,1,0,0,1,711.33,48.1Z" transform="translate(0.68 95.96)"/><path class="cls-6" d="M703.72,55.49a1,1,0,1,1,0,1.35A1,1,0,0,1,703.72,55.49Z" transform="translate(0.68 95.96)"/><circle class="cls-7" cx="676.99" cy="206.77" r="0.95"/><path class="cls-6" d="M672.83,123.1a.7.7,0,1,1,0,1A.71.71,0,0,1,672.83,123.1Z" transform="translate(0.68 95.96)"/><path class="cls-6" d="M678.42,136.77a.69.69,0,1,1,0,1A.68.68,0,0,1,678.42,136.77Z" transform="translate(0.68 95.96)"/><circle class="cls-7" cx="652.82" cy="215.37" r="0.7"/><circle class="cls-7" cx="662.98" cy="187.91" r="0.45"/><path class="cls-6" d="M677.44,112.57a.45.45,0,0,1,.63,0,.45.45,0,0,1,0,.64.45.45,0,0,1-.63,0A.45.45,0,0,1,677.44,112.57Z" transform="translate(0.68 95.96)"/><path class="cls-6" d="M655.05,118.37a.45.45,0,0,1,.63,0,.45.45,0,0,1,0,.64.45.45,0,0,1-.63,0A.45.45,0,0,1,655.05,118.37Z" transform="translate(0.68 95.96)"/><path class="cls-6" d="M705,108.6a.45.45,0,0,1,.63,0,.45.45,0,1,1-.63,0Z" transform="translate(0.68 95.96)"/><path class="cls-6" d="M718.65,105.27a.47.47,0,0,1,.64,0,.45.45,0,0,1,0,.63.45.45,0,0,1-.64,0A.45.45,0,0,1,718.65,105.27Z" transform="translate(0.68 95.96)"/><circle class="cls-7" cx="685.55" cy="201.1" r="0.45"/><path class="cls-6" d="M743.53,49.35a.45.45,0,1,1,0,.64A.47.47,0,0,1,743.53,49.35Z" transform="translate(0.68 95.96)"/><path class="cls-6" d="M678.59,102.66a.45.45,0,1,1,0,.64A.47.47,0,0,1,678.59,102.66Z" transform="translate(0.68 95.96)"/><circle class="cls-7" cx="673.2" cy="202.66" r="0.22"/><circle class="cls-7" cx="690.68" cy="224.62" r="0.22"/><path class="cls-6" d="M690.07,144.22a.23.23,0,0,1,.32.32.24.24,0,0,1-.32,0A.22.22,0,0,1,690.07,144.22Z" transform="translate(0.68 95.96)"/><path class="cls-6" d="M681.53,144.44a.23.23,0,0,1,.31,0,.22.22,0,0,1,0,.32.21.21,0,0,1-.31,0A.22.22,0,0,1,681.53,144.44Z" transform="translate(0.68 95.96)"/><path class="cls-6" d="M681.3,141.49a.24.24,0,0,1,.32,0,.23.23,0,1,1-.32.32A.24.24,0,0,1,681.3,141.49Z" transform="translate(0.68 95.96)"/><path class="cls-6" d="M653.46,121.19a.23.23,0,1,1,.32.32.23.23,0,0,1-.32-.32Z" transform="translate(0.68 95.96)"/><path class="cls-6" d="M677.32,106.34a.22.22,0,0,1,.32,0,.21.21,0,0,1,0,.31.22.22,0,0,1-.32,0A.23.23,0,0,1,677.32,106.34Z" transform="translate(0.68 95.96)"/><path class="cls-6" d="M652,117.86a.23.23,0,0,1,.32.32.23.23,0,1,1-.32-.32Z" transform="translate(0.68 95.96)"/><circle class="cls-7" cx="671.98" cy="206.55" r="0.45"/><path class="cls-6" d="M649.58,117.93a.45.45,0,0,1,.64,0,.45.45,0,0,1,0,.63.47.47,0,0,1-.64,0A.45.45,0,0,1,649.58,117.93Z" transform="translate(0.68 95.96)"/><path class="cls-6" d="M685.21,125.13a.45.45,0,1,1,0,.63A.43.43,0,0,1,685.21,125.13Z" transform="translate(0.68 95.96)"/><path class="cls-6" d="M738.36,84.33A.45.45,0,0,1,739,85a.45.45,0,1,1-.63-.63Z" transform="translate(0.68 95.96)"/><path class="cls-6" d="M727.16,125.57a.45.45,0,0,1,.63,0,.45.45,0,0,1,0,.64.45.45,0,0,1-.63,0A.45.45,0,0,1,727.16,125.57Z" transform="translate(0.68 95.96)"/><circle class="cls-7" cx="667.16" cy="237.39" r="0.45"/><circle class="cls-7" cx="745.55" cy="176.6" r="0.45"/><path class="cls-6" d="M674.38,144.28a.45.45,0,0,1,.63,0,.45.45,0,0,1,0,.64.45.45,0,0,1-.63,0A.45.45,0,0,1,674.38,144.28Z" transform="translate(0.68 95.96)"/><circle class="cls-7" cx="681.69" cy="260.77" r="0.45"/><path class="cls-6" d="M326.5,218.32a.25.25,0,1,1,0,.35A.24.24,0,0,1,326.5,218.32Z" transform="translate(0.68 95.96)"/><circle class="cls-7" cx="346.31" cy="316.03" r="0.76"/><path class="cls-6" d="M355.72,220.19a.39.39,0,1,1,0,.55A.38.38,0,0,1,355.72,220.19Z" transform="translate(0.68 95.96)"/><path class="cls-6" d="M358.87,227.9a.4.4,0,1,1,0,.56A.4.4,0,0,1,358.87,227.9Z" transform="translate(0.68 95.96)"/><circle class="cls-7" cx="344.72" cy="314.06" r="0.39"/><path class="cls-6" d="M320.88,232.3a.4.4,0,1,1,0,.56A.4.4,0,0,1,320.88,232.3Z" transform="translate(0.68 95.96)"/><path class="cls-6" d="M345.68,217.52a.25.25,0,0,1,.36,0,.25.25,0,0,1-.36.36A.25.25,0,0,1,345.68,217.52Z" transform="translate(0.68 95.96)"/><path class="cls-6" d="M365.32,223.23a.13.13,0,1,1,0,.18A.13.13,0,0,1,365.32,223.23Z" transform="translate(0.68 95.96)"/><path class="cls-6" d="M365.45,232.11a.13.13,0,1,1,0,.18A.13.13,0,0,1,365.45,232.11Z" transform="translate(0.68 95.96)"/><path class="cls-6" d="M360.63,232.24a.13.13,0,0,1,.18,0,.14.14,0,0,1,0,.17.13.13,0,0,1-.18,0A.12.12,0,0,1,360.63,232.24Z" transform="translate(0.68 95.96)"/><path class="cls-6" d="M360.5,230.57a.13.13,0,1,1,0,.18A.13.13,0,0,1,360.5,230.57Z" transform="translate(0.68 95.96)"/><path class="cls-6" d="M344.78,219.11a.13.13,0,1,1,0,.18A.13.13,0,0,1,344.78,219.11Z" transform="translate(0.68 95.96)"/><path class="cls-6" d="M344,217.23a.13.13,0,0,1,.18,0,.15.15,0,0,1,0,.18.13.13,0,1,1-.18-.18Z" transform="translate(0.68 95.96)"/><path class="cls-6" d="M339.24,217a.25.25,0,1,1,0,.36A.25.25,0,0,1,339.24,217Z" transform="translate(0.68 95.96)"/><path class="cls-6" d="M342.59,217.27a.25.25,0,0,1,.36,0,.24.24,0,0,1,0,.35.25.25,0,0,1-.36,0A.24.24,0,0,1,342.59,217.27Z" transform="translate(0.68 95.96)"/><path class="cls-6" d="M362.71,221.33a.24.24,0,0,1,.35,0,.25.25,0,0,1,0,.36.24.24,0,0,1-.35,0A.25.25,0,0,1,362.71,221.33Z" transform="translate(0.68 95.96)"/><path class="cls-6" d="M386.39,221.58a.25.25,0,0,1,.36,0,.27.27,0,0,1,0,.36.25.25,0,0,1-.36-.36Z" transform="translate(0.68 95.96)"/><path class="cls-6" d="M352,230.36a.25.25,0,0,1,.36,0,.24.24,0,0,1,0,.35.25.25,0,0,1-.36,0A.24.24,0,0,1,352,230.36Z" transform="translate(0.68 95.96)"/><path class="cls-6" d="M356.59,232.15a.25.25,0,0,1,.36,0,.24.24,0,0,1,0,.35.25.25,0,0,1-.36,0A.24.24,0,0,1,356.59,232.15Z" transform="translate(0.68 95.96)"/><circle class="cls-7" cx="361.02" cy="339.7" r="0.25"/><circle class="cls-7" cx="347.33" cy="320.23" r="0.25"/><path class="cls-6" d="M204.38,216.8a.45.45,0,0,1,.63,0,.45.45,0,0,1,0,.64.45.45,0,0,1-.63,0A.45.45,0,0,1,204.38,216.8Z" transform="translate(0.68 95.96)"/><path class="cls-6" d="M212.88,237.11a.45.45,0,0,1,.64,0,.45.45,0,0,1,0,.63.45.45,0,0,1-.64,0A.45.45,0,0,1,212.88,237.11Z" transform="translate(0.68 95.96)"/><path class="cls-6" d="M451.76,258.93a.45.45,0,1,1-.44-.44A.45.45,0,0,1,451.76,258.93Z" transform="translate(0.68 95.96)"/><path class="cls-5" d="M423.62,251a1.35,1.35,0,1,1-.17-1.89A1.36,1.36,0,0,1,423.62,251Z" transform="translate(0.68 95.96)"/><path class="cls-6" d="M433.47,266.47a.95.95,0,1,1-.12-1.33A.93.93,0,0,1,433.47,266.47Z" transform="translate(0.68 95.96)"/><path class="cls-6" d="M428.26,248a.45.45,0,1,1-.06-.63A.45.45,0,0,1,428.26,248Z" transform="translate(0.68 95.96)"/><path class="cls-6" d="M447.07,253.71a.22.22,0,1,1-.2.24A.22.22,0,0,1,447.07,253.71Z" transform="translate(0.68 95.96)"/><path class="cls-6" d="M444,244.27a.44.44,0,0,1,.48.4.45.45,0,1,1-.89.08A.44.44,0,0,1,444,244.27Z" transform="translate(0.68 95.96)"/><path class="cls-6" d="M410.29,245.13a.21.21,0,0,1-.29.08.21.21,0,1,1,.21-.37A.21.21,0,0,1,410.29,245.13Z" transform="translate(0.68 95.96)"/><path class="cls-5" d="M399.88,268.92a1.35,1.35,0,1,1-.5-1.84A1.35,1.35,0,0,1,399.88,268.92Z" transform="translate(0.68 95.96)"/><path class="cls-6" d="M410.56,247.71a1.34,1.34,0,1,1-.49-1.84A1.35,1.35,0,0,1,410.56,247.71Z" transform="translate(0.68 95.96)"/><path class="cls-6" d="M386.62,261.27a1,1,0,1,1-.35-1.3A.95.95,0,0,1,386.62,261.27Z" transform="translate(0.68 95.96)"/><path class="cls-6" d="M422.17,276.32a.7.7,0,1,1-.25-1A.7.7,0,0,1,422.17,276.32Z" transform="translate(0.68 95.96)"/><path class="cls-6" d="M415.72,297.86a.23.23,0,0,1-.31.08.23.23,0,1,1,.31-.08Z" transform="translate(0.68 95.96)"/><path class="cls-6" d="M373.29,269.73a.24.24,0,0,1-.31.08.23.23,0,0,1-.08-.31.23.23,0,0,1,.39.23Z" transform="translate(0.68 95.96)"/><path class="cls-6" d="M411.5,293.87a.23.23,0,0,1-.31.08.22.22,0,0,1-.08-.3.22.22,0,0,1,.3-.09A.23.23,0,0,1,411.5,293.87Z" transform="translate(0.68 95.96)"/><path class="cls-6" d="M369.36,276.08a.21.21,0,0,1-.3.08.22.22,0,1,1,.22-.38A.21.21,0,0,1,369.36,276.08Z" transform="translate(0.68 95.96)"/><path class="cls-6" d="M380.91,250.93a.45.45,0,1,1-.78-.44.45.45,0,0,1,.78.44Z" transform="translate(0.68 95.96)"/><path class="cls-6" d="M379.14,249.4a.44.44,0,0,1-.61.16.45.45,0,0,1-.16-.61.44.44,0,0,1,.61-.16A.43.43,0,0,1,379.14,249.4Z" transform="translate(0.68 95.96)"/><path class="cls-6" d="M380.59,268.46a1,1,0,1,1-.67,1.16A1,1,0,0,1,380.59,268.46Z" transform="translate(0.68 95.96)"/><path class="cls-6" d="M387.08,244.28a.43.43,0,1,1-.29-.81.43.43,0,0,1,.29.81Z" transform="translate(0.68 95.96)"/><path class="cls-6" d="M372.33,255.17a1,1,0,1,1,.57-1.22A1,1,0,0,1,372.33,255.17Z" transform="translate(0.68 95.96)"/><path class="cls-6" d="M379.28,249.38a.95.95,0,1,1-1.26.46A.95.95,0,0,1,379.28,249.38Z" transform="translate(0.68 95.96)"/><path class="cls-6" d="M381.54,245.06a.23.23,0,0,1,.11.3.23.23,0,0,1-.3.11.23.23,0,0,1-.11-.3A.23.23,0,0,1,381.54,245.06Z" transform="translate(0.68 95.96)"/><path class="cls-6" d="M383.43,249.66a.22.22,0,0,1,.11.29.21.21,0,0,1-.3.11.22.22,0,1,1,.19-.4Z" transform="translate(0.68 95.96)"/><path class="cls-6" d="M377.57,245a.45.45,0,0,1-.38.82.45.45,0,0,1,.38-.82Z" transform="translate(0.68 95.96)"/><path class="cls-6" d="M390.12,235.06a.45.45,0,0,1,.64,0,.45.45,0,0,1,0,.63.45.45,0,0,1-.64,0A.45.45,0,0,1,390.12,235.06Z" transform="translate(0.68 95.96)"/><circle class="cls-7" cx="428.25" cy="335.23" r="0.39"/><path class="cls-6" d="M426.74,225.33a.25.25,0,1,1,0,.36A.25.25,0,0,1,426.74,225.33Z" transform="translate(0.68 95.96)"/><path class="cls-6" d="M442.32,223.09a.25.25,0,1,1,0,.36A.25.25,0,0,1,442.32,223.09Z" transform="translate(0.68 95.96)"/><path class="cls-6" d="M450,221.21a.25.25,0,1,1,0,.36A.25.25,0,0,1,450,221.21Z" transform="translate(0.68 95.96)"/><circle class="cls-7" cx="431.62" cy="317.1" r="0.25"/><path class="cls-6" d="M427.39,219.74a.25.25,0,0,1,.36.36.25.25,0,1,1-.36-.36Z" transform="translate(0.68 95.96)"/><circle class="cls-7" cx="434.52" cy="330.37" r="0.13"/><path class="cls-6" d="M433.87,243.2a.13.13,0,1,1,0,.18A.15.15,0,0,1,433.87,243.2Z" transform="translate(0.68 95.96)"/><path class="cls-6" d="M429.05,243.33a.13.13,0,0,1,.18,0,.11.11,0,0,1,0,.17.13.13,0,0,1-.18,0A.11.11,0,0,1,429.05,243.33Z" transform="translate(0.68 95.96)"/><path class="cls-6" d="M428.92,241.66a.13.13,0,1,1,0,.18A.15.15,0,0,1,428.92,241.66Z" transform="translate(0.68 95.96)"/><path class="cls-6" d="M426.68,221.81a.13.13,0,1,1,0,.18A.13.13,0,0,1,426.68,221.81Z" transform="translate(0.68 95.96)"/><circle class="cls-7" cx="431.99" cy="328.56" r="0.25"/><path class="cls-6" d="M454.81,232.67a.27.27,0,0,1,.36,0,.25.25,0,1,1-.36,0Z" transform="translate(0.68 95.96)"/><path class="cls-6" d="M428.58,254.65a.25.25,0,1,1,.36.36.27.27,0,0,1-.36,0A.25.25,0,0,1,428.58,254.65Z" transform="translate(0.68 95.96)"/><path class="cls-6" d="M456.26,218.42a.7.7,0,1,1,0,1A.71.71,0,0,1,456.26,218.42Z" transform="translate(0.68 95.96)"/><path class="cls-6" d="M467.92,225.87a.22.22,0,0,1,.32,0,.24.24,0,0,1,0,.32.23.23,0,0,1-.32-.32Z" transform="translate(0.68 95.96)"/><path class="cls-6" d="M459.38,226.1a.22.22,0,1,1,0,.31A.21.21,0,0,1,459.38,226.1Z" transform="translate(0.68 95.96)"/><path class="cls-6" d="M459.15,223.15a.22.22,0,0,1,.32,0,.21.21,0,0,1,0,.31.22.22,0,0,1-.32,0A.23.23,0,0,1,459.15,223.15Z" transform="translate(0.68 95.96)"/><path class="cls-6" d="M444,222.77a.45.45,0,0,1,.63.63.45.45,0,0,1-.63-.63Z" transform="translate(0.68 95.96)"/><path class="cls-6" d="M452.23,225.94a.43.43,0,0,1,.63,0,.45.45,0,0,1,0,.63.45.45,0,0,1-.63-.63Z" transform="translate(0.68 95.96)"/><path class="cls-6" d="M458.55,246.15a.43.43,0,0,1,.63,0,.45.45,0,0,1,0,.63.45.45,0,0,1-.63-.63Z" transform="translate(0.68 95.96)"/><circle class="cls-7" cx="657.46" cy="226.3" r="0.45"/></g></g></svg>